<svg xmlns="http://www.w3.org/2000/svg" width="18" height="18" viewBox="0 0 18 18"><path d="M-6-6.984V-6H6v-.984Q6-8.344,3.938-9.211A10.157,10.157,0,0,0,0-10.078a10.157,10.157,0,0,0-3.937.867Q-6-8.344-6-6.984Zm8.109-5.906A2.883,2.883,0,0,0,3-15a2.883,2.883,0,0,0-.891-2.109A2.883,2.883,0,0,0,0-18a2.883,2.883,0,0,0-2.109.891A2.883,2.883,0,0,0-3-15a2.883,2.883,0,0,0,.891,2.109A2.883,2.883,0,0,0,0-12,2.883,2.883,0,0,0,2.109-12.891ZM-9-18.984a1.945,1.945,0,0,1,.586-1.43A1.945,1.945,0,0,1-6.984-21H6.984a1.932,1.932,0,0,1,1.406.609A1.932,1.932,0,0,1,9-18.984V-5.016a1.932,1.932,0,0,1-.609,1.406A1.932,1.932,0,0,1,6.984-3H-6.984a1.945,1.945,0,0,1-1.43-.586A1.945,1.945,0,0,1-9-5.016Z" transform="translate(9 21)" fill="#73747D"/></svg>