<svg xmlns="http://www.w3.org/2000/svg" width="28.18" height="31.544" viewBox="0 0 28.18 31.544"><path d="M49.221,18h-.063a1.158,1.158,0,1,0,.256,2.294l3.694,4.181-3.217,2.842,1.545,1.748a11.724,11.724,0,0,1,2.39-3.49l.441,2.311a31.731,31.731,0,0,1,4.749-.822l-1.527-1.729-2.469-.8a13.376,13.376,0,0,1,3.743-1.946l-1.545-1.749L54,23.683,50.3,19.5A1.157,1.157,0,0,0,49.221,18Zm24.547,0a1.157,1.157,0,0,0-1.083,1.5l-3.7,4.187L65.77,20.842l-1.545,1.749a13.382,13.382,0,0,1,3.743,1.946l-2.469.8-1.485,1.681a31.232,31.232,0,0,1,4.733.732l.415-2.173a11.724,11.724,0,0,1,2.39,3.49L73.1,27.315l-3.217-2.842,3.694-4.181A1.158,1.158,0,1,0,73.831,18h-.063ZM61.863,28.12a29.7,29.7,0,0,0-7.7,1.028c-.131,5.776,2.2,13.369,7.565,16.6,5.191-3.137,7.817-10.85,7.7-16.6a29.716,29.716,0,0,0-7.56-1.027Zm-7.483,9.8L48.833,44.2l-.779,4.08,3.953-1.277,4.374-4.951a20.353,20.353,0,0,1-2-4.132Zm14.573.39a20.772,20.772,0,0,1-2.089,4.032l4.117,4.661,3.953,1.277-.779-4.08-5.2-5.89Z" transform="translate(-47.405 -17.474)" fill="#fff" stroke="rgba(0,0,0,0)" stroke-miterlimit="10" stroke-width="1"/></svg>