<svg xmlns="http://www.w3.org/2000/svg" width="38.178" height="31.285" viewBox="0 0 38.178 31.285"><path d="M-8726.5-1630.7h0a1.494,1.494,0,0,1-1.023-.4,1.481,1.481,0,0,1-.471-1.07,1.574,1.574,0,0,1,.43-1.112,1.574,1.574,0,0,1,.451-.338v-13.148a3.464,3.464,0,0,1,1.469-2.643l3.7-2.3.061.006c.092.008.176.016.268.016h10.348c.092,0,.176-.008.264-.016l.064-.006,3.7,2.3a3.461,3.461,0,0,1,1.471,2.643v13.153a1.535,1.535,0,0,1,.379.256,1.546,1.546,0,0,1,.1,2.177,1.49,1.49,0,0,1-1.1.475,1.575,1.575,0,0,1-1.08-.429,1.389,1.389,0,0,1-.154-.174h-17.643a.344.344,0,0,1-.021.03l-.008.014c-.016.021-.031.042-.047.061A1.586,1.586,0,0,1-8726.5-1630.7Zm13.012-12.552v5.285h1.148v-1.841h1.564a1.968,1.968,0,0,0,.965-.217,1.451,1.451,0,0,0,.6-.6,1.968,1.968,0,0,0,.2-.915,1.977,1.977,0,0,0-.193-.9,1.411,1.411,0,0,0-.58-.591,1.9,1.9,0,0,0-.951-.212Zm-4.051,0h-1.146v5.285h1.146v-1.573l.854-.769h0l1.477,2.342h1.375l-2.057-3.137,2.018-2.148h-1.418l-2.25,2.4Zm-6.455,0v5.285h2.156a3.189,3.189,0,0,0,1.4-.285,1.99,1.99,0,0,0,.889-.871,3.154,3.154,0,0,0,.313-1.487,3.154,3.154,0,0,0-.312-1.492,1.971,1.971,0,0,0-.889-.866,3.159,3.159,0,0,0-1.4-.285Zm19.262,6.489h0v-8.667a15.689,15.689,0,0,0,3.045-3.009,10.461,10.461,0,0,0,2.32-7.858s0,0,.008.009a11.483,11.483,0,0,1,1.254,3.975,11.32,11.32,0,0,1-.215,4.122,12.446,12.446,0,0,1-2.375,4.78,6.171,6.171,0,0,0,2.7-2.706l0,.008a8.847,8.847,0,0,1-.277,3.948,7.244,7.244,0,0,1-1.93,3.126,9.658,9.658,0,0,1-4.537,2.274Zm-23.418,0h0a9.646,9.646,0,0,1-4.535-2.274,7.208,7.208,0,0,1-1.93-3.126,8.9,8.9,0,0,1-.275-3.956,6.254,6.254,0,0,0,2.705,2.705,12.514,12.514,0,0,1-2.375-4.779,11.364,11.364,0,0,1-.215-4.122,11.355,11.355,0,0,1,1.262-3.983,10.47,10.47,0,0,0,2.322,7.858,15.59,15.59,0,0,0,3.039,3.007l0,8.669Zm6.307-2.153h-1v-3.4h1a1.715,1.715,0,0,1,.613.1,1.166,1.166,0,0,1,.447.3,1.277,1.277,0,0,1,.271.492,2.473,2.473,0,0,1,.092.69v.232a2.461,2.461,0,0,1-.092.688,1.316,1.316,0,0,1-.271.495,1.13,1.13,0,0,1-.447.3A1.787,1.787,0,0,1-8721.844-1638.914Zm10.914-1.834h-1.41v-1.564h1.41a.86.86,0,0,1,.42.092.6.6,0,0,1,.25.263.955.955,0,0,1,.086.425.8.8,0,0,1-.2.577A.717.717,0,0,1-8710.93-1640.748Zm-.387-11.5h-10.248a1.115,1.115,0,0,1-1.115-1.113,1.116,1.116,0,0,1,1.115-1.115h10.248a1.115,1.115,0,0,1,1.115,1.115A1.114,1.114,0,0,1-8711.316-1652.252Zm-.3-2.787h-9.635a2.811,2.811,0,0,1-.59-1.441c-.029-.223-.088-.514-.152-.85l-.012-.06c-.264-1.336-.627-3.164.164-3.545a.423.423,0,0,1,.188-.044c.43,0,.91.6,1.42,1.241l.018.024c.5.625,1.012,1.268,1.48,1.268h.027c.4-.023.766-.586,1.123-1.131l0-.006c.365-.559.742-1.134,1.146-1.134.387,0,.748.55,1.1,1.082s.689,1.052,1.066,1.081h.039c.469,0,1-.618,1.52-1.215l.021-.026c.531-.611,1.031-1.188,1.463-1.188a.437.437,0,0,1,.2.049c.777.4.422,2.216.162,3.544-.072.362-.131.674-.162.911a2.877,2.877,0,0,1-.59,1.44Z" transform="translate(8735.541 1661.483)" fill="#fff" stroke="rgba(0,0,0,0)" stroke-width="1"/></svg>