<svg xmlns="http://www.w3.org/2000/svg" width="38.387" height="29.775" viewBox="0 0 38.387 29.775"><path d="M28.842,31.51c-1.987-8.619-10.867-8.258-13.58-11.39a3.07,3.07,0,0,1-.174-4.242,3.272,3.272,0,0,1,4.049-.313A20.9,20.9,0,0,1,23.072,19.2a11.517,11.517,0,0,1,.775,1.934,1.589,1.589,0,0,0,2.029.592,5.337,5.337,0,0,0,1.462-.652,2.006,2.006,0,0,1-1.374-.591s-1.365-2.992-1.853-4.215A11.462,11.462,0,0,1,27.363,17.6a6.706,6.706,0,0,1-.21,1.864A7.083,7.083,0,0,0,28.441,18.4c.037.031.075.061.111.09.265.211-.223,1.883-.223,1.883a8.9,8.9,0,0,0,1.619-1.45,12.1,12.1,0,0,0,1.119-1.63A7.237,7.237,0,0,1,28.163,15a3.286,3.286,0,0,1-.118-3.03,6.131,6.131,0,0,1-2.816-2.342A6.086,6.086,0,0,1,24.4,5.286c-1.1.441-2.06,2.624-2.06,2.624a11.614,11.614,0,0,0-6.374-1.02A8.149,8.149,0,0,1,8.443,1.8a7.025,7.025,0,0,0,2.705,6.937c-.2.135-.4.277-.6.43A5.46,5.46,0,0,1,4.725,8.9a5.954,5.954,0,0,0,.435,1.407,4.412,4.412,0,0,0,1.925,2.179,2.852,2.852,0,0,0,.315.139,11.344,11.344,0,0,0-.571,1.023A4.351,4.351,0,0,1,2,15.628a4.169,4.169,0,0,0,2.761,2.024,2.144,2.144,0,0,0,1.072-.132,14.419,14.419,0,0,0,.106,2.108,3.388,3.388,0,0,1-2.452,3.147h0a3.248,3.248,0,0,0,2.651.267,1.7,1.7,0,0,0,.589-.418c1.047,2.528,2.945,4.567,5.365,6.893.649.625,1.378,1.294,2.117,1.991,5.534.32,3.032-1,6.69-1S28.928,31.886,28.842,31.51ZM23.879,12.043l2.057,2.047-3.284-1.185Zm4.962,9.475a4.713,4.713,0,0,0,2.4,1.229,3.157,3.157,0,0,1-.236.836,5.5,5.5,0,0,0,5.324.686c-.135,1.541-2.046,2.221-2.046,2.221s2.052,2.543,6.1.983c-2.2,2.86-5.479,2.063-7.475,1.041A8.219,8.219,0,0,1,28.842,21.518Z" transform="translate(-2 -1.8)" fill="#fff"/></svg>