<svg xmlns="http://www.w3.org/2000/svg" width="31.389" height="31.207" viewBox="0 0 31.389 31.207"><path d="M5.567,4.47,2.138,8.495a.255.255,0,0,0,.034.359.252.252,0,0,0,.162.059H4.159v1.365a.308.308,0,0,0,.309.308H7.2a.308.308,0,0,0,.31-.305h0V8.913H9.333a.255.255,0,0,0,.2-.419L6.1,4.47a.353.353,0,0,0-.494-.042A.368.368,0,0,0,5.567,4.47Zm19.4,0L21.542,8.495a.255.255,0,0,0,.034.359.252.252,0,0,0,.162.059h1.824v1.365a.309.309,0,0,0,.31.308H26.6a.308.308,0,0,0,.31-.305h0V8.913h1.823a.255.255,0,0,0,.256-.256h0a.262.262,0,0,0-.059-.162L25.5,4.47a.352.352,0,0,0-.493-.042A.32.32,0,0,0,24.971,4.47ZM.822,31.206H2.6l5.783-7.291,2.768,4.276a8.158,8.158,0,0,0,1.932,2.137,4.042,4.042,0,0,0,2.535.877h3.015v-.548a3.856,3.856,0,0,1-1.918-.987,8.425,8.425,0,0,1-1.754-2.028l-4.3-6.605,6.276-7.92H15.156L9.867,19.8,7.482,16.129A8.2,8.2,0,0,0,5.55,13.991a4.055,4.055,0,0,0-2.535-.877H0v.548a3.868,3.868,0,0,1,1.918.991,8.484,8.484,0,0,1,1.754,2.028l3.892,6Zm17.814,0H22.2V23.888h2.6a10.852,10.852,0,0,0,2.713-.384,5.856,5.856,0,0,0,2.673-1.562,4.457,4.457,0,0,0,1.192-3.317q0-3.289-2.288-4.4a11.56,11.56,0,0,0-5.112-1.11H16.444v.822h.274a1.616,1.616,0,0,1,1.535.671,4.317,4.317,0,0,1,.384,2.069ZM22.2,22.792V14.406l.548-.082a5.336,5.336,0,0,1,1.233-.11,3.523,3.523,0,0,1,2.535.987,4.414,4.414,0,0,1,1.028,3.289A4.424,4.424,0,0,1,26.5,21.806a3.711,3.711,0,0,1-2.659.987H22.2ZM15.151.181l-4.926,6a.389.389,0,0,0,.047.536.363.363,0,0,0,.234.088h2.622V9.766a.452.452,0,0,0,.445.459H17.5a.451.451,0,0,0,.446-.457V6.8h2.62a.375.375,0,0,0,.367-.382.383.383,0,0,0-.085-.241l-4.926-6a.494.494,0,0,0-.694-.074L15.21.122A.57.57,0,0,0,15.151.181Z" transform="translate(0 0)" fill="#fff" fill-rule="evenodd"/></svg>