<svg xmlns="http://www.w3.org/2000/svg" width="31.285" height="31.285" viewBox="0 0 31.285 31.285"><path d="M20.143,5a14.949,14.949,0,0,0-4.122.589l1.984,5.165a9.359,9.359,0,0,1,4.275,0l1.984-5.165A15,15,0,0,0,20.143,5ZM13.453,6.586A15.294,15.294,0,0,0,8.186,10.9l4.659,2.966c.132-.153.273-.3.414-.441v.013a.563.563,0,0,1,.18-.18h-.024a9.642,9.642,0,0,1,2.019-1.519Zm13.379,0L24.85,11.743a9.67,9.67,0,0,1,2.006,1.516h-.011a.563.563,0,0,1,.18.18v-.022a9.706,9.706,0,0,1,.653.737l4.77-2.783A15.282,15.282,0,0,0,26.832,6.586ZM6.7,13.219A15,15,0,0,0,5,20.143h5.506a9.577,9.577,0,0,1,.858-3.952Zm13.443.04a6.487,6.487,0,0,0-1.377.137V32.532h2.753V13.4A6.487,6.487,0,0,0,20.143,13.26Zm13.7.487-4.77,2.783a9.6,9.6,0,0,1,.71,3.614h5.506A14.978,14.978,0,0,0,33.839,13.746Zm-17.826.89a6.9,6.9,0,0,0-2.753,5.506V32.532h2.753Zm8.26,0v17.9h2.753V20.143A6.9,6.9,0,0,0,24.272,14.636ZM5,22.9V28.4h5.506V22.9Zm24.779,0V28.4h5.506V22.9ZM5,31.155v4.13h5.506v-4.13Zm24.779,0v4.13h5.506v-4.13Z" transform="translate(-4.5 -4.5)" fill="#fff" stroke="rgba(0,0,0,0)" stroke-miterlimit="10" stroke-width="1"/></svg>