<svg xmlns="http://www.w3.org/2000/svg" width="28.25" height="31.39" viewBox="0 0 28.25 31.39"><path d="M-9031.293-943.2v-4.186a14.142,14.142,0,0,1,14.125-14.125,14.141,14.141,0,0,1,14.125,14.125v4.186c0,7.21-6.335,13.078-14.125,13.078S-9031.293-935.995-9031.293-943.2Zm14.648,9.925v2.094a14.31,14.31,0,0,0,1.571-.143v-2.094A13.886,13.886,0,0,1-9016.645-933.279Zm-2.615,1.951a14.323,14.323,0,0,0,1.568.143v-2.094a13.773,13.773,0,0,1-1.568-.143Zm5.231-2.294v2.1a13.891,13.891,0,0,0,1.57-.458v-2.092A14.053,14.053,0,0,1-9014.028-933.622Zm-7.848,1.639a13.918,13.918,0,0,0,1.568.458v-2.1a14.08,14.08,0,0,1-1.568-.453Zm10.463-2.514v2.094a13.439,13.439,0,0,0,1.606-.864h-.036v-2.051A14.1,14.1,0,0,1-9011.413-934.5Zm-11.51,2.094V-934.5a14.07,14.07,0,0,1-1.568-.82v2.051h-.036A13.413,13.413,0,0,0-9022.923-932.4Zm14.125-3.62v2.053a12.545,12.545,0,0,0,1.571-1.43v-1.967A14.364,14.364,0,0,1-9008.8-936.022Zm-18.309.623a12.656,12.656,0,0,0,1.568,1.43v-2.053a14.242,14.242,0,0,1-1.568-1.344Zm-.928-11.992a10.878,10.878,0,0,0,10.866,10.866,10.88,10.88,0,0,0,10.868-10.866,10.88,10.88,0,0,0-10.868-10.866A10.88,10.88,0,0,0-9028.034-947.391Zm21.848,8.871a.074.074,0,0,1,.007.023v1.809a11.355,11.355,0,0,0,2.006-5.168A14.07,14.07,0,0,1-9006.187-938.52Zm-21.968,1.831V-938.5c0-.007,0-.014,0-.023a14.135,14.135,0,0,1-2.013-3.336A11.391,11.391,0,0,0-9028.154-936.688Zm9.986-.972a9.82,9.82,0,0,1-8.729-8.729,9.79,9.79,0,0,1,10.73-10.73,9.817,9.817,0,0,1,8.729,8.726,9.792,9.792,0,0,1-9.73,10.782C-9017.5-937.611-9017.831-937.627-9018.168-937.661Zm-3.157-6.312a.521.521,0,0,0-.011.739,4.3,4.3,0,0,0,3.391,1.405.264.264,0,0,1,.254.261v.5a.524.524,0,0,0,.523.524.522.522,0,0,0,.523-.524v-.537a.258.258,0,0,1,.231-.256c2-.245,3.456-1.3,3.574-2.674.048-.558-.1-2.362-3.6-3.223a.265.265,0,0,1-.2-.254v-3.617a.265.265,0,0,1,.281-.263,3.278,3.278,0,0,1,2.579,1.036.521.521,0,0,0,.734.084.52.52,0,0,0,.084-.734,4.458,4.458,0,0,0-3.432-1.432.265.265,0,0,1-.247-.261v-.51a.522.522,0,0,0-.523-.524.524.524,0,0,0-.523.524v.537a.258.258,0,0,1-.231.256c-2.169.283-3.315,1.661-3.336,3.012-.019,1.3,1.013,2.65,3.338,2.974a.261.261,0,0,1,.229.256v3.54a.261.261,0,0,1-.274.261,3.237,3.237,0,0,1-2.62-1.086.521.521,0,0,0-.376-.16A.519.519,0,0,0-9021.325-943.973Zm4.681.78v-3.2a.263.263,0,0,1,.331-.254c1.854.542,2.486,1.392,2.432,2.019-.061.719-.983,1.466-2.466,1.7a.248.248,0,0,1-.039,0A.263.263,0,0,1-9016.645-943.193Zm-1.351-4.821c-1.532-.276-2.23-1.092-2.217-1.877.012-.843.779-1.7,2.222-1.951a.261.261,0,0,1,.3.261v3.309a.262.262,0,0,1-.258.263A.251.251,0,0,1-9018-948.014Z" transform="translate(9031.293 961.516)" fill="#fff"/></svg>