<svg xmlns="http://www.w3.org/2000/svg" width="264.77" height="218.072" viewBox="0 0 264.77 218.072"><g transform="translate(6.84 81.265)"><path d="M59.826,112.755h.035a.2.2,0,0,1,.036,0h.213a.209.209,0,0,1,.038,0h.139a.225.225,0,0,1,.039,0h.211a.181.181,0,0,1,.035,0h.349c.388-.023.775-.049,1.159-.081l.182,2.25c-.778.061-1.567.109-2.348.14Zm-6.96,2.108.183-2.248.372.029h.4a.17.17,0,0,1,.032,0h.075a.149.149,0,0,0,.03,0,.218.218,0,0,0,.039,0h.033a.2.2,0,0,1,.036,0h.07a.227.227,0,0,1,.038,0h.31a.216.216,0,0,1,.037,0h.2c.193.01.388.02.582.026l-.094,2.256A16.35,16.35,0,0,1,52.866,114.863Zm13.7-2.782.032-.006.037-.006h0c.724-.118,1.438-.25,2.152-.4l.453,2.211c-.764.156-1.544.3-2.315.422Zm-20.68,1.781.458-2.209c.736.152,1.474.288,2.22.412L48.2,114.29c-.772-.125-1.551-.27-2.313-.428Zm27.287-3.275c.2-.059.4-.118.6-.179h0l.02-.006.037-.012h.008l.028-.008a.194.194,0,0,0,.027-.008l.034-.01.033-.01.032-.01.035-.012a.154.154,0,0,0,.03-.008l.025-.008.033-.01.032-.01h.01l.024-.008.031-.01.035-.01.037-.012a.147.147,0,0,0,.028-.008l.022-.008a.023.023,0,0,0,.012,0l.025-.006.028-.01h.01l.028-.008h.008l.057-.019h0a.2.2,0,0,1,.038-.012h0c.26-.083.523-.169.783-.258l.722,2.137c-.74.25-1.5.488-2.243.7Zm-34.1,1.427.726-2.136c.15.051.3.1.451.15h.006l.055.018h.011l.022.008a.077.077,0,0,1,.029.01.2.2,0,0,0,.035.01.117.117,0,0,0,.025.008h0a.067.067,0,0,1,.028.01h.006a.154.154,0,0,0,.031.01h0q.675.216,1.349.416a.177.177,0,0,0,.032.01h0l.061.018h.006l-.639,2.164c-.738-.21-1.493-.446-2.233-.7Zm40.469-3.722q1.037-.448,2.056-.936l.98,2.032c-.7.337-1.423.666-2.142.975Zm-46.995,1.052.984-2.032c.106.053.212.1.317.152h0l.03.012h0l.029.014.024.012h.007l.024.012h.011l.024.012.025.012a.067.067,0,0,1,.022.01h.012a.042.042,0,0,0,.016.008h0l.032.016c.484.225.972.447,1.464.66l-.9,2.069c-.7-.288-1.417-.618-2.12-.956Zm5.269-5.048A50.76,50.76,0,0,1,57.4,6.768l.321-.465.318.467A50.76,50.76,0,1,1,37.822,104.3ZM9.03,57.527A48.586,48.586,0,1,0,59.6,9.065l7.71,11.322L57.383,34.809l-4.174-6.13-29,28.951L57.721,91.087,91.234,57.631,61.86,28.308l1.3-1.893L94.431,57.631,57.723,94.277h0L21.015,57.631l30.9-30.85.4.588-4.014-5.9A37.289,37.289,0,1,0,66.617,21.4l.7-1.01-4.456-6.544a44.2,44.2,0,1,1-10.312-.02l-.286.416L55.829,9.06A48.54,48.54,0,0,0,9.03,57.527Zm41.5-36.794,6.862,10.079,7.18-10.43L57.711,10.3Zm35.059,84.5q.824-.484,1.627-.991h0l.028-.018h0l.025-.016h0l.025-.014.008-.006a.1.1,0,0,0,.022-.014l.01-.006.017-.01.018-.011a.012.012,0,0,0,.01-.008l.049-.03h0l.077-.049,1.222,1.9c-.657.42-1.332.834-2,1.228Zm-59.186.66L27.631,104q.464.3.935.591h0a.184.184,0,0,1,.032.02h0l.049.031.01.006.022.012.01.008c.006,0,.01.006.016.008l.019.012.01.006.021.012.01.006.018.012h.008a.118.118,0,0,0,.024.014l.006.007.026.014h0l.026.014.026.016h0l.028.018.606.362-1.147,1.943c-.651-.379-1.324-.795-1.986-1.217Zm64.809-4.432c.6-.459,1.188-.926,1.768-1.407l1.444,1.734c-.6.5-1.218.991-1.839,1.463Zm-70.49.262,1.448-1.732c.19.156.38.312.572.467h0l.024.018h.006l.02.019.008.006a.1.1,0,0,1,.017.014.02.02,0,0,1,.01.008.1.1,0,0,1,.018.014l.012.01a.034.034,0,0,1,.01.008.126.126,0,0,1,.02.016l.008.006q.512.411,1.037.814l-1.377,1.789c-.613-.463-1.231-.956-1.831-1.455Zm75.611-4.69a.234.234,0,0,1,.025-.023.2.2,0,0,1,.022-.02l.006-.006a.1.1,0,0,1,.02-.02h0l.016-.016.008-.008.018-.018.011-.01.012-.012.014-.014a.055.055,0,0,1,.01-.008l.018-.02.008-.006.043-.042c.455-.451.9-.912,1.344-1.377l1.645,1.548c-.535.566-1.088,1.129-1.647,1.675ZM15.6,96.9l1.649-1.545c.128.138.256.274.388.408h0c.025.024.047.049.071.075h0l.023.022h0l.023.022.018.02.006.006.019.019.008.008.018.018a.016.016,0,0,0,.008.008l.012.014.01.01a.092.092,0,0,0,.016.016.055.055,0,0,1,.008.01l.016.016.01.01a.062.062,0,0,1,.01.012.07.07,0,0,1,.016.016l.01.01.013.011c0,.006.01.01.014.016l.012.012.008.008a.146.146,0,0,1,.018.02l.008.006a.185.185,0,0,1,.022.024h0a.086.086,0,0,0,.012.014h0l.024.024h0l.027.026h0l.044.043h0c.01.008.018.019.029.029l.043.042h0a.235.235,0,0,1,.026.029h0c.024.023.049.047.071.071h0a.158.158,0,0,0,.026.026h0l.043.043h0l.024.022v.006a.162.162,0,0,1,.02.021.025.025,0,0,1,.008.008l.012.012.008.008.018.018.008.008.016.016.012.01.011.012.016.016a.055.055,0,0,0,.01.008.078.078,0,0,0,.012.014.045.045,0,0,1,.01.01.073.073,0,0,1,.016.016.019.019,0,0,1,.008.008.148.148,0,0,1,.02.018l.006.006.021.02.022.022h0a.2.2,0,0,0,.022.022h0l.1.1L17.2,98.53C16.683,98.027,16.13,97.463,15.6,96.9Zm85.285-4.879a.43.43,0,0,0,.032-.04c.124-.157.25-.313.373-.471h0l.037-.048h0l.022-.028v-.006l.018-.024s.006-.006.006-.008a.079.079,0,0,0,.012-.014h0c.006-.01.015-.018.021-.028l.006-.006.016-.023a.012.012,0,0,1,.008-.01c.008,0,.006-.009.01-.012l.012-.018a.047.047,0,0,0,.01-.012l.01-.01.012-.018.01-.013.008-.012a.14.14,0,0,0,.014-.018l.01-.012a.093.093,0,0,0,.013-.016l.01-.012.01-.014.009-.01a.111.111,0,0,1,.014-.019.056.056,0,0,0,.008-.01l.015-.02.008-.01.012-.014.009-.012a.045.045,0,0,1,.014-.016.029.029,0,0,1,.006-.01c0-.006.012-.014.016-.02l.007-.01a.083.083,0,0,1,.014-.016l.008-.012a.1.1,0,0,0,.013-.016l.006-.008a.173.173,0,0,1,.017-.02.012.012,0,0,1,.008-.01.162.162,0,0,1,.014-.02.009.009,0,0,1,.006-.008l.013-.016a.055.055,0,0,0,.008-.01.114.114,0,0,0,.015-.018l.008-.012a.122.122,0,0,0,.015-.019l.008-.01a.046.046,0,0,0,.01-.014l.012-.015a.062.062,0,0,1,.01-.014l.008-.012c0-.006.011-.012.014-.018a.078.078,0,0,0,.011-.014l.006-.006.018-.024v-.008l.037-.047c.1-.128.191-.258.287-.386l1.82,1.336c-.462.627-.941,1.253-1.429,1.862ZM11.1,91.485l1.825-1.334c.1.142.207.284.313.424h0a.167.167,0,0,0,.021.027h0l.021.026h0a.161.161,0,0,0,.02.024s0,0,0,.006l.017.022.006.007a.128.128,0,0,0,.015.02l.006.008.014.018.006.01.016.02.008.01.011.014.012.016a.055.055,0,0,1,.008.01s.01.012.015.02l.008.01a.041.041,0,0,1,.01.014l.009.008a.164.164,0,0,0,.016.022l.006.008a.261.261,0,0,0,.02.026h0q.388.512.787,1.011L12.52,93.345c-.486-.609-.966-1.237-1.428-1.864Zm93.689-5c.013-.018.025-.039.037-.057h0c.006-.008.012-.019.019-.029l.036-.059h0a.286.286,0,0,1,.016-.028h0a.156.156,0,0,0,.016-.026c.006-.01.012-.018.016-.026s0,0,0-.006.01-.016.017-.027h0a.2.2,0,0,0,.016-.026h0l.014-.024h0c0-.008.01-.018.014-.024a.028.028,0,0,1,.006-.008c0-.008.01-.016.014-.024V86.12l.012-.02v-.008a.242.242,0,0,1,.015-.024l.006-.008c0-.008.008-.014.012-.022l.006-.01a.049.049,0,0,0,.01-.016l.008-.014.01-.016.008-.012a.077.077,0,0,1,.012-.02l.006-.012.008-.014.012-.018a.08.08,0,0,1,.006-.013.1.1,0,0,1,.01-.014.145.145,0,0,1,.01-.018l.008-.014.006-.008a.3.3,0,0,1,.015-.026V85.8a.291.291,0,0,0,.02-.03h0l.01-.016a.007.007,0,0,0,0-.006.3.3,0,0,0,.018-.029v-.006l.018-.03h0c.011-.018.023-.035.033-.053h0q.259-.439.512-.884h0a.27.27,0,0,0,.018-.033h0s.02-.033.028-.049l.006-.01.012-.023a.047.047,0,0,0,.006-.012.034.034,0,0,0,.008-.014l.012-.019v-.006l1.97,1.1c-.383.678-.783,1.358-1.192,2.022Zm-97.5-.93,1.973-1.1c.048.086.1.17.144.256v.006a.115.115,0,0,0,.014.024.015.015,0,0,0,.006.014l.008.013c0,.006.008.014.012.02s0,.006,0,.01a.209.209,0,0,1,.014.024v.006c0,.008.008.014.014.024h0l.017.028h0c.187.327.376.649.569.973h0a.143.143,0,0,1,.016.028h0l.015.024c.005.008,0,0,0,.006l.012.02a.029.029,0,0,0,.006.01l.012.02a.084.084,0,0,1,.008.014l.006.01c.006.008.01.019.017.027h0c.076.123.151.248.228.374L8.471,87.583c-.409-.664-.81-1.346-1.19-2.027Zm50.1,1.255L27.93,57.411l26.7-26.649,2.587,3.8-22.9,22.849L57.383,80.434,80.442,57.411,57.556,34.561l2.6-3.783L86.837,57.411l-29.451,29.4h0Zm50.592-6.288c.314-.684.613-1.372.9-2.071l2.091.855c-.3.721-.61,1.445-.935,2.154ZM4.224,79.212l2.093-.851.048.116.006.018c0,.006.006.012.008.02l.006.012a.11.11,0,0,0,.008.018.042.042,0,0,0,0,.012.062.062,0,0,0,.01.024c0,.008,0,0,0,.006l.013.028c.25.607.515,1.21.787,1.807l-2.057.936C4.832,80.659,4.519,79.933,4.224,79.212Zm106.189-5a.052.052,0,0,0,0-.016s0-.006,0-.009a.059.059,0,0,0,0-.016v-.014a.106.106,0,0,0,.008-.021.039.039,0,0,1,0-.016s0-.008,0-.012a.034.034,0,0,1,.008-.024.037.037,0,0,1,0-.012.16.16,0,0,1,.008-.024.014.014,0,0,1,0-.008.035.035,0,0,1,.006-.023.02.02,0,0,0,0-.008.069.069,0,0,1,.011-.029.008.008,0,0,1,0-.006.147.147,0,0,1,.008-.028.2.2,0,0,1,.008-.028.166.166,0,0,1,.008-.03c.006-.02.012-.043.019-.063h0s.006-.02.01-.03h0c.006-.02.015-.042.02-.063h0a.1.1,0,0,1,.01-.032h0a.62.62,0,0,0,.02-.065h0a.2.2,0,0,0,.011-.033h0a.5.5,0,0,0,.02-.065h0c.011-.035.02-.065.03-.1h0l.062-.2c.01-.035.02-.067.03-.1q.153-.524.3-1.053l2.18.59c-.2.753-.427,1.511-.663,2.254ZM1.973,72.538l2.183-.587c.093.345.188.69.289,1.033a.149.149,0,0,0,.01.039l.018.059a.015.015,0,0,0,0,.008.205.205,0,0,0,.008.028.055.055,0,0,0,0,.009.159.159,0,0,1,.006.018.074.074,0,0,1,0,.01.13.13,0,0,1,.008.026v.012l.006.022a.037.037,0,0,1,0,.014.037.037,0,0,1,0,.016.068.068,0,0,1,.006.016.022.022,0,0,0,.006.018.03.03,0,0,0,0,.014.028.028,0,0,0,0,.014l.006.022a.051.051,0,0,1,0,.014.115.115,0,0,1,.006.018l.006.019a.07.07,0,0,0,0,.016.062.062,0,0,1,0,.012.031.031,0,0,0,.006.022.049.049,0,0,1,0,.014.02.02,0,0,0,.006.018.069.069,0,0,1,0,.018l.057.02a.032.032,0,0,0,0,.014.031.031,0,0,0,.006.022.046.046,0,0,1,0,.014.031.031,0,0,1,0,.015.1.1,0,0,1,.008.024.038.038,0,0,0,0,.012.053.053,0,0,0,0,.014.029.029,0,0,0,.006.022l.006.016v.01a.14.14,0,0,1,.008.026.061.061,0,0,1,0,.01c.006.018.01.036.017.057a.121.121,0,0,0,.01.036h0c.033.106.065.209.1.315l-2.155.676C2.4,74.05,2.176,73.291,1.973,72.538Zm110.079-4.889h0a.194.194,0,0,0,0-.033h0l.006-.033h0c.13-.712.248-1.433.352-2.156l2.237.319c-.11.772-.238,1.551-.38,2.316ZM.56,65.64l2.24-.314c.014.1.029.2.043.3h0a.455.455,0,0,0,.01.061c0,.021,0,.006,0,.01a.1.1,0,0,0,0,.024.039.039,0,0,0,0,.016.031.031,0,0,0,0,.014.132.132,0,0,0,0,.026v.008a.126.126,0,0,0,0,.024v.006a.054.054,0,0,0,.006.031v.006a.165.165,0,0,1,0,.033h0a.387.387,0,0,0,.01.067h0q.122.8.268,1.6l-2.223.406C.8,67.192.669,66.412.56,65.64Zm112.316-4.7c.006-.1.013-.2.019-.3h0v-.063h0V60.5a.09.09,0,0,0,0-.024.037.037,0,0,1,0-.014v-.041a.024.024,0,0,0,0-.012v-.07a.1.1,0,0,0,0-.027V60.3a.1.1,0,0,0,0-.025v-.046a.1.1,0,0,1,0-.026v-.076a.127.127,0,0,0,0-.028v-.038h0a.149.149,0,0,1,0-.031v-.106h0v-.171c.012-.351.024-.7.03-1.06l2.259.047c-.016.779-.048,1.569-.1,2.345ZM0,58.623l2.259-.04c.015.753.045,1.506.09,2.254l-2.257.132C.047,60.193.016,59.4,0,58.623Zm112.851-4.875h0v-.033h0v-.034a.13.13,0,0,1,0-.029s0-.008,0-.01v-.057a.04.04,0,0,1,0-.016v-.012a.121.121,0,0,1,0-.029.011.011,0,0,1,0-.008v-.061h0q-.049-.67-.114-1.334V52.06h0V52a.218.218,0,0,1,0-.037h0a.053.053,0,0,1,0-.018.017.017,0,0,0,0-.01v-.014l2.247-.225c.079.774.142,1.562.189,2.339l-2.255.136a1.649,1.649,0,0,1-.067-.422ZM.1,53.931c.049-.778.112-1.565.191-2.339l2.249.232c-.077.745-.138,1.492-.185,2.248Zm111.87-6.962a.581.581,0,0,0-.014-.067h0a.325.325,0,0,1-.006-.033.007.007,0,0,0,0-.006.166.166,0,0,0,0-.03.1.1,0,0,1,0-.024.019.019,0,0,1,0-.01.04.04,0,0,0-.006-.026.018.018,0,0,0,0-.01.115.115,0,0,0,0-.024s0-.006,0-.008a.136.136,0,0,1,0-.024.026.026,0,0,1,0-.012l-.007-.024v-.012a.148.148,0,0,0,0-.019c0-.006,0-.01,0-.014a.038.038,0,0,0-.006-.023.026.026,0,0,0,0-.012c0-.01,0-.016,0-.027a.014.014,0,0,1,0-.01.1.1,0,0,1,0-.02.02.02,0,0,1,0-.01.045.045,0,0,0-.006-.026c-.006-.01,0-.008,0-.012a.079.079,0,0,1,0-.022v-.012a.06.06,0,0,0,0-.02.021.021,0,0,0,0-.01.052.052,0,0,0-.006-.029v-.008a.041.041,0,0,0-.007-.027.007.007,0,0,0,0-.006c0-.01,0-.016,0-.027a.014.014,0,0,1,0-.008.057.057,0,0,0-.006-.03h0a.081.081,0,0,0-.006-.031h0a.07.07,0,0,0-.006-.033c-.067-.323-.137-.642-.209-.962l2.2-.5c.173.759.332,1.533.474,2.3l-2.223.41A1.443,1.443,0,0,1,111.97,46.969ZM.964,46.945c.142-.765.3-1.539.478-2.3l2.2.5c-.1.438-.2.879-.287,1.322h0c-.006.032-.014.067-.02.1h0a.329.329,0,0,1-.012.061h0a.337.337,0,0,1-.008.039h0a.367.367,0,0,1-.012.063c-.04.2-.079.406-.118.612Zm109.29-6.589h0a.076.076,0,0,0-.01-.03h0a.112.112,0,0,0-.008-.028s0,0,0-.006-.006-.018-.008-.028,0-.007,0-.009-.006-.018-.008-.026,0-.006,0-.01a.09.09,0,0,0-.006-.018.035.035,0,0,0,0-.014l-.006-.02-.006-.014a.02.02,0,0,0,0-.012.1.1,0,0,0-.008-.027s0,0,0-.006c-.151-.451-.3-.9-.468-1.346L111.851,38c.266.733.519,1.482.754,2.226l-2.155.678C110.37,40.713,110.313,40.533,110.254,40.356ZM2.679,40.115c.235-.743.49-1.49.756-2.223l2.125.77-.049.13h0l-.012.03h0a.15.15,0,0,0-.01.03h0a.178.178,0,0,1-.01.031v.006a.132.132,0,0,1-.011.028c0,.01,0,0,0,.006a.111.111,0,0,0-.008.024.006.006,0,0,0,0,.006.142.142,0,0,0-.01.026s0,.006,0,.008-.006.018-.008.026a.05.05,0,0,1,0,.01l-.006.021v.01a.185.185,0,0,0-.008.025.014.014,0,0,0,0,.01.062.062,0,0,1-.01.024c0,.008,0,.006,0,.01a.107.107,0,0,0-.008.02s0,.006,0,.008a.13.13,0,0,1-.01.026.057.057,0,0,1,0,.01.111.111,0,0,1-.008.024s0,.006,0,.01a.03.03,0,0,1-.006.02.091.091,0,0,1,0,.012.2.2,0,0,0-.009.022s0,.006,0,.01-.006.016-.008.025,0,.008,0,.01a.031.031,0,0,1-.006.02c-.006.006,0,.006,0,.01a.121.121,0,0,1-.008.024s0,.006,0,.01-.006.016-.008.024a.069.069,0,0,0,0,.012l-.007.019v.01s-.006.016-.008.025,0,.008,0,.01-.006.018-.008.027,0,.006,0,.01a.031.031,0,0,1-.006.02c-.006.008,0,.006,0,.008s-.006.016-.008.024,0,.008,0,.012-.006.016-.008.024v.01a.026.026,0,0,1-.006.02c-.006.006,0,.006,0,.008a.133.133,0,0,1-.008.027v.01a.1.1,0,0,1-.008.024.02.02,0,0,1,0,.011.024.024,0,0,1-.006.02c-.006.006,0,.006,0,.01a.1.1,0,0,1-.01.024c0,.008,0,.006,0,.01a.134.134,0,0,1-.01.027c0,.009,0,.006,0,.008s-.006.014-.008.022,0,.007,0,.008-.006.018-.008.027a.014.014,0,0,0,0,.01.113.113,0,0,1-.008.024.1.1,0,0,1,0,.01l-.006.02v.008a.176.176,0,0,1-.008.026.024.024,0,0,1,0,.01.087.087,0,0,1-.008.024s0,.008,0,.012a.047.047,0,0,0-.006.018.029.029,0,0,1-.006.01.032.032,0,0,1-.007.025.025.025,0,0,0,0,.012.076.076,0,0,0-.008.022v.014l-.006.014-.006.018v.019l-.006.014a.137.137,0,0,1,0,.014.113.113,0,0,1-.008.024c0,.008,0,.006,0,.008a.164.164,0,0,1-.011.03.014.014,0,0,1,0,.008.053.053,0,0,1-.006.018h0l-.012.036h0c-.049.15-.1.3-.147.451ZM107.47,33.463h0a.234.234,0,0,0-.016-.031h0c0-.008-.01-.02-.014-.029h0a.19.19,0,0,1-.015-.028v-.006l-.013-.027v-.006a.111.111,0,0,0-.011-.022v-.008a.125.125,0,0,0-.012-.025.019.019,0,0,0,0-.008.1.1,0,0,1-.011-.025l-.006-.01-.008-.016c0-.006-.006-.012-.008-.018l-.008-.014-.006-.014a.047.047,0,0,0-.01-.02.053.053,0,0,0-.008-.014.016.016,0,0,0,0-.01l-.012-.026V33.1a.29.29,0,0,0-.027-.051c-.009-.017,0,0,0-.006a.158.158,0,0,0-.016-.033h0c-.075-.152-.151-.3-.228-.453l2.015-1.021c.354.695.7,1.407,1.021,2.116L108,34.579c-.174-.379-.351-.747-.531-1.116ZM5.221,33.546c.325-.707.671-1.419,1.025-2.114l2.013,1.026c-.059.115-.116.229-.175.345l-.015.033h0a.24.24,0,0,0-.012.026h0a.2.2,0,0,1-.012.027s0,.006,0,.008l-.012.024-.006.01-.006.016c0,.006-.006.012-.01.018L8,32.977A.071.071,0,0,1,7.987,33v.006a.2.2,0,0,1-.014.03v.006q-.345.692-.667,1.393a.007.007,0,0,0,0,.006c0,.008-.01.018-.014.029s0,.006,0,.008a.018.018,0,0,1,0,.01ZM104.8,28.6v-.007a.248.248,0,0,0-.017-.026.02.02,0,0,1,0-.008l-.018-.029h0a.043.043,0,0,1-.01-.016h0a.327.327,0,0,1-.018-.033h0l-.018-.03h0c-.01-.018-.022-.036-.032-.052h0a.356.356,0,0,1-.022-.035c-.008-.013-.022-.034-.033-.053l-.022-.034q-.491-.786-1.009-1.552l1.875-1.259c.437.645.864,1.31,1.273,1.973l-1.924,1.182a.027.027,0,0,1-.025-.021ZM8.552,27.341c.411-.662.84-1.326,1.278-1.971l1.87,1.263c-.21.309-.417.625-.623.94l-.057.087h0a.326.326,0,0,0-.02.03h0c-.013.018-.025.039-.037.057h0c-.006.01-.012.016-.019.026h0l-.018.027h0a.158.158,0,0,0-.017.024h0a.223.223,0,0,0-.018.026h0a.166.166,0,0,0-.016.026v.006a.15.15,0,0,1-.014.021.016.016,0,0,1,0,.008.177.177,0,0,0-.014.022l-.006.008-.014.022-.006.01c0,.006-.008.013-.01.018A.029.029,0,0,1,10.8,28a.072.072,0,0,1-.01.016l-.008.013-.013.02a.079.079,0,0,0-.008.013l-.006.012a.142.142,0,0,0-.014.022l-.006.008-.018.028-.01.016h0a.276.276,0,0,1-.021.032h0c-.067.106-.132.21-.2.315Zm44.569-6.9,4.6-6.686,4.446,6.528-4.6,6.686Zm2.736.006,1.719,2.524,1.855-2.695-1.719-2.524Zm44.7,2.189-.045-.053h0l-.022-.026c-.023-.026-.044-.055-.067-.082h0c-.02-.026-.042-.052-.064-.079h0a.873.873,0,0,1-.067-.081c-.022-.029-.061-.071-.092-.108-.24-.29-.484-.575-.73-.859l1.707-1.478c.512.589,1.017,1.2,1.5,1.8l-1.767,1.407c-.117-.148-.233-.292-.353-.44ZM12.615,21.589c.488-.607,1-1.214,1.507-1.8l1.707,1.482c-.336.384-.665.771-.988,1.166h0a.3.3,0,0,1-.022.026.021.021,0,0,0-.006.008c0,.006-.011.012-.015.018l-.01.012a.045.045,0,0,1-.01.01.057.057,0,0,0-.014.02c0,.008-.006,0-.008.008s-.008.01-.014.018h0a.186.186,0,0,1-.02.024h0l-.02.024h0c-.1.126-.207.253-.309.384Zm82.993-4.266h0a.267.267,0,0,1-.025-.025h0l-.025-.024a.192.192,0,0,1-.022-.02h0a.191.191,0,0,0-.022-.02l-.006-.006-.02-.018-.006-.006a.114.114,0,0,1-.016-.016l-.006-.006a.141.141,0,0,1-.02-.018l-.008-.008-.018-.016a.045.045,0,0,1-.01-.01l-.013-.01-.016-.016-.01-.008a.11.11,0,0,0-.016-.016.021.021,0,0,1-.01-.01.068.068,0,0,1-.014-.012h-.006l-.024-.024h0c-.185-.17-.37-.341-.557-.509l1.515-1.675c.578.524,1.155,1.064,1.713,1.61l-1.582,1.61c-.266-.262-.519-.5-.776-.747Zm-78.258-.95c.559-.544,1.135-1.084,1.715-1.606l1.513,1.677q-.427.383-.844.775c-.026.023-.048.047-.073.069h-.006a.174.174,0,0,1-.024.022v.006a.291.291,0,0,0-.027.024h0l-.014.012-.006.006-.021.02-.008.006-.018.018-.01.008-.012.013-.01.01-.017.016a.045.045,0,0,0-.01.01.1.1,0,0,0-.016.014l-.01.01-.012.01-.016.016-.011.01-.012.01-.017.016-.01.01-.01.01a.08.08,0,0,0-.016.016l-.012.01-.01.01-.016.016-.01.01-.016.016-.01.008-.012.012a.055.055,0,0,1-.01.008l-.018.018-.008.008a.182.182,0,0,0-.02.02.009.009,0,0,0-.006.006.074.074,0,0,1-.014.012h0l-.024.024h0l-.024.024h0c-.061.061-.124.12-.185.181Zm73.156-3.309q-.531-.393-1.074-.774l1.3-1.845c.639.449,1.276.916,1.9,1.388l-1.375,1.791c-.251-.189-.5-.376-.751-.56ZM22.685,11.77c.62-.473,1.259-.938,1.9-1.385l1.3,1.847c-.043.028-.086.057-.126.087h-.006l-.022.016-.013.008-.01.008c-.008,0-.014.01-.022.014l-.008.007-.022.016H25.65l-.022.016h0l-.029.018h0q-.779.551-1.534,1.127Zm61.8-2.581-.053-.03h-.008a.135.135,0,0,1-.024-.014.016.016,0,0,1-.012-.006l-.012-.006-.023-.012-.01-.006L84.317,9.1H84.31c-.01,0-.014-.008-.024-.012h0c-.01,0-.018-.01-.029-.014h0l-.59-.319,1.066-1.99c.687.367,1.377.753,2.05,1.149l-1.15,1.932q-.571-.335-1.151-.656ZM28.54,7.849c.674-.394,1.365-.779,2.055-1.145l1.061,2-.043.022h-.008l-.023.012-.014.008-.012.006-.022.012h-.008l-.026.014h0l-.024.012h0l-.029.014h0l-.028.016h0l-.058.033h0l-.4.219-.03.018c-.02.011-.04.021-.059.033h-.006l-.026.016h0l-.026.014h0l-.026.012-.008.006-.022.012-.01.006-.018.01-.014.008-.016.008-.012.006-.021.013-.014.008h-.008l-.027.016h-.006c-.031.019-.06.034-.09.051-.272.152-.541.307-.811.465ZM77.5,5.929l.812-2.106c.728.28,1.46.578,2.178.889l-.9,2.071C78.9,6.485,78.205,6.2,77.5,5.929ZM34.833,4.672c.718-.309,1.452-.607,2.18-.885l.807,2.107c-.706.268-1.4.552-2.093.849Zm36.6-.68h0l-.057-.016a.249.249,0,0,1-.035-.008l-.028-.008-.034-.008-.031-.008-.034-.008c-.01,0-.02-.007-.031-.008h0l-.136-.035.54-2.193c.757.189,1.521.4,2.27.615l-.636,2.164q-.888-.255-1.788-.487Zm-29.962-1.7c.75-.217,1.515-.422,2.272-.609l.543,2.189c-.265.065-.527.132-.79.2l-.1.027h0a.515.515,0,0,1-.067.016l-.033.01h0l-.032.008h0a.172.172,0,0,0-.031.008h0a.2.2,0,0,0-.031.008h0l-.032.008a.2.2,0,0,0-.033.008h0a.147.147,0,0,0-.03.008h0a.1.1,0,0,0-.032.01l-.031.008h0a.157.157,0,0,1-.03.008h-.006l-.061.016h-.006a.117.117,0,0,1-.029.008H42.9a.125.125,0,0,0-.027.008h0l-.028.008h-.008l-.026.008-.031.008-.034.01h-.012a.093.093,0,0,1-.025.008l-.026.006-.037.01-.024.008-.032.008h-.006c-.151.043-.3.085-.453.13Zm22.907.376L64.65.424c.777.1,1.559.207,2.33.333l-.366,2.225c-.74-.119-1.486-.227-2.236-.318Zm-15.666.3L48.351.739C49.122.615,49.9.506,50.68.412l.27,2.239c-.685.083-1.367.176-2.044.284h0l-.043.008h-.03l-.038.006-.039.006-.035.006Zm9.843-.7h0a.608.608,0,0,1-.065,0h-.3a.252.252,0,0,1-.041,0h-.742a.19.19,0,0,1-.034,0H57.1a.232.232,0,0,0-.039,0h-.542a.238.238,0,0,1-.038,0h-.065a.157.157,0,0,1-.031,0h-.3a.167.167,0,0,1-.032,0h-.032a.147.147,0,0,0-.032,0c-.182,0-.36.01-.539.018L55.368.043C56.113.014,56.867,0,57.615,0c.781,0,1.572.016,2.351.047L59.875,2.3q-.659-.023-1.32-.036Z" transform="translate(66.75 -81.265)" fill="#d8ae60" opacity="0.09"/><path d="M-16297.9-3087.973l-.234-6.279c.365-.139.722-.287,1.066-.439a21.571,21.571,0,0,0,8.661-6.586l-.664,13.41-4.322,18.6Zm-7.866,8.7c-2.961-3.223-5.442-5.491-5.442-5.491l-5.564-20.661c-2.264-8.395-4.007-16.671-7.374-20.862a10.862,10.862,0,0,0-4.859-3.79c-.587-.193-.833-.18-1.087.127a1.671,1.671,0,0,0-.156,1.025s-2.7-3.568-5.175-7.472-5.537-9.715-5.537-9.715a67.558,67.558,0,0,0,11.139,7.037q3.93,1.679,7.98,3.043l-.012-.053s1.045.41,2.645.9c.229.07.468.139.718.213.435.127.9.25,1.387.377a35.837,35.837,0,0,0,3.851.775c.627.09,1.263.156,1.895.2.274.016.566.041.861.066.078.008.16.012.242.021.274.025.558.053.845.086.078.008.155.016.233.029.246.029.492.057.746.09.14.021.275.037.415.057l.595.086c.266.045.537.086.812.135.131.021.263.041.39.066.218.037.438.078.66.119.049.012.1.021.151.033.484.09.973.193,1.456.3l.05.008a35.191,35.191,0,0,1,6.771,2.186c.115.049.226.1.336.156.156.074.312.147.468.225.218.111.427.226.636.341.1.057.2.115.3.176.213.127.418.254.619.385l.226.152c.246.172.483.345.705.525.751.619,6.382,4.6,6.242,10.162l-.283,6.127a10.428,10.428,0,0,1-2.608,6.689c-.1.131-.492,1.161-3.034,3.162a17.019,17.019,0,0,1-4.922,3.018,10.565,10.565,0,0,0-4.048-2.588l-1.943-12.721c1.906,2.35,3.776,4.929,5.5,7.46.058-.053.1-.106.156-.156.008-.049.013-.094.021-.139.041-.3.069-.611.095-.943,0-.041,0-.082.008-.123.013-.193.021-.389.024-.594l-.131-3.6c-.041-.476-.091-.976-.144-1.489-.017-.148-.033-.287-.05-.439-.021-.188-.045-.385-.069-.582-.049-.41-.1-.824-.164-1.263-1.165-8.547-3.317-10.331-5.307-11.266a7.044,7.044,0,0,0-.755-.3c-.09-.033-.185-.053-.274-.078-.173-.053-.349-.107-.529-.148-.11-.029-.229-.045-.34-.07-.169-.033-.337-.066-.509-.09-.123-.021-.255-.037-.386-.049-.168-.025-.336-.045-.513-.062-.135-.012-.274-.021-.414-.029-.172-.016-.349-.029-.525-.037-.147-.008-.295-.012-.442-.016-.181,0-.361-.012-.546-.016-.155,0-.315,0-.476-.008-.188,0-.377,0-.574,0h-.065l5.065,27.977.036-.016.689,3.289-.033,0,5.487,25.279S-16302.806-3076.055-16305.767-3079.275Zm24.905-22.51,4.561-22.921a14.991,14.991,0,0,0-2.8,1.694c-2.018,1.415-3.162,2.3-3.162,2.3a20.647,20.647,0,0,1,.882-3.535c.4-.726,5.463-10.019,6.476-10.462a110.218,110.218,0,0,0,18.155-5.955v.008a67.507,67.507,0,0,0,11.139-7.042s-3.063,5.82-5.536,9.716-4.79,7.263-4.79,7.263,0-.779-.443-1.021a.931.931,0,0,0-.849-.1,9.682,9.682,0,0,0-5.2,3.958c-3.367,4.191-5.109,12.467-7.373,20.862l-5.565,20.661s-2.481,2.268-5.446,5.491-6.164,7.234-6.164,7.234Zm-10.1-30.6c-1.78-1.46-4.786-2.6-7.308-3.486l4.617-18.073,6.6,22.773-.185,2.407C-16288.37-3130.57-16289.186-3130.927-16290.966-3132.387Z" transform="translate(16417.949 3094.477)" fill="#d8ae60"/><path d="M-7910.208,1501.227a2.454,2.454,0,0,1-.979-.2,2.61,2.61,0,0,1-.83-.582,2.883,2.883,0,0,1-.567-.917,3.306,3.306,0,0,1-.21-1.208,3.5,3.5,0,0,1,.2-1.213,2.828,2.828,0,0,1,.578-.947,2.417,2.417,0,0,1,.859-.615,2.707,2.707,0,0,1,1.08-.214,2.583,2.583,0,0,1,.742.1,2.7,2.7,0,0,1,.475.2l.113-.188h.59l.042,2.26h-.651l-.032-.149a3.874,3.874,0,0,0-.173-.568,2.213,2.213,0,0,0-.252-.5,1.192,1.192,0,0,0-.364-.341.928.928,0,0,0-.476-.121,1.273,1.273,0,0,0-.572.14,1.315,1.315,0,0,0-.468.416,2.2,2.2,0,0,0-.311.7,4.048,4.048,0,0,0-.116.991,3.052,3.052,0,0,0,.119.87,2.192,2.192,0,0,0,.341.687,1.6,1.6,0,0,0,.5.443,1.387,1.387,0,0,0,.645.151,1.373,1.373,0,0,0,.478-.082,1.328,1.328,0,0,0,.383-.216,2.092,2.092,0,0,0,.29-.332,1.762,1.762,0,0,0,.207-.413l.076-.2.625.3-.065.169a2.473,2.473,0,0,1-.923,1.21A2.488,2.488,0,0,1-7910.208,1501.227Zm-47.93,0a2.492,2.492,0,0,1-.983-.2,2.652,2.652,0,0,1-.826-.582,2.9,2.9,0,0,1-.567-.917,3.328,3.328,0,0,1-.21-1.208,3.509,3.509,0,0,1,.2-1.213,2.879,2.879,0,0,1,.573-.947,2.471,2.471,0,0,1,.864-.615,2.738,2.738,0,0,1,1.08-.214,2.552,2.552,0,0,1,.739.1,2.736,2.736,0,0,1,.477.2l.113-.188h.591l.041,2.26h-.654l-.029-.149a4.163,4.163,0,0,0-.172-.568,2.213,2.213,0,0,0-.252-.5,1.255,1.255,0,0,0-.366-.341.93.93,0,0,0-.478-.121,1.264,1.264,0,0,0-.569.14,1.31,1.31,0,0,0-.468.416,2.133,2.133,0,0,0-.31.7,3.919,3.919,0,0,0-.116.991,3.076,3.076,0,0,0,.118.87,2.133,2.133,0,0,0,.338.687,1.673,1.673,0,0,0,.5.443,1.4,1.4,0,0,0,.646.149,1.412,1.412,0,0,0,.479-.08,1.178,1.178,0,0,0,.375-.216,1.828,1.828,0,0,0,.3-.332,2.046,2.046,0,0,0,.205-.413l.074-.2.627.3-.067.169a2.543,2.543,0,0,1-.919,1.21A2.5,2.5,0,0,1-7958.138,1501.227Zm-13.242,0a1.605,1.605,0,0,1-1.111-.388,1.359,1.359,0,0,1-.439-1.058.988.988,0,0,1,.161-.551.622.622,0,0,1,.54-.282.691.691,0,0,1,.487.177.618.618,0,0,1,.2.465.757.757,0,0,1-.063.313,1.232,1.232,0,0,1-.122.241c-.026.039-.053.08-.08.126l-.044.07a.243.243,0,0,0-.024.041l0,.007-.006.012a.108.108,0,0,0-.01.017.754.754,0,0,0,.118.083.7.7,0,0,0,.323.067.638.638,0,0,0,.36-.092.5.5,0,0,0,.191-.246,1.587,1.587,0,0,0,.105-.426,5.191,5.191,0,0,0,.032-.609V1496.4a.285.285,0,0,0-.024-.133c0-.005-.016-.031-.089-.069a.869.869,0,0,0-.235-.072,2.043,2.043,0,0,0-.263-.039l-.177-.008v-.634h2.7v.643h-.183a1.7,1.7,0,0,0-.231.028,1.9,1.9,0,0,0-.23.053c-.05.02-.057.038-.059.044a.334.334,0,0,0-.03.152v3.124a1.723,1.723,0,0,1-.107.587,1.663,1.663,0,0,1-.328.551,1.754,1.754,0,0,1-.58.44A1.835,1.835,0,0,1-7971.38,1501.227Zm-5.755,0a2.629,2.629,0,0,1-1.092-.222,2.589,2.589,0,0,1-.867-.618,2.806,2.806,0,0,1-.559-.939,3.253,3.253,0,0,1-.206-1.169,3.281,3.281,0,0,1,.214-1.216,2.818,2.818,0,0,1,.59-.933,2.676,2.676,0,0,1,.878-.6,2.74,2.74,0,0,1,1.051-.207,2.718,2.718,0,0,1,1.057.213,2.492,2.492,0,0,1,.863.6,2.745,2.745,0,0,1,.588.942,3.417,3.417,0,0,1,.208,1.208,3.306,3.306,0,0,1-.213,1.21,2.687,2.687,0,0,1-.6.939,2.607,2.607,0,0,1-.863.59A2.656,2.656,0,0,1-7977.135,1501.227Zm0-5.193a1.171,1.171,0,0,0-.653.172,1.338,1.338,0,0,0-.446.482,2.4,2.4,0,0,0-.258.706,4.362,4.362,0,0,0-.086.886,4.251,4.251,0,0,0,.092.925,2.276,2.276,0,0,0,.276.706,1.388,1.388,0,0,0,.444.449,1.224,1.224,0,0,0,.62.157,1.254,1.254,0,0,0,.632-.163,1.215,1.215,0,0,0,.453-.454,2.177,2.177,0,0,0,.283-.709,4.339,4.339,0,0,0,.088-.911,4.169,4.169,0,0,0-.1-.953,2.271,2.271,0,0,0-.287-.712,1.265,1.265,0,0,0-.445-.432A1.2,1.2,0,0,0-7977.135,1496.034Zm46.767,5.174a2.51,2.51,0,0,1-.762-.116,2.688,2.688,0,0,1-.481-.194l-.122.208h-.59l-.063-2.185h.641l.037.139a4.054,4.054,0,0,0,.209.573,1.919,1.919,0,0,0,.3.46,1.373,1.373,0,0,0,.391.3,1.227,1.227,0,0,0,.529.109,1.147,1.147,0,0,0,.373-.057.6.6,0,0,0,.237-.144.585.585,0,0,0,.134-.216,1.028,1.028,0,0,0,.047-.321.847.847,0,0,0-.148-.482.911.911,0,0,0-.443-.346c-.091-.036-.188-.073-.294-.113l-.01,0-.039-.015-.206-.078c-.22-.084-.4-.154-.551-.224a1.911,1.911,0,0,1-.765-.584,1.561,1.561,0,0,1-.288-.964,1.529,1.529,0,0,1,.141-.642,1.689,1.689,0,0,1,.394-.524,1.726,1.726,0,0,1,.57-.341,2.047,2.047,0,0,1,.7-.121,1.956,1.956,0,0,1,.7.124,3.505,3.505,0,0,1,.39.18l.111-.186h.593l.035,2.13h-.643l-.033-.138a5.773,5.773,0,0,0-.183-.559,1.949,1.949,0,0,0-.237-.454,1.1,1.1,0,0,0-.33-.288.93.93,0,0,0-.437-.106.753.753,0,0,0-.51.178.544.544,0,0,0-.187.415.767.767,0,0,0,.126.457.969.969,0,0,0,.391.307,4.72,4.72,0,0,0,.518.216c.194.074.363.142.519.208a3.921,3.921,0,0,1,.448.233,1.59,1.59,0,0,1,.4.319h0l.007,0a1.423,1.423,0,0,1,.281.468,1.647,1.647,0,0,1,.094.579,1.666,1.666,0,0,1-.581,1.3A2.084,2.084,0,0,1-7930.368,1501.208Zm-5.792,0a2.508,2.508,0,0,1-.761-.116,3.083,3.083,0,0,1-.484-.194l-.12.208h-.589l-.063-2.185h.639l.039.136a3.763,3.763,0,0,0,.208.576,1.89,1.89,0,0,0,.3.46,1.358,1.358,0,0,0,.393.3,1.225,1.225,0,0,0,.528.109,1.141,1.141,0,0,0,.372-.057.619.619,0,0,0,.238-.141.576.576,0,0,0,.133-.219,1,1,0,0,0,.045-.318.857.857,0,0,0-.146-.485.9.9,0,0,0-.446-.346c-.062-.026-.131-.052-.2-.08l-.023-.008-.01,0c-.086-.033-.178-.068-.274-.107-.251-.092-.433-.165-.589-.235a1.918,1.918,0,0,1-.763-.584,1.549,1.549,0,0,1-.289-.964,1.53,1.53,0,0,1,.142-.642,1.648,1.648,0,0,1,.4-.524,1.755,1.755,0,0,1,.567-.341,2.05,2.05,0,0,1,.7-.121,1.956,1.956,0,0,1,.7.124,3.639,3.639,0,0,1,.391.18l.111-.186h.59l.038,2.13h-.639l-.037-.138c-.051-.182-.111-.37-.18-.559a1.862,1.862,0,0,0-.244-.454.99.99,0,0,0-.325-.288.926.926,0,0,0-.437-.106.77.77,0,0,0-.515.178.533.533,0,0,0-.181.415.786.786,0,0,0,.122.457,1.022,1.022,0,0,0,.392.307,5.314,5.314,0,0,0,.515.216c.184.068.359.138.521.208a4.561,4.561,0,0,1,.452.233,1.628,1.628,0,0,1,.4.319,1.463,1.463,0,0,1,.291.471,1.776,1.776,0,0,1,.089.579,1.669,1.669,0,0,1-.582,1.3A2.06,2.06,0,0,1-7936.16,1501.208Zm21.017-.053h-.606l-2.91-3.927v2.141a3.2,3.2,0,0,0,.052.659.469.469,0,0,0,.12.252.684.684,0,0,0,.272.111,1.645,1.645,0,0,0,.313.064l.181.006v.642h-2.543v-.634l.181-.014a1.377,1.377,0,0,0,.3-.061,1.365,1.365,0,0,0,.222-.082.351.351,0,0,0,.113-.212,3.35,3.35,0,0,0,.044-.69v-2.6a.879.879,0,0,0-.05-.283.423.423,0,0,0-.1-.18,1.061,1.061,0,0,0-.3-.174,1.049,1.049,0,0,0-.313-.086l-.182-.006v-.637h1.795l2.679,3.631v-1.927a3.033,3.033,0,0,0-.057-.665c-.04-.17-.088-.212-.1-.219a1.153,1.153,0,0,0-.278-.108,1.619,1.619,0,0,0-.32-.069l-.177-.006v-.637h2.524v.643h-.186a1.42,1.42,0,0,0-.277.058,1.256,1.256,0,0,0-.245.084l-.011,0a.472.472,0,0,0-.094.23,3.992,3.992,0,0,0-.044.637v4.051Zm-68.9-.051h-2.608v-.634l.175-.014c.08,0,.163-.011.254-.022a.631.631,0,0,0,.172-.03c.057-.026.071-.05.076-.061a.26.26,0,0,0,.03-.147v-3.811a.483.483,0,0,0-.028-.166s-.01-.018-.061-.038a1.305,1.305,0,0,0-.209-.053,1.983,1.983,0,0,0-.231-.036l-.178-.008v-.634h2.626a2.927,2.927,0,0,1,.669.075,1.845,1.845,0,0,1,.592.246,1.273,1.273,0,0,1,.431.454,1.337,1.337,0,0,1,.161.673,1.681,1.681,0,0,1-.1.609,1.29,1.29,0,0,1-.322.471,1.819,1.819,0,0,1-.446.31l-.031.015c-.094.044-.173.079-.261.113.181.236.333.44.468.62l.027.037c.136.193.3.419.508.693l.021.029.1.136a1.755,1.755,0,0,0,.26.294,1.267,1.267,0,0,0,.232.152.663.663,0,0,0,.183.058,1.49,1.49,0,0,0,.218.022l.188.006v.641h-1.714l-.059-.089c-.332-.521-.6-.925-.848-1.271s-.493-.684-.766-1.033h-.254v1.485a.422.422,0,0,0,.028.155c0,.012.024.032.066.047a.935.935,0,0,0,.188.039,2.062,2.062,0,0,0,.263.019l.186.006v.642Zm-.73-4.97v1.875h.3a.993.993,0,0,0,.721-.271,1.007,1.007,0,0,0,.281-.756.842.842,0,0,0-.218-.623.853.853,0,0,0-.643-.224Zm83.165,4.969h-4.741v-.637l.18-.011c.068,0,.164-.011.282-.025a.823.823,0,0,0,.184-.036.192.192,0,0,0,.08-.061.3.3,0,0,0,.024-.139V1496.4a.385.385,0,0,0-.024-.141.2.2,0,0,0-.078-.058,1.031,1.031,0,0,0-.23-.069,1.336,1.336,0,0,0-.24-.044l-.177-.008v-.634h4.459v1.654h-.612l-.039-.144a1.647,1.647,0,0,0-.288-.532c-.172-.219-.289-.266-.344-.274s-.159-.016-.26-.019-.227-.008-.356-.008h-.638v1.714h.4a1.122,1.122,0,0,0,.349-.039.437.437,0,0,0,.152-.122.8.8,0,0,0,.108-.23,1.592,1.592,0,0,0,.066-.3l.02-.166h.64v2.448h-.645l-.018-.174a1.331,1.331,0,0,0-.069-.335.778.778,0,0,0-.1-.23.35.35,0,0,0-.169-.127,1.3,1.3,0,0,0-.332-.033h-.4v1.388a1.671,1.671,0,0,0,.027.33.147.147,0,0,0,.059.1.387.387,0,0,0,.171.058,3.816,3.816,0,0,0,.457.019h.324q.173,0,.316-.014a1.642,1.642,0,0,0,.263-.053.367.367,0,0,0,.121-.047,2.394,2.394,0,0,0,.33-.5,2.99,2.99,0,0,0,.225-.5l.045-.133h.608l-.127,1.935Zm-20.259,0h-4.745v-.637l.174-.011c.07,0,.164-.01.286-.025a1.294,1.294,0,0,0,.187-.036.207.207,0,0,0,.079-.061l0-.014a.481.481,0,0,0,.017-.125V1496.4a.421.421,0,0,0-.021-.141.25.25,0,0,0-.077-.058,1.21,1.21,0,0,0-.23-.069,1.363,1.363,0,0,0-.244-.044l-.174-.008v-.634h4.456v1.654h-.611l-.042-.144a1.554,1.554,0,0,0-.285-.532c-.173-.219-.289-.266-.343-.274-.079-.009-.16-.016-.261-.019s-.223-.008-.355-.008h-.64v1.714h.4a1.066,1.066,0,0,0,.351-.039.4.4,0,0,0,.15-.122.732.732,0,0,0,.109-.23,1.474,1.474,0,0,0,.069-.3l.02-.166h.636v2.448h-.643l-.013-.174a1.342,1.342,0,0,0-.076-.335.761.761,0,0,0-.1-.227.349.349,0,0,0-.168-.13,1.314,1.314,0,0,0-.336-.033h-.4v1.388a1.382,1.382,0,0,0,.031.33.135.135,0,0,0,.058.1.37.37,0,0,0,.172.058,3.759,3.759,0,0,0,.451.019h.324c.121,0,.23,0,.318-.014a1.633,1.633,0,0,0,.266-.053.325.325,0,0,0,.119-.047,2.3,2.3,0,0,0,.331-.5,2.784,2.784,0,0,0,.223-.5l.045-.133h.609l-.121,1.935Zm-18.08,0h-4.747v-.637l.183-.011c.069,0,.168-.012.279-.025a.971.971,0,0,0,.186-.035.186.186,0,0,0,.08-.062.3.3,0,0,0,.025-.139V1496.4a.337.337,0,0,0-.027-.141c-.006-.016-.032-.036-.074-.058a1.2,1.2,0,0,0-.23-.069,1.477,1.477,0,0,0-.244-.044l-.177-.008v-.634h4.462v1.654h-.615l-.038-.144a1.677,1.677,0,0,0-.285-.532c-.176-.219-.293-.266-.348-.274-.077-.008-.161-.016-.26-.019s-.225-.008-.354-.008h-.637v1.714h.4a1.042,1.042,0,0,0,.347-.039.353.353,0,0,0,.149-.122.659.659,0,0,0,.111-.23,1.26,1.26,0,0,0,.065-.3l.02-.169h.641v2.448h-.646l-.015-.174a1.247,1.247,0,0,0-.069-.335.709.709,0,0,0-.1-.227.339.339,0,0,0-.166-.13,1.305,1.305,0,0,0-.333-.033h-.4v1.388a1.685,1.685,0,0,0,.024.33.163.163,0,0,0,.062.1.423.423,0,0,0,.172.055,3.838,3.838,0,0,0,.454.019h.323c.117,0,.225,0,.319-.014a1.728,1.728,0,0,0,.266-.053.3.3,0,0,0,.12-.05,2.44,2.44,0,0,0,.327-.5,4.085,4.085,0,0,0,.229-.5l.041-.136h.609l-.124,1.935Zm-10.677,0h-2.872v-.634l.179-.014c.068,0,.167-.01.312-.025a.876.876,0,0,0,.241-.042.2.2,0,0,0,.094-.069.284.284,0,0,0,.026-.139v-4.066h-.024c-.062,0-.133,0-.224.008l-.059,0a2.692,2.692,0,0,0-.31.022.272.272,0,0,0-.142.091,1.89,1.89,0,0,0-.222.271,2.262,2.262,0,0,0-.18.327,2.7,2.7,0,0,0-.111.28l-.035.141h-.6v-1.811h4.974v1.811h-.593l-.036-.144a1.65,1.65,0,0,0-.107-.282,2.947,2.947,0,0,0-.181-.324,1.7,1.7,0,0,0-.219-.269.31.31,0,0,0-.154-.094c-.07-.009-.178-.015-.271-.019l-.112,0h-.026c-.06,0-.117-.006-.172-.006h-.028v4.033a.313.313,0,0,0,.034.141c0,.008.019.036.085.064a2.151,2.151,0,0,0,.248.064,1.629,1.629,0,0,0,.3.039l.186.006v.641Zm-11.818,0h-4.743v-.637l.177-.011c.069,0,.162-.01.285-.025a.828.828,0,0,0,.185-.036.2.2,0,0,0,.081-.061.315.315,0,0,0,.024-.139V1496.4a.315.315,0,0,0-.027-.141c-.006-.014-.031-.034-.078-.058a1.2,1.2,0,0,0-.227-.069,1.465,1.465,0,0,0-.243-.044l-.177-.008v-.634h4.46v1.654h-.616l-.033-.144a1.638,1.638,0,0,0-.291-.532c-.172-.219-.289-.266-.344-.274-.077-.008-.162-.016-.26-.019s-.222-.008-.355-.008h-.64v1.714h.407a.969.969,0,0,0,.344-.039.36.36,0,0,0,.152-.122.643.643,0,0,0,.107-.23,1.433,1.433,0,0,0,.072-.3l.017-.169h.64v2.448h-.645l-.015-.174a1.3,1.3,0,0,0-.072-.335.624.624,0,0,0-.1-.227.358.358,0,0,0-.166-.13,1.321,1.321,0,0,0-.333-.033h-.407v1.388a1.588,1.588,0,0,0,.028.33.153.153,0,0,0,.061.1.422.422,0,0,0,.172.055,3.827,3.827,0,0,0,.455.019h.316c.124,0,.229,0,.324-.014a1.575,1.575,0,0,0,.262-.053c.1-.025.121-.047.121-.05a2.093,2.093,0,0,0,.33-.5,3.752,3.752,0,0,0,.228-.5l.041-.136h.608l-.124,1.935Zm-27.729,0h-2.645v-.634l.177-.014c.083,0,.164-.011.252-.022a1.026,1.026,0,0,0,.176-.03c.052-.025.068-.047.073-.061a.3.3,0,0,0,.028-.147v-3.808a.411.411,0,0,0-.028-.163c0-.024-.044-.041-.061-.044a1.458,1.458,0,0,0-.242-.061c-.076-.014-.144-.02-.2-.025l-.025,0-.181-.008v-.634h2.6a2.1,2.1,0,0,1,1.313.4,1.316,1.316,0,0,1,.532,1.1,1.8,1.8,0,0,1-.183.817,1.613,1.613,0,0,1-.508.59,2.092,2.092,0,0,1-.678.338,2.852,2.852,0,0,1-.772.1h-.4v1.407a.33.33,0,0,0,.027.15.127.127,0,0,0,.069.052.964.964,0,0,0,.194.039,2.177,2.177,0,0,0,.285.019l.191,0v.644Zm-.768-4.969v1.95h.191a1.26,1.26,0,0,0,.567-.108.694.694,0,0,0,.3-.244.812.812,0,0,0,.139-.3,1.382,1.382,0,0,0,.036-.307,1.738,1.738,0,0,0-.044-.388.769.769,0,0,0-.139-.31.682.682,0,0,0-.271-.213,1.085,1.085,0,0,0-.446-.077Zm-7.871,4.969h-2.847v-.634l.18-.014c.1,0,.2-.011.308-.022a1.192,1.192,0,0,0,.231-.041.185.185,0,0,0,.089-.067.338.338,0,0,0,.028-.15V1498.9a.033.033,0,0,1,0-.009l0-.008c-.008-.02-.021-.06-.049-.125-.042-.089-.093-.19-.17-.338-.133-.261-.289-.558-.492-.933-.175-.323-.333-.611-.472-.856a1.744,1.744,0,0,0-.191-.285.943.943,0,0,0-.185-.161.476.476,0,0,0-.147-.055,1.02,1.02,0,0,0-.2-.036l-.178-.008v-.634h2.63v.643h-.185a2.007,2.007,0,0,0-.477.044c.006.015.014.029.021.044l.008.015c0,.008.007.016.012.024.029.063.068.138.11.211l.125.244c.145.273.254.475.357.656l.063.114c.073.134.157.286.255.456.28-.458.527-.868.712-1.185a2.364,2.364,0,0,0,.281-.548l-.011,0a.138.138,0,0,1-.04-.01l-.043-.013a1.063,1.063,0,0,0-.193-.033l-.41-.036v-.629h2.211v.637l-.181.006a.709.709,0,0,0-.146.044.452.452,0,0,0-.147.064,1.333,1.333,0,0,0-.183.125,2.366,2.366,0,0,0-.171.224c-.187.261-.359.527-.524.811s-.364.624-.614,1.063a2.194,2.194,0,0,0-.166.344,1.4,1.4,0,0,0-.036.368v1.005a.277.277,0,0,0,.03.141.194.194,0,0,0,.094.072,1.718,1.718,0,0,0,.241.064,1.489,1.489,0,0,0,.288.039l.186.006v.641Zm-7.39,0h-2.689v-.634l.175-.014a2.359,2.359,0,0,0,.25-.025.672.672,0,0,0,.191-.044.205.205,0,0,0,.08-.058.339.339,0,0,0,.022-.133V1496.4a.406.406,0,0,0-.026-.147.163.163,0,0,0-.076-.058.854.854,0,0,0-.209-.072,1.112,1.112,0,0,0-.205-.036l-.174-.008v-.634h2.626a2.539,2.539,0,0,1,.581.064,1.812,1.812,0,0,1,.549.216,1.3,1.3,0,0,1,.423.415,1.192,1.192,0,0,1,.17.645,1.326,1.326,0,0,1-.119.576,1.237,1.237,0,0,1-.329.438,2.194,2.194,0,0,1-.372.249,1.861,1.861,0,0,1,.493.246,1.441,1.441,0,0,1,.437.468,1.385,1.385,0,0,1,.181.712,1.418,1.418,0,0,1-.187.737,1.591,1.591,0,0,1-.472.507,2.1,2.1,0,0,1-.62.285A2.537,2.537,0,0,1-8006.2,1501.1Zm-.8-2.631v1.676a.2.2,0,0,0,.1.188.789.789,0,0,0,.431.094.9.9,0,0,0,.706-.263,1.2,1.2,0,0,0,.244-.823.831.831,0,0,0-.258-.634,1.048,1.048,0,0,0-.765-.249c-.158,0-.293.006-.394.011Zm.409-2.357c-.064,0-.139,0-.232.008l-.06,0H-8007v1.653h.28a1.3,1.3,0,0,0,.457-.069.668.668,0,0,0,.271-.174.856.856,0,0,0,.151-.282,1.638,1.638,0,0,0,.044-.4.759.759,0,0,0-.183-.551A.837.837,0,0,0-8006.59,1496.115Zm127.02,2.54H-7896.3v-.839h16.5c4.29,0,14.229-.3,14.327-.3A73.288,73.288,0,0,1-7879.57,1498.654Zm-133.176,0h-16.728a73.273,73.273,0,0,1-14.095-1.141c.053,0,9.967.3,14.326.3h16.5v.838Zm108.227-10.691a10.758,10.758,0,0,1-8.7-3.875,11.493,11.493,0,0,1-2.621-7.544,11.675,11.675,0,0,1,1.479-5.855,10.712,10.712,0,0,1,4.194-4.107,12.1,12.1,0,0,1,5.94-1.5,10.558,10.558,0,0,1,5.489,1.462,11.088,11.088,0,0,1,4.071,4.08,11.611,11.611,0,0,1,1.424,5.8,11.407,11.407,0,0,1-3.18,8.32A10.94,10.94,0,0,1-7904.52,1487.964Zm.285-20.644a7.284,7.284,0,0,0-4,1.063,7.5,7.5,0,0,0-2.682,3.141,11.851,11.851,0,0,0-1.016,5.176,11.248,11.248,0,0,0,1,4.985,7.542,7.542,0,0,0,2.661,3.094,6.863,6.863,0,0,0,3.75,1.069,6.549,6.549,0,0,0,3.656-1.044,7.713,7.713,0,0,0,2.639-3.315,11.993,11.993,0,0,0,1.062-5.082,12.58,12.58,0,0,0-1.062-5.2,6.55,6.55,0,0,0-2.359-2.938A6.622,6.622,0,0,0-7904.234,1467.319Zm20.257,20.277h-7.873v-.26a3.369,3.369,0,0,0,2.6-2.637,6.5,6.5,0,0,0,.121-1.426V1469.6a10.869,10.869,0,0,0-.05-1.5.259.259,0,0,0-.03-.068l0-.007a.266.266,0,0,1-.016-.033,2.44,2.44,0,0,0-2.4-2.011.9.9,0,0,0-.144.015l-.074.01v-.562h6.7a.645.645,0,0,1,.548.31l9.176,15.13c0-.091-.028-6.76-.043-10.343-.006-1.335-.01-2.218-.01-2.24a2.451,2.451,0,0,0-2.448-2.448,1.065,1.065,0,0,0-.134.011h-.008l-.061.007v-.429h7.776v.5l-.037-.005a.325.325,0,0,0-.054-.006,2.526,2.526,0,0,0-2.581,2.393c0,.068.041,18.865.041,18.974v.287h-1.927a.691.691,0,0,1-.59-.332l-11.181-18.371v14.38a6.457,6.457,0,0,0,.126,1.612,3.394,3.394,0,0,0,2.579,2.459v.252Zm-44.872,0h-8.827v-.512l.041,0,.045,0a2.589,2.589,0,0,0,2.573-2.21.313.313,0,0,1,.011-.03.311.311,0,0,0,.019-.067,14.1,14.1,0,0,0,.048-1.51v-14.116a6.029,6.029,0,0,0-.035-.69v-.014a2.722,2.722,0,0,0-2.7-2.714v-.291h11.416a13.682,13.682,0,0,1,4.9.681,5.731,5.731,0,0,1,2.622,2,5.165,5.165,0,0,1,.928,3.046,5.641,5.641,0,0,1-.9,3.149,6.062,6.062,0,0,1-2.572,2.16,10.062,10.062,0,0,1-3.789.792l5.34,6.508c.48.594.77.932.88,1.033a.4.4,0,0,1,.029.029l.024.025a9.949,9.949,0,0,0,2.907,2.27v.45h-4.562a1.3,1.3,0,0,1-1.035-.507l-7.678-9.793h-2.346v6.362a6.24,6.24,0,0,0,.065,1.3.892.892,0,0,0,.037.1,2.549,2.549,0,0,0,2.489,2.027l.034,0,.033,0v.512Zm-2.659-19.887v7.544h4.159a12.288,12.288,0,0,0,3.1-.266,3.548,3.548,0,0,0,1.9-1.263,3.77,3.77,0,0,0,.692-2.343,3.864,3.864,0,0,0-.5-2.041,3.1,3.1,0,0,0-1.359-1.219,6.6,6.6,0,0,0-2.67-.413Zm-23.284,19.887h-8.89v-.543l.058.007a.687.687,0,0,0,.1.009,2.426,2.426,0,0,0,2.337-1.75.216.216,0,0,1,.021-.028.154.154,0,0,0,.027-.041,3.043,3.043,0,0,0,.149-1.191V1469.2c0-.216-.006-.406-.02-.6,0-.028,0-.054.008-.081l0-.019v-.01a1.144,1.144,0,0,0,.01-.132,2.453,2.453,0,0,0-2.448-2.451,1.137,1.137,0,0,0-.163.014l-.083.01v-.487h8.89v.487l-.07-.009a1.2,1.2,0,0,0-.171-.016,2.451,2.451,0,0,0-2.445,2.451c0,.01,0,.02,0,.029a.242.242,0,0,1,0,.024c-.024.263-.036.561-.036.911v5.727h10.607v-5.575a7.015,7.015,0,0,0-.069-1.376,2.446,2.446,0,0,0-2.418-2.144,1.147,1.147,0,0,0-.154.014l-.064.008v-.532h8.832v.523h0a.353.353,0,0,1-.048,0h-.007a.311.311,0,0,0-.052-.005,2.438,2.438,0,0,0-2.377,1.88.078.078,0,0,1-.01.018.063.063,0,0,0-.012.018,3.724,3.724,0,0,0-.125,1.324v14.69a4.246,4.246,0,0,0,.131,1.437.677.677,0,0,0,.085.119,2.439,2.439,0,0,0,2.308,1.656.424.424,0,0,0,.062-.006l.046-.005v.5h-8.832v-.518l.056.005.024,0a1.223,1.223,0,0,0,.139.011,2.438,2.438,0,0,0,2.3-1.648.413.413,0,0,0,.107-.183,6.422,6.422,0,0,0,.078-1.543V1477.3h-10.607v6.594a4.128,4.128,0,0,0,.137,1.44.392.392,0,0,0,.085.1l.02.02a2.465,2.465,0,0,0,2.282,1.573.958.958,0,0,0,.122-.011l.074-.009v.587Zm-43.989,0h-8.833v-.509h.023l.03,0a2.6,2.6,0,0,0,2.518-1.961,1.266,1.266,0,0,0,.124-.346c.009-.04.028-.268.042-1.51v-14.116a4.028,4.028,0,0,0-.116-1.116,2.7,2.7,0,0,0-2.621-2.3v-.3h11.42a13.686,13.686,0,0,1,4.9.681,5.723,5.723,0,0,1,2.626,2,5.212,5.212,0,0,1,.925,3.046,5.653,5.653,0,0,1-.9,3.149,6.047,6.047,0,0,1-2.574,2.16,10.026,10.026,0,0,1-3.787.792l5.34,6.508a13.3,13.3,0,0,0,.878,1.033c.009.007.019.013.026.019a.194.194,0,0,1,.029.022,5.165,5.165,0,0,0,2.9,2.124v.608h-5.34l-.087-.114-7.847-10.187h-2.345v6.362a6.393,6.393,0,0,0,.064,1.3c.006.021.015.041.021.061a.229.229,0,0,1,.016.039,2.547,2.547,0,0,0,2.49,2.027l.032,0a.285.285,0,0,1,.037,0v.512Zm-2.661-19.887v7.544h4.163a12.225,12.225,0,0,0,3.093-.266,3.559,3.559,0,0,0,1.9-1.263,3.8,3.8,0,0,0,.692-2.343,3.867,3.867,0,0,0-.5-2.041,3.09,3.09,0,0,0-1.358-1.219,6.619,6.619,0,0,0-2.672-.413Zm-22.605,19.887h-7.021v-.424a4.835,4.835,0,0,0,2.282-2.507c.148-.309.313-.7.487-1.169l6.732-17.861.069-.188h2.927l.072.188,6.714,18.038a8.007,8.007,0,0,0,.457,1.047,4.862,4.862,0,0,0,2.251,2.446v.428h-8.251v-.166a2.178,2.178,0,0,0,2.086-2.1.516.516,0,0,0,.063-.246,6.672,6.672,0,0,0-.417-1.5l-1.36-3.983h-7.412l-1.614,4.481a3.255,3.255,0,0,0-.246.908.678.678,0,0,0,.036.216.091.091,0,0,1,0,.017c0,.006,0,.011,0,.017a2.184,2.184,0,0,0,2.146,2.2v.161Zm3.37-18.231h0l-2.935,8.145h5.846l-2.911-8.145Zm-26.7,18.23h-2.5c-.032-.105-5.141-16.22-6.53-20.439-.673-.227-1.206-.407-1.307-.435a.288.288,0,0,0-.078-.011.268.268,0,0,0-.209.1.27.27,0,0,0-.054.226l.088.418s-.06-.082-.154-.214c-.334-.47-1.118-1.571-1.775-2.539-.853-1.26-1.918-3.133-1.929-3.152a22.669,22.669,0,0,0,3.745,2.21,27.69,27.69,0,0,0,5.295,1.6l.017,0c.4.089.662.148.746.181a23.094,23.094,0,0,1,2.228,3.364l.013.02a6.885,6.885,0,0,1,.326,1.155c-.009,0-.4-.284-1.069-.723a5.22,5.22,0,0,0-.935-.532l-.829-.28c.061.161.112.312.154.446l4.164,13.516,2.532-7.206a15.12,15.12,0,0,0,.838-5.863l3.061-2.033-.044,2.033,0,.108a15.04,15.04,0,0,0,1.117,5.514l3.063,7.514,4.2-13.579a4.19,4.19,0,0,0,.214-1.074.571.571,0,0,0-.028-.208,2.46,2.46,0,0,0-1.514-2.265h6.4v.282a4.807,4.807,0,0,0-2.08,2.315,6.582,6.582,0,0,0-.424,1.122l-6.021,18.428h-1.687l-3.562-8.755-1.086,3.949-1.08-3.949-3.312,8.755Zm195.364,0h-16.2v-.338c.024,0,.048,0,.073.008a.662.662,0,0,0,.093.008c1.278,0,2.569-1.047,2.569-3.384v-14.859c0-2.14-1.272-3.26-2.528-3.26a.847.847,0,0,0-.122.012l-.085.011v-.346h10.26l.377-.084a28.034,28.034,0,0,0,5.329-1.6,22.481,22.481,0,0,0,3.741-2.21.148.148,0,0,1-.014.041,21.113,21.113,0,0,1-1.712,3.556,12.652,12.652,0,0,1-2.132,2.307l.092-.418a.278.278,0,0,0-.059-.228.267.267,0,0,0-.206-.1.281.281,0,0,0-.077.011c-.147.044-1.311.43-6,2.021l-.246.084a5.03,5.03,0,0,0-.942.532c-.584.382-.96.649-1.06.721l-.006,0a.215.215,0,0,1,.008-.052,5.105,5.105,0,0,1,.321-1.105c.046-.086.336-.582.712-1.191h-.024l-.04,0-.068,0h-2.08v7.326h2.317a6.233,6.233,0,0,0,.9-.064,3.245,3.245,0,0,0,.335.017,3.162,3.162,0,0,0,2.833-1.745v5.838a3.178,3.178,0,0,0-2.918-1.917h-.009a9.714,9.714,0,0,0-1.139-.056h-2.317v6.725a4.347,4.347,0,0,0,.08,1.221.357.357,0,0,0,.186.2,3.983,3.983,0,0,0,1.149.078h3.237a10.87,10.87,0,0,0,4.124-.626l.148-.063a9.014,9.014,0,0,0,2.7-1.524l-1.591,4.442Zm-118.316,0h-8.894v-.493l.024,0a.617.617,0,0,0,.1.01,2.446,2.446,0,0,0,2.4-1.983,3.96,3.96,0,0,0,.174-1.41v-15.283a3.05,3.05,0,0,0-.046-.745.185.185,0,0,0-.117-.094,1.891,1.891,0,0,0-.682-.064,8.988,8.988,0,0,0-5.831,2.026,7.737,7.737,0,0,0-1.8,2.057l-.266-.094.094-.271,2.227-6.342.022-.058a2.407,2.407,0,0,0,1.584.593.52.52,0,0,0,.074-.007l.057-.007v.014h12.764l0-.017c.03,0,.061,0,.09.008a1.016,1.016,0,0,0,.112.009,2.4,2.4,0,0,0,1.549-.565l.011.031,2.273,6.339.1.271-.274.1c-.036-.041-3.547-4.082-7.392-4.082a4.261,4.261,0,0,0-.965.05.125.125,0,0,0-.078.078,4.585,4.585,0,0,0-.052.978v14.97a5.225,5.225,0,0,0,.1,1.351,1.071,1.071,0,0,0,.146.3,2.441,2.441,0,0,0,2.348,1.8.592.592,0,0,0,.082-.007l.057-.006v.539Zm104.851-26.045v0a34.864,34.864,0,0,0,1.236-7.13s0-.477-.013-1.216l-.083-.005-.034-9.381h-.014l.015-.005-.073-20.966h-4.2a4.194,4.194,0,0,0-3.012,1.022,2.723,2.723,0,0,0-.761,2.024l.021,2.642c0-.055-.629-5.732-5.212-8.168l24.943-.191c4.092-.031,10.032-1.181,13.469-3.321l1.523-.953-5.266,9.3c-.015-.025-1.527-2.484-3.769-2.484-.625.059-1.491.13-2.07.13l-2.814,0h-.54l-2.536,0a1.485,1.485,0,0,0-1.483,1.484v14.039l.007-.006v2.354c0,.105,0,.313,0,.6l0,.242c0,.3.006.665.01,1.079v.246l.015,0v1.509c.035,4.257.094,10.61.094,10.61h.016l.006-.014a8.415,8.415,0,0,1,.935-1.482c4.352-5.445,3.278-17.1,3.267-17.216a.025.025,0,0,1,.02-.028,66.483,66.483,0,0,0,11.605-5.309c7.844-4.518,13.631-10.037,16.735-15.961a4.044,4.044,0,0,1,.417-.664,39.97,39.97,0,0,1-1.426,6.734c-1.02,3.4-2.93,8.085-6.247,11.085a.049.049,0,0,1-.023.007h-.007l-1.556-.288a.039.039,0,0,0-.025.005l-2.964,1.847c-.008,0-.011,0-.011.011-.021.078-.229.956-.388,1.711a.081.081,0,0,1-.017.02,39.219,39.219,0,0,1-10.477,4.185c1.781-.052,6-1.111,11.056-3.321a47.774,47.774,0,0,0,13.864-8.829.725.725,0,0,0-.013.079l0,.02c0,.02-.007.039-.01.058-.031.079-3.117,7.895-7.5,11.463a.032.032,0,0,1-.022.009h-.008l-1.4-.468h-.008a.063.063,0,0,0-.016,0l-3.191,1.422c-.012,0-.015,0-.018.011-.031.073-.29.753-.521,1.374a.03.03,0,0,1-.021.019,47.966,47.966,0,0,1-11.9,1.859,41.187,41.187,0,0,0,4.962.266,46.9,46.9,0,0,0,15.935-2.673l-.036.05a16.663,16.663,0,0,1-8.33,5.993l-.011,0h-.017l-.906-.607a.029.029,0,0,0-.017-.007h-.008l-3.327.5a.034.034,0,0,0-.017.008l-.026.038c-.11.154-.445.621-.7,1,0,.01-.011.014-.028.014-.062,0-.129,0-.2,0-2.081,0-7.929-.82-7.987-.828,2.387,1.306,6.479,1.581,9.49,1.581a57.9,57.9,0,0,0,5.809-.3.034.034,0,0,1,.034.021.033.033,0,0,1-.009.032,13.663,13.663,0,0,1-6.058,3.171h-.008a.027.027,0,0,1-.021-.009l-.669-.6a.035.035,0,0,0-.023-.008l-3.028.017c-.01,0-.012,0-.017.005-.049.046-.461.464-.832.842a.037.037,0,0,1-.021.012,14.482,14.482,0,0,1-6.086-1.535c-.146.046-1.5.563-4.016,4.689-.047.077-.092.155-.137.233l-.063.109c-.112.191-.242.413-.377.633-.027.051-.057.1-.086.151l-.012.018-.012.021c-.041.07-.083.142-.126.218-.29.523-.673,1.134-1.171,1.869-3.355,2.089-11.386,3.259-11.466,3.271Zm-176.275-.321h0c-.08-.012-8.113-1.182-11.467-3.271-.486-.714-.869-1.326-1.172-1.869-.037-.062-.07-.121-.1-.179l-.028-.05c-.033-.058-.067-.116-.1-.176-.2-.338-.395-.657-.575-.98-2.595-4.252-4-4.68-4.011-4.683l-.013,0a14.826,14.826,0,0,1-6.075,1.528.046.046,0,0,1-.031-.011c-.387-.4-.781-.8-.824-.842a.018.018,0,0,0-.017-.006l-3.03-.017a.028.028,0,0,0-.021.008l-.671.6a.027.027,0,0,1-.021.009h-.009a13.651,13.651,0,0,1-6.058-3.168.038.038,0,0,1-.006-.038.031.031,0,0,1,.027-.018c.662.069,3.033.295,5.819.295,3.01,0,7.1-.274,9.486-1.58-.007,0-.054.01-.135.02-1.791.243-6.142.808-7.857.808-.073,0-.14,0-.2,0-.011,0-.02,0-.022-.016-.179-.269-.408-.59-.56-.8l0-.006c-.089-.125-.146-.206-.16-.229a.029.029,0,0,0-.012-.006l-3.335-.5h0a.037.037,0,0,0-.021.006l-.905.606a.071.071,0,0,1-.022,0h-.011a16.727,16.727,0,0,1-8.328-6l-.032-.05a46.827,46.827,0,0,0,15.927,2.673,41.028,41.028,0,0,0,4.966-.267,47.674,47.674,0,0,1-11.895-1.856.028.028,0,0,1-.021-.02c-.14-.372-.287-.76-.386-1.017l-.015-.04-.049-.126c-.039-.1-.065-.172-.072-.193s-.008-.011-.017-.011l-3.19-1.421a.053.053,0,0,0-.017,0l-1.413.469h0a.032.032,0,0,1-.025-.008c-4.389-3.568-7.472-11.385-7.5-11.463-.007-.053-.013-.108-.018-.158a47.782,47.782,0,0,0,13.863,8.83c5.05,2.208,9.271,3.269,11.057,3.321h-.016a39.794,39.794,0,0,1-10.462-4.184c-.01,0-.013-.012-.017-.019-.157-.746-.367-1.639-.386-1.712,0-.006,0-.008-.01-.009l-2.972-1.849a.028.028,0,0,0-.02-.006l-1.56.288h-.007a.045.045,0,0,1-.023-.006c-3.314-3-5.226-7.684-6.244-11.086a41.859,41.859,0,0,1-1.431-6.729h0a3.039,3.039,0,0,1,.415.66c3.107,5.924,8.895,11.443,16.738,15.961a66.485,66.485,0,0,0,11.6,5.309c.016,0,.019.011.019.025-.1,1.214-.895,12.009,3.274,17.219a8.331,8.331,0,0,1,.928,1.484l0,.014h.019c0-.122.123-13.166.123-14.289v-9.018c0-2.152-.019-4.395-.055-6.666a3.4,3.4,0,0,0-2.452-3.257l-4.221-1.219-.013-.011-3.105-4.717a.034.034,0,0,1,0-.034.032.032,0,0,1,.027-.016.041.041,0,0,1,.021.006c.5.4,3.291,1.348,7.454,2.54a73.164,73.164,0,0,0,7.686,1.921l5.463.3c5.564,0,9.673,1.054,12.208,3.132a10.19,10.19,0,0,1,3.818,8.242,11.7,11.7,0,0,1-1.581,5.946,10.854,10.854,0,0,1-5.2,4.34,24.594,24.594,0,0,1-9.765,1.6h-2.039a.028.028,0,0,0-.03.028c0,1.695-.109,10.506-.11,10.58a34.872,34.872,0,0,0,1.239,7.127Zm-1.039-39.333a.032.032,0,0,0-.036.033c-.036,2.685-.055,5.371-.055,7.982V1441.8a.031.031,0,0,0,.03.033h2.385a10.641,10.641,0,0,0,4.681-.892,5.626,5.626,0,0,0,2.7-3.074,16.424,16.424,0,0,0,.894-6.03,15.41,15.41,0,0,0-.949-6,5.782,5.782,0,0,0-2.841-3.044,11.091,11.091,0,0,0-4.712-.892Zm98.467,36.345h-8.028a7.158,7.158,0,0,1-2.382-.413l.018-.009a7.138,7.138,0,0,1-4.768-6.5v-1.008c0-.064-.007-.136-.015-.219v-.03c-.086-.983-.142-3.493-.152-3.986v-.011l10.566-6.124-1.919,4.079a5.245,5.245,0,0,0-.4,1.335c1.551-1.263,3-2.642,3.056-2.7,0,0-.01.026-.03.068-.424.845-1.571,3.08-3.043,5.582v4.647a3.513,3.513,0,0,0,3.508,3.509c.115,0,.233-.006.349-.017a3.617,3.617,0,0,0,3.166-3.645v-25.99a8.13,8.13,0,0,1,1.349-4.492l.085-.129.016-.024.022-.033c.052-.08.106-.163.162-.24a3.142,3.142,0,0,1,2.628-1.41h8.291l-2.273.8a3.248,3.248,0,0,0-2.162,3.052v25.871A8.046,8.046,0,0,1-7944.324,1458.241Zm-62.149-.042-17.462,0,2.108-.831a3.793,3.793,0,0,0,2.4-3.487v-.1c.038-2.2.058-4.444.058-6.664v-15.74c0-2.223-.02-4.465-.058-6.664a3.939,3.939,0,0,0-2.7-3.742l-2.219-.739h16.492c4.457,0,7.945.861,10.367,2.559a8.268,8.268,0,0,1,3.65,7.151,8.45,8.45,0,0,1-1.981,5.113,12.4,12.4,0,0,1-6.062,3.96l5.868,11.7a16.3,16.3,0,0,0,7.738,7.478l-6.948,0a7.72,7.72,0,0,1-4.123-1.19,7.732,7.732,0,0,1-2.854-3.205l-3.467-7.256,0,.077c0-.01-.1-.245-.266-.631l-1.769-3.706c-.893-1.667-1.595-2.612-2.093-2.808l2.555-5.78c.312,1.387.588,2.963.822,4.683a5.8,5.8,0,0,0,2.7-1.839c1.258-1.374,1.895-3.5,1.895-6.317s-.608-4.938-1.808-6.29a5.337,5.337,0,0,0-4.311-2.038h-3.272c0,1.584-.01,3.121-.028,4.567-.021,1.6-.03,3.363-.03,5.226v15.942c0,2.172.02,4.24.059,6.146a3.77,3.77,0,0,0,2.42,3.526l2.318.895Zm120.355,0h-5.963a10.562,10.562,0,0,1-10.553-10.547v-16.872a10.564,10.564,0,0,1,10.553-10.549h5.963a10.51,10.51,0,0,1,6.917,2.594,10.56,10.56,0,0,1,3.5,6.412c-1.644.4-8.486,5.447-8.556,5.5l1.211-2.761-5.593,4.622a.4.4,0,0,1,.027-.058c.476-.947,2.189-4.3,4.282-7.642a3.028,3.028,0,0,0,.466-1.6,5.25,5.25,0,0,0-5.246-5.242l-.16,0a5.393,5.393,0,0,0-5.082,5.459v23.616a5.255,5.255,0,0,0,5.254,5.245l.155,0a5.4,5.4,0,0,0,5.079-5.464v-3.891l.019.007a31.965,31.965,0,0,1,7.271,5.078,10.59,10.59,0,0,1-3.818,4.4A10.471,10.471,0,0,1-7886.118,1458.2Zm-14.537,0H-7932.9l3.75-1.058a3.8,3.8,0,0,0,2.755-3.484V1424.9a4.189,4.189,0,0,0-2.381-3.576l-1.84-.88h30.274c-3.024,1.026-4.662,3.961-5.449,5.372-.236.424-.393.7-.47.7-.04,0-.06-.078-.061-.245a4.156,4.156,0,0,0-4.146-4.121h-7.7c-.036,2.387-.056,4.839-.056,7.284v6.907a18.152,18.152,0,0,1,6.933-1.129c.618,0,1.031.02,1.108.023l-1.608,7.27-.562-1.656c-.641-1.883-2.441-2.8-5.506-2.8-.119,0-.241,0-.365,0v8.605c0,2.021.008,3.8.025,5.279.021,1.65.03,3.136.03,4.545h6.829l4.373-.105-2.767-1.155a29.855,29.855,0,0,1,4.061-9.048,23.625,23.625,0,0,0,.628,4.863c.571,2.391,1.8,5.574,4.39,7.154Zm-72.65,0h-5.962a10.561,10.561,0,0,1-10.552-10.547v-16.872a10.562,10.562,0,0,1,10.552-10.549h5.962a10.561,10.561,0,0,1,10.551,10.549v16.872A10.56,10.56,0,0,1-7973.306,1458.2Zm-8.225-16.767v9.7a5.249,5.249,0,0,0,5.239,5.246,5.254,5.254,0,0,0,5.25-5.246V1427.3a5.253,5.253,0,0,0-5.25-5.243,5.247,5.247,0,0,0-5.239,5.243v8.522a21.246,21.246,0,0,1,3.554,7.652,11.2,11.2,0,0,0-3.554-2.041Z" transform="translate(8079.159 -1364.42)" fill="#d8ae60"/></g></svg>