<svg xmlns="http://www.w3.org/2000/svg" width="19.969" height="19.969" viewBox="0 0 19.969 19.969"><path d="M0-21.984a9.713,9.713,0,0,0-3.867.773,10.084,10.084,0,0,0-3.187,2.156,10.084,10.084,0,0,0-2.156,3.188A9.713,9.713,0,0,0-9.984-12a9.713,9.713,0,0,0,.773,3.867A10.084,10.084,0,0,0-7.055-4.945,10.084,10.084,0,0,0-3.867-2.789,9.713,9.713,0,0,0,0-2.016a9.713,9.713,0,0,0,3.867-.773A10.084,10.084,0,0,0,7.055-4.945,10.084,10.084,0,0,0,9.211-8.133,9.713,9.713,0,0,0,9.984-12a9.713,9.713,0,0,0-.773-3.867,10.084,10.084,0,0,0-2.156-3.187,10.084,10.084,0,0,0-3.187-2.156A9.713,9.713,0,0,0,0-21.984ZM.891-6.234v1.219H-.891V-6.281a7.133,7.133,0,0,1-.937-.375A3.766,3.766,0,0,1-3-7.547a4.3,4.3,0,0,1-.891-1.687l1.641-.7q.047.094.164.422a3.6,3.6,0,0,0,.375.727,2.181,2.181,0,0,0,.727.68,2.147,2.147,0,0,0,1.125.281A2.7,2.7,0,0,0,1.5-8.2a1.3,1.3,0,0,0,.656-1.219,1.446,1.446,0,0,0-.562-1.2,6.322,6.322,0,0,0-1.734-.867q-.422-.141-.984-.352a5.011,5.011,0,0,1-1.1-.586,3.187,3.187,0,0,1-.891-.937,2.608,2.608,0,0,1-.352-1.406q0-.047.047-.422a3.181,3.181,0,0,1,.281-.891,2.941,2.941,0,0,1,.773-.984,3.151,3.151,0,0,1,1.477-.656v-1.266H.891v1.219a3.452,3.452,0,0,1,1.453.633,3.488,3.488,0,0,1,.844.914,5.568,5.568,0,0,1,.375.7l-1.594.656a1.665,1.665,0,0,0-.258-.492,2.44,2.44,0,0,0-.609-.586,1.793,1.793,0,0,0-1.055-.281,2.408,2.408,0,0,0-.75.141,1.83,1.83,0,0,0-.727.445,1.108,1.108,0,0,0-.3.82,1.18,1.18,0,0,0,.656,1.078,13.036,13.036,0,0,0,1.969.844,4.634,4.634,0,0,1,2.391,1.5,3.338,3.338,0,0,1,.609,1.922,3.136,3.136,0,0,1-.375,1.617,2.711,2.711,0,0,1-.914.961,4.248,4.248,0,0,1-1.031.469Q1.078-6.281.891-6.234Z" transform="translate(9.984 21.984)" fill="#73747D"/></svg>