<svg xmlns="http://www.w3.org/2000/svg" width="122.136" height="34.042" viewBox="0 0 122.136 34.042"><path d="M16.726,0H0S0,.667,0,.7A3.587,3.587,0,0,0,3.59,4.189H16.726ZM4.235,6.267s0,.667,0,.7a3.587,3.587,0,0,0,3.586,3.488h8.917V6.267Zm4.144,6.274s0,.668,0,.7a3.587,3.587,0,0,0,3.586,3.488h4.774v-4.19H8.378Z" fill="#ff0054"/><path d="M61.417,9.344a6.105,6.105,0,0,0-5.3-2.7c-4.853-.034-8.664,2.967-8.664,8.7,0,5.833,3.642,8.865,8.563,8.831,1.855-.034,4.449-.977,5.4-2.934l.2,2.428H65.5V7.052H61.553l-.136,2.292ZM56.5,20.4a4.761,4.761,0,0,1-4.921-5.057A4.733,4.733,0,0,1,56.5,10.324C62.965,10.321,62.965,20.4,56.5,20.4ZM78,14.333l-1.72,4.585L74.7,14.232,72.169,7.052H67.381L74.025,23.4l-3.1,7.217h4.517L85.586,7.052H81.035Zm22.212-8.967L98.564,7.456a6.61,6.61,0,0,0-3.808-.943c-5.083,0-9.121,3.865-8.329,9.921a8.127,8.127,0,0,0,8.3,6.87c2.066-.009,4.242,1.033,4.242,3.336s-1.855,3.575-4.215,3.575S90.4,28.8,90.4,26.64h-4.08c0,4.483,3.608,7.417,8.428,7.417s8.325-2.831,8.325-7.417a5.591,5.591,0,0,0-3.438-5.494c2.73-1.248,3.506-4.147,3.506-6.2a7.075,7.075,0,0,0-1.753-4.921l1.855-2.361-3.031-2.3ZM94.756,19.559a4.287,4.287,0,0,1-4.348-4.619,4.344,4.344,0,1,1,8.662,0A4.3,4.3,0,0,1,94.756,19.559ZM113.6,6.716a8.319,8.319,0,0,0-8.6,8.665c0,4.789,3.236,8.665,8.631,8.665a8.3,8.3,0,0,0,8.665-8.665A8.4,8.4,0,0,0,113.6,6.716Zm.034,13.552c-3,0-4.517-2.361-4.517-4.887,0-2.5,1.55-4.921,4.517-4.921a4.694,4.694,0,0,1,4.517,4.921c0,2.526-1.516,4.887-4.517,4.887ZM125.125.106h4.08V23.673h-4.08Z" transform="translate(-7.069 -0.016)" fill="#09097d"/><path d="M34.065.031c-3.706,0-7.417.034-11.123.034V24.141h.637a.848.848,0,0,0,.106,0,3.806,3.806,0,0,0,3.7-3.808V16.716h6.675c11.568,0,11.534-16.685,0-16.685Zm0,12.606H27.391V4.277h6.674C39.729,4.277,39.763,12.637,34.065,12.637Z" transform="translate(-3.418 -0.005)" fill="#09097d"/></svg>