<svg xmlns="http://www.w3.org/2000/svg" xmlns:xlink="http://www.w3.org/1999/xlink" width="142.629" height="38" viewBox="0 0 142.629 38"><defs><clipPath id="a"><rect width="38" height="38" fill="#fff"/></clipPath></defs><g clip-path="url(#a)"><rect width="38" height="38" rx="19" fill="#1e7f94"/><path d="M13.428,21.563a.536.536,0,0,1-.522-.56V20.29q0-.072,0-.143a6.089,6.089,0,0,1,.141-2.111l.037-.139a6.411,6.411,0,0,1,.314-.974,1.885,1.885,0,0,0,.075-.285c.014-.067.029-.137.047-.2.013-.05.027-.117.042-.188a1.95,1.95,0,0,1,.424-1,1.809,1.809,0,0,1,1.074-.377.5.5,0,0,1,0,1,1.2,1.2,0,0,0-.376.1,2.057,2.057,0,0,0-.144.492c-.018.084-.034.163-.054.237-.012.044-.024.1-.036.159a3.162,3.162,0,0,1-.1.374.856.856,0,0,1,.185.631,5.816,5.816,0,0,1-.059.734c-.016.125-.03.243-.04.362,0,.025-.005.055-.008.087a1.8,1.8,0,0,0-.014.27,1.377,1.377,0,0,1,.123.69c0,.019,0,.037,0,.055v.881a.5.5,0,0,1-.723.448A.507.507,0,0,1,13.428,21.563Z" transform="translate(-0.669 -0.768)" fill="#f0caab"/><path d="M14.829,24a.642.642,0,0,1-.318-.093l-.074-.044-.039.011-.037-.06-.1-.071-.117-.083a.517.517,0,0,1-.122-.022.741.741,0,0,1-.4-.359l-.046-.04-.382-.293.276-.371q0-.046.01-.093c.137-.985.394-2.849.534-3.889l-.059.017-.209-.244a.549.549,0,0,1-.062-.589c.021-.136.04-.272.06-.407q.019-.131.038-.262c.027-.182.06-.361.092-.535A6.377,6.377,0,0,0,14,15.6a.516.516,0,0,1,.429-.551.508.508,0,0,1,.576.375l.008.023a.252.252,0,0,0,.2.079.543.543,0,0,1-.116-.109.555.555,0,0,1-.119-.381.529.529,0,0,1-.447-.576c0-.015,0-.029,0-.041a.666.666,0,0,1,.381-.668,1.1,1.1,0,0,1,.718-.141.6.6,0,0,1,.379.235l.075-.076c.111-.115.447-.464.832-.231a.5.5,0,0,1,.251.417.555.555,0,0,1,.163.048.794.794,0,0,1,.815-.507.628.628,0,0,1,.452.205.924.924,0,0,1,.177.711c0,.017,0,.032,0,.045q0,.059,0,.118a2.531,2.531,0,0,1,.746-.418l.345-.077.192.3a.461.461,0,0,1,.072.349c.1,0,.2,0,.306.006a3.383,3.383,0,0,1,.481.076,2.035,2.035,0,0,0,.389.058l.177,0a2.052,2.052,0,0,1,.275.016,16.287,16.287,0,0,1,2.45.519c.255.075.51.156.757.235s.5.158.746.231a1.693,1.693,0,0,1,.6.39l.084.072.043.034a.834.834,0,0,1,.395.805,2.028,2.028,0,0,0-.05.635.606.606,0,0,1,.03.271l-.059.393-.4.032a.5.5,0,0,1-.423-.178,3.07,3.07,0,0,0-.617-.008,4.588,4.588,0,0,1-.628,0,1.18,1.18,0,0,1-.738-.412,1.205,1.205,0,0,0-.145-.133,3.784,3.784,0,0,1-.489-.418c-.085-.082-.165-.159-.242-.223a4.112,4.112,0,0,0-1.941-1.088c-.223-.029-.454-.052-.677-.074-.294-.029-.6-.059-.9-.1-.109-.016-.223-.038-.333-.06s-.216-.042-.323-.058c-.068.056-.127.107-.17.147-.033.267-.077.532-.121.787-.021.122-.041.245-.061.368-.041.259-.085.535-.151.816a.5.5,0,0,1,.112.009.511.511,0,0,1,.406.512.5.5,0,0,0-.407-.468.511.511,0,0,0-.122-.008c-.023.093-.048.186-.077.279h0l.637.245c-.011.039-.023.083-.03.113.046.3.111.588.18.9.043.194.088.394.127.6a.921.921,0,0,1-.029.848.56.56,0,0,1-.457.23,2.176,2.176,0,0,1-.28-.022l-.068-.008-.065,0a1.1,1.1,0,0,1-.67-.221.5.5,0,0,1-.67-.334l-.006,0a.5.5,0,1,1-1,.036c0-.024,0-.054-.006-.083s0-.04,0-.053a6.457,6.457,0,0,1-.049-.677c-.014.062-.029.124-.044.184a4.087,4.087,0,0,0-.127.681.511.511,0,0,1-.521.513.566.566,0,0,1-.1-.012l0,.21c.006.435.012.929.015,1.31,0,.19,0,.337,0,.445l.024.026a.526.526,0,0,1,.03.736A.506.506,0,0,1,14.829,24Zm9.964-6.68a4,4,0,0,0,.476-.005c.169-.008.348-.017.53-.009.006-.053.014-.1.022-.155l-.064-.05c-.033-.027-.069-.058-.107-.092a1.723,1.723,0,0,0-.233-.184c-.255-.075-.511-.157-.759-.235s-.492-.156-.737-.229q-.157-.046-.315-.089l.107.088c.105.087.2.181.3.271a3.01,3.01,0,0,0,.358.313,1.968,1.968,0,0,1,.291.254A1.242,1.242,0,0,0,24.793,17.317Z" transform="translate(-0.675 -0.698)" fill="#f0caab"/><path d="M18.047,26.837a1.5,1.5,0,0,1-1.174-.556,2.494,2.494,0,0,1-.257-.1,1.634,1.634,0,0,1-.226-.123,1.522,1.522,0,0,1-1.608-.608l-.02-.029a2.2,2.2,0,0,1-.4-.932q-.049-.057-.094-.119a2.224,2.224,0,0,1-.151-.236,1.488,1.488,0,0,1-1.406-.734l-.478-.811.523-.783a1.587,1.587,0,0,1,1.34-.694c.061,0,.125,0,.191,0l.4-.033.127-.011a1.577,1.577,0,0,1,1.123-1.611,1.645,1.645,0,0,1,1.813.67,3.89,3.89,0,0,1,.3.345,1.935,1.935,0,0,1,.3.054,1.569,1.569,0,0,1-.03-.579,2.7,2.7,0,0,0-.3-.253,1.918,1.918,0,0,1-.721-1.759v-.021a3.626,3.626,0,0,1,.027-.365c0-.027.007-.063.008-.079a1.918,1.918,0,0,1,.084-.544c.006-.1,0-.247,0-.38,0-.118-.009-.24-.009-.37a1.5,1.5,0,0,1,2.716-.878,2.17,2.17,0,0,1,.31-.13,1.806,1.806,0,0,1,1.82.458l0,0a2.326,2.326,0,0,1,.462.38,1.684,1.684,0,0,1,1.468-.111l.046.014c.192.057.358.106.518.142.044,0,.153,0,.234,0a3.74,3.74,0,0,1,.958.065,1.8,1.8,0,0,1,1.314,1,1.472,1.472,0,0,1,.436.753,1.5,1.5,0,0,1-.128,1.047,1.5,1.5,0,0,1-.482,2.688,1.571,1.571,0,0,1-.652.323c-.034.029-.072.061-.112.093a1.493,1.493,0,0,1-.4.707l-.372.374-.38.382-.044.049a2.5,2.5,0,0,1-.63.537c-.045.027-.095.059-.153.1s-.118.076-.186.117l-.015.024a3.366,3.366,0,0,1-.375.5c-.03.049-.075.12-.132.2a2.351,2.351,0,0,1-.9.748c-.032.021-.1.076-.156.117a3.022,3.022,0,0,1-1.139.614,3.2,3.2,0,0,1-1.224.118,1.577,1.577,0,0,1-.378-.1l-.016,0c-.03.008-.081.025-.124.039a3.032,3.032,0,0,1-.951.178A2.554,2.554,0,0,1,18.047,26.837Z" transform="translate(-0.7 -0.809)" fill="#f0caab"/><path d="M21.282,29.559a1.549,1.549,0,0,1-.753-.246l-.011-.006a2.022,2.022,0,0,1-.558-.3h0a2.084,2.084,0,0,1-.24-.118,1,1,0,0,1-.412-1.331.988.988,0,0,1,.991-.542,1.114,1.114,0,0,1,.9-.933,1.569,1.569,0,0,1,.169-.021,1.615,1.615,0,0,1,.1-.186c.068-.106.134-.22.2-.341l.078-.134c.008-.016.015-.034.023-.052l.006-.014A1.184,1.184,0,0,1,22,24.819a1,1,0,0,1,1.8.119l.255.165-.288.76a1.085,1.085,0,0,1-.168.294v0a2.32,2.32,0,0,1-.121.244l-.078.133c-.072.125-.147.254-.231.386-.01.022-.025.058-.036.086a1.622,1.622,0,0,1-.84.985c0,.2,0,.4-.01.609a1.006,1.006,0,0,1-.523.832A.983.983,0,0,1,21.282,29.559Z" transform="translate(-1.01 -1.265)" fill="#f0caab"/><path d="M14.516,23.957l-.039,0-.284-.022c-.313-.025-.637-.051-.953-.07h0a.617.617,0,0,1-.636-.35,1.874,1.874,0,0,1-.079-.189.953.953,0,0,0-.04-.1,1.091,1.091,0,0,0-.143-.184,2.3,2.3,0,0,1-.212-.269c-.01-.009-.034-.027-.051-.04a1.079,1.079,0,0,1-.288-.3.438.438,0,0,0-.084-.058.5.5,0,1,1,.447-.894,1.276,1.276,0,0,1,.481.416l.048.038a1.106,1.106,0,0,1,.283.288,1.433,1.433,0,0,0,.127.157,1.927,1.927,0,0,1,.276.377c.021.04.039.078.054.114.288.019.576.042.856.064l.283.022a.5.5,0,0,1-.038,1Z" transform="translate(-0.596 -1.096)" fill="#f0caab"/><path d="M17.139,26.827A.5.5,0,0,1,16.8,26.7l-.023,0a.98.98,0,0,1-.548-.26l-.01-.008c-.1-.076-.186-.153-.274-.227-.125-.106-.243-.205-.373-.3a.5.5,0,0,1,.6-.8c.151.115.285.228.415.337.087.073.168.142.253.21l.011.009c.014.011.041.033.063.049a.845.845,0,0,1,.666.4.5.5,0,0,1-.447.724Z" transform="translate(-0.794 -1.275)" fill="#f0caab"/><path d="M28.505,21.538a.5.5,0,0,1-.489-.6,3.814,3.814,0,0,1,.117-.407,1.508,1.508,0,0,0,.1-.452.5.5,0,0,1,1,0,2.348,2.348,0,0,1-.155.767,2.952,2.952,0,0,0-.089.3A.5.5,0,0,1,28.505,21.538Z" transform="translate(-1.425 -1.004)" fill="#f0caab"/><path d="M35.16,31.19a.944.944,0,0,1-.844-.557,1.266,1.266,0,0,1-.117-.054.812.812,0,0,0-.219-.028,1.5,1.5,0,0,1-.613-.131,1.033,1.033,0,0,0-.139-.04,1.037,1.037,0,0,1-.731-.475l-.148-.266.037-.056a.5.5,0,0,1,.249-.934,5.945,5.945,0,0,1,.666.026h.019a.762.762,0,0,1,.433.117,1.721,1.721,0,0,0,.224.044c.051.008.1.015.138.023a.924.924,0,0,0,.146,0c.043,0,.086,0,.128,0a2.1,2.1,0,0,1,.5.088l.044.012c.079.021.149.046.211.069l.02.007c.029-.011.064-.023.1-.034.054-.015.105-.024.146-.032l.052-.01.009-.006a1.365,1.365,0,0,1,.117-.075.718.718,0,0,1,.657-.029.556.556,0,0,1,.3.439,1.337,1.337,0,0,1-.405,1.139,1.651,1.651,0,0,0-.145.183,1.816,1.816,0,0,1-.417.446A.723.723,0,0,1,35.16,31.19Z" transform="translate(-1.632 -1.457)" fill="#f0caab"/><path d="M20.084,24.674a1.071,1.071,0,0,1-.195-.018,4.274,4.274,0,0,0-.742-.083.923.923,0,0,1-.6-.2.53.53,0,0,0-.2-.068c-.065-.015-.138-.033-.22-.059A3.986,3.986,0,0,1,17.522,24l-.092-.051a.784.784,0,0,0-.086-.045.888.888,0,0,1-.226-.09l-.01-.005-.021,0a1.029,1.029,0,0,1-.239-.051,1.457,1.457,0,0,1-.271-.146l-.034-.021-.01.006a2.457,2.457,0,0,1-.235.2,1.753,1.753,0,0,0-.141.116,1.045,1.045,0,0,1-.6.281l-.078.015a1.843,1.843,0,0,1-.326.044H15.1l-.167,0a.515.515,0,0,1-.067.048.524.524,0,0,1-.518.011,1.152,1.152,0,0,1-.173-.116c-.011-.009-.023-.018-.034-.026a1.166,1.166,0,0,0-.2-.087,2.135,2.135,0,0,1-.339-.148,2.423,2.423,0,0,0-.281-.128c-.084-.034-.171-.069-.262-.113s-.159-.085-.225-.125l-.09-.053a1.933,1.933,0,0,1-.426-.3.85.85,0,0,1-.22-.424,3.022,3.022,0,0,1-.652-.575c-.057-.062-.111-.12-.163-.171a.5.5,0,0,1,.707-.707c.064.064.127.132.188.2a2.232,2.232,0,0,0,.434.4l.16.095a.666.666,0,0,1,.417-.078c.058,0,.121.012.144.015a1.173,1.173,0,0,0,.362-.038l.147-.028.063-.011a1.064,1.064,0,0,0,.109-.021,1.07,1.07,0,0,0,.13-.084,2.049,2.049,0,0,1,.222-.14l.147-.078c.1-.053.2-.108.308-.161a1.02,1.02,0,0,1,.141-.055h0a.7.7,0,0,1,.29-.114.492.492,0,0,1,.094-.144.5.5,0,0,1,.539-.124h.229a1.037,1.037,0,0,1,.25.035L16.4,21c.1,0,.207,0,.313.006a.728.728,0,0,1,.7-.146l.191.063a3.885,3.885,0,0,0,.531.15.727.727,0,0,1,.316.143.538.538,0,0,1,.167.1,1.737,1.737,0,0,1,.374.473.591.591,0,0,0,.264.256c.091.057.176.115.258.171a3.145,3.145,0,0,0,.357.223c.026.013.067.028.109.044s.108.04.169.068l.189.088a3.741,3.741,0,0,0,.778.3c.019,0,.042.008.068.011a1.165,1.165,0,0,1,.3-.038c.036,0,.1,0,.138.005a.514.514,0,0,1,.546.453.506.506,0,0,1-.4.55l-.071.014a1.066,1.066,0,0,1-.181.1,1.4,1.4,0,0,0-.227.157,1.861,1.861,0,0,1-.559.329l-.076.026A1.706,1.706,0,0,1,20.084,24.674Z" transform="translate(-0.582 -1.066)" fill="#fff"/><path d="M31.679,34.243c-.1,0-.189,0-.26-.009l-.03,0a4,4,0,0,1-1.114-.192,2.034,2.034,0,0,1-.683-.169,5.553,5.553,0,0,1-.96-.588c-.139-.1-.271-.195-.384-.26l-.1-.056a3.293,3.293,0,0,1-.727-.5l-.027-.023a2.388,2.388,0,0,1-.358-.364L27,32.048l-.087-.077a2.315,2.315,0,0,1-.257-.272,1.559,1.559,0,0,1-.414-.5,1.846,1.846,0,0,1-.2-.59,2.722,2.722,0,0,1-.276-.6,4.334,4.334,0,0,1-.154-.688,1.816,1.816,0,0,1-.129-.668c0-.09,0-.18,0-.27,0-.14,0-.272,0-.4-.007-.065-.017-.164-.021-.269a1.782,1.782,0,0,1,.171-.885,3.982,3.982,0,0,1,.107-.507l0-.017a2.238,2.238,0,0,1,.195-.593,4.4,4.4,0,0,1,.226-.388c.022-.035.053-.084.074-.118a3.047,3.047,0,0,1,.911-1.425l.062-.062c.065-.065.091-.095.1-.107s.019-.042.042-.1a2.456,2.456,0,0,1,1.168-1.446,4.4,4.4,0,0,1,1.069-.406,1.708,1.708,0,0,1,.242-.33,1.983,1.983,0,0,1,.9-.529l.046-.035a2.67,2.67,0,0,1,.938-.5,3.248,3.248,0,0,0,.537-.239c.1-.049.195-.1.3-.15a2.685,2.685,0,0,1,1-.232l.076-.006.067-.014a3.036,3.036,0,0,1,.485-.07,1.867,1.867,0,0,1,.68-.2,1.661,1.661,0,0,1,2.036,1.212,7.637,7.637,0,0,1,.163.988,4.644,4.644,0,0,0,.1.652,2.975,2.975,0,0,1,.1.771c0,.036,0,.086,0,.106a7.6,7.6,0,0,1,.066,1.141c0,.107,0,.215,0,.324a7.38,7.38,0,0,1-.067,1.384,2.1,2.1,0,0,1-1.261,1.592L36,27.529a1.914,1.914,0,0,1-1.485.246c-.041-.011-.085-.024-.13-.04a1.608,1.608,0,0,1-.168.154,1.5,1.5,0,0,1-1.137.324,2.047,2.047,0,0,1-.715.057l-.052.022a2.028,2.028,0,0,1-.687,1.226c.07.053.132.1.184.147l.088.071a1.959,1.959,0,0,1,.775.674l.073.01.193.028a1.5,1.5,0,0,1,.333,2.869,1.523,1.523,0,0,1-.094.177A1.653,1.653,0,0,1,31.679,34.243Z" transform="translate(-1.348 -1.04)" fill="#ffde6c"/><path d="M34.026,32.04a.5.5,0,0,1-.5-.5,2.625,2.625,0,0,1,.06-.491c.012-.063.028-.146.035-.211-.047,0-.1,0-.145,0a1.494,1.494,0,0,1-.651-.085,3.25,3.25,0,0,1-.946-.584,1.29,1.29,0,0,1-.154-.181l-.032-.043a.829.829,0,0,1-.108-.194,1.107,1.107,0,0,1-.2-.507c-.005-.025-.012-.06-.016-.072a2.474,2.474,0,0,1-.109-.738,2.268,2.268,0,0,1,.045-.509.69.69,0,0,1,.8-.551l0,0a.908.908,0,0,1,.452-.195,3.274,3.274,0,0,1,.4-.012h.108a1.064,1.064,0,0,1,.235.03l.021,0a.607.607,0,0,1,.286.038c.122,0,.247,0,.377,0l.247,0h.608c.185,0,.372-.016.571-.033s.389-.033.594-.036a.551.551,0,0,1,.075-.061c.046-.06.119-.164.151-.213a3.893,3.893,0,0,0,.267-.55c.045-.107.093-.217.142-.322a.9.9,0,0,0,.053-.212,2.022,2.022,0,0,1,.083-.34,2.592,2.592,0,0,1,.229-.458,2.2,2.2,0,0,0,.13-.241,3.071,3.071,0,0,0,.018-.5c0-.094,0-.175,0-.244a.87.87,0,0,1,.015-.135l-.007-.021a4.131,4.131,0,0,0-.179-.374,3.963,3.963,0,0,1-.276-.62,1.566,1.566,0,0,1-.011-.76,4.811,4.811,0,0,0,.048-.686c0-.171.009-.347.024-.524,0-.035,0-.068.007-.1s.006-.095.011-.147c-.082-.008-.165-.018-.247-.028-.021,0-.069-.006-.111-.009a1.544,1.544,0,0,1-.491-.087h0a4.835,4.835,0,0,1-.417.305c-.067.045-.129.087-.173.12l-.005,0a2.084,2.084,0,0,0-.747.783,3.019,3.019,0,0,1-.365.512.591.591,0,0,1-.664.181.579.579,0,0,1-.356-.561.5.5,0,0,1,.434-.5c.032-.049.064-.1.1-.156A3.814,3.814,0,0,1,34,20.846a2.49,2.49,0,0,1,.232-.256l-.076-.238a.556.556,0,0,1,.294-.64l.055-.039a2.3,2.3,0,0,1,.941-.382l.047-.011c.057-.013.114-.024.17-.032a.692.692,0,0,1,.414-.135,2.119,2.119,0,0,1,.336.025l.075.009a.68.68,0,0,1,.4.11,1.523,1.523,0,0,1,.522-.394l.024-.011.007,0,.008-.02a1.359,1.359,0,0,1,.631-.716l.247-.106.226.148c.239.157.245.319.276,1.1.01.26.018.528.022.691l.271.083.1.616-.254.179c-.2.139-.363.093-.613.024l-.063-.018a4.914,4.914,0,0,0-.5-.081c0,.033-.006.074-.009.116s-.005.085-.009.129c-.013.145-.016.3-.02.462a5.621,5.621,0,0,1-.063.832,1.006,1.006,0,0,0-.022.283,3.165,3.165,0,0,0,.212.466,4.85,4.85,0,0,1,.226.479c.02.05.067.21.069.216.014.047.027.093.036.127a.539.539,0,0,1-.049.439,2.273,2.273,0,0,1-.092.851,2.921,2.921,0,0,1-.2.375,1.782,1.782,0,0,0-.147.284,1.208,1.208,0,0,0-.04.18,1.741,1.741,0,0,1-.134.466c-.041.088-.083.184-.126.287a4.594,4.594,0,0,1-.347.7,2.781,2.781,0,0,1-.284.383.539.539,0,0,1-.484.347c-.062,0-.121,0-.173,0-.206,0-.412.013-.633.032s-.428.037-.656.037h-.608l-.235,0c-.165,0-.335,0-.508,0a.619.619,0,0,1-.181-.034,1.063,1.063,0,0,1-.22-.029l-.032-.007-.222,0c-.042,0-.083,0-.121,0l-.018.013a.9.9,0,0,1-.44.191c0,.02,0,.04,0,.063a1.481,1.481,0,0,0,.064.442,1.715,1.715,0,0,1,.04.167c.006.028.014.068.022.1a.829.829,0,0,1,.118.211l0,.009.026.035a.353.353,0,0,0,.043.053,2.4,2.4,0,0,0,.645.383,1.789,1.789,0,0,0,.235,0,1.474,1.474,0,0,1,.635.082,1.052,1.052,0,0,1,.477,1.313,1.891,1.891,0,0,0-.042.3A.5.5,0,0,1,34.026,32.04Z" transform="translate(-1.588 -0.929)" fill="#ffde6c"/><path d="M6.895,16.615a1,1,0,0,1-.707-1.707,4.921,4.921,0,0,1,.4-.349,2.882,2.882,0,0,0,.333-.294A2.321,2.321,0,0,0,7,14.038v-.019a1.6,1.6,0,0,1,.112-.514,3.406,3.406,0,0,1,.715-1.014l.049-.055a1.717,1.717,0,0,1,.087-.336l0-.013a1.9,1.9,0,0,1,.158-.48l.019-.043a1.149,1.149,0,0,1,.7-.835,1.081,1.081,0,0,1,.511-.073,1.108,1.108,0,0,1,.394-.2,2.218,2.218,0,0,1,.838-.068,2.014,2.014,0,0,1,.508-.149,1.36,1.36,0,0,1,1.2.407,1,1,0,0,1,.8.043,1.292,1.292,0,0,1,.678,1.129l.006.016a1.106,1.106,0,0,1,.151,1.058,1.01,1.01,0,0,1-.6.572,1.108,1.108,0,0,1-.7.254,1.03,1.03,0,0,1-.366-.066,1.171,1.171,0,0,1-.831.318,2.19,2.19,0,0,1-1.013-.284,2.548,2.548,0,0,1-.657-.522,2.222,2.222,0,0,1-.461.685,2.707,2.707,0,0,0-.3.363,1.718,1.718,0,0,1-.057.334,4.317,4.317,0,0,1-.2.551,2.844,2.844,0,0,1-.9,1.019c-.093.075-.19.153-.243.205A1,1,0,0,1,6.895,16.615Z" transform="translate(-0.345 -0.561)" fill="#f0caab"/><path d="M8.5,17.255a.516.516,0,0,1-.294-.092.509.509,0,0,1-.084-.076,1.236,1.236,0,0,1-.388-.24c-.028-.025-.054-.051-.078-.076-.025,0-.05,0-.074,0a.526.526,0,0,1-.5-.314A.514.514,0,0,1,7.2,15.88a.763.763,0,0,1,.519-.19c.021-.007.043-.013.066-.018.072-.017.149-.04.23-.065l.159-.047a.842.842,0,0,0-.026-.141.945.945,0,0,1-.034-.375c0-.011,0-.026,0-.035a3.5,3.5,0,0,1-.1-.725.511.511,0,0,1,.408-.514l.021,0a.747.747,0,0,1,.189-.273,1.228,1.228,0,0,0,.089-.16,1.477,1.477,0,0,1,.286-.425c.006-.037.01-.093.014-.134a1.242,1.242,0,0,1,.129-.528,3.554,3.554,0,0,1,1.586-1.305,6.346,6.346,0,0,0,.674-.391,1.324,1.324,0,0,1,.7-.194,2.574,2.574,0,0,0,.673-.087l.116-.031a.517.517,0,0,1,.06-.094c.171-.214.434-.251.957-.251l.088,0a2.608,2.608,0,0,1,.81-.2l.066-.006a1.076,1.076,0,0,1,.85.139l.25.222-.109.319a.555.555,0,0,1-.56.352,1.368,1.368,0,0,1-.507.131c-.187.24-.327.411-.585.427-.136.008-.272.022-.416.036a7.347,7.347,0,0,1-.747.049.5.5,0,0,1-.249-.067,3.557,3.557,0,0,1-.7.067.484.484,0,0,0-.135.022,7.317,7.317,0,0,1-.767.447c-.183.1-.362.192-.526.293a.548.548,0,0,1,.479.562.9.9,0,0,1-.258.62.55.55,0,0,1,.148.24.508.508,0,0,1,.5.092H12.6c.137,0,.267.012.381.023.1.01.193.019.279.019a1.039,1.039,0,0,1,.568.134.5.5,0,0,1,.406.356l.1.34-.288.206a.527.527,0,0,1-.377.089,1.067,1.067,0,0,0-.139.029,2.258,2.258,0,0,1-.23.048c-.019,0-.067.016-.1.026a1.365,1.365,0,0,1-.35.065,1.026,1.026,0,0,0-.326.176.724.724,0,0,1-.492.262h-.006c-.173.076-.343.135-.507.192-.1.034-.192.067-.284.1a.955.955,0,0,1-.26.069l-.061.077a.992.992,0,0,1-.45.295c-.024.01-.061.024-.076.031a.982.982,0,0,1-.388.172,1.016,1.016,0,0,0-.113.042,1.829,1.829,0,0,1-.2.072.806.806,0,0,1-.376.019,1.725,1.725,0,0,1-.54.7A.537.537,0,0,1,8.5,17.255Z" transform="translate(-0.377 -0.508)" fill="#f0caab"/><path d="M24.566,33.774a.762.762,0,0,1-.332-.086l-.01,0a6.5,6.5,0,0,1-.733-.415c-.107-.067-.209-.131-.313-.192l-.054-.027a1.393,1.393,0,0,1-.193-.108,1.214,1.214,0,0,1-.142-.007,2.875,2.875,0,0,1-1.007-.254l-.221-.112c-.2-.1-.391-.2-.585-.28-.238-.1-.464-.207-.681-.314-.169-.083-.329-.162-.493-.233l-.029-.01a.789.789,0,0,1-.582-.535c-.013-.023-.043-.064-.063-.092-.033-.047-.071-.1-.1-.158a7.3,7.3,0,0,1-.388-.818c-.039-.092-.078-.184-.118-.274a8.848,8.848,0,0,1-.352-.894,1.186,1.186,0,0,1-.048-.264,1.422,1.422,0,0,1-.077-.275.5.5,0,0,1,.364-.595c.136-.035.469-.067.633.4l0,.007a1.311,1.311,0,0,1,.052.168,1.341,1.341,0,0,0,.364.273c.074.046.151.093.231.146a4.815,4.815,0,0,0,.838.42l.1.042a3.335,3.335,0,0,0,.544.2c.056.013.11.029.157.043l.071.02.051-.055a2.079,2.079,0,0,0,.241-.377c.056-.1.113-.206.181-.311a.591.591,0,0,1,.318-.285l.035-.036c.027-.027.051-.052.071-.07l.166-.152.14-.128a.525.525,0,0,1-.187-.4.732.732,0,0,1,.351-.577l.017-.012.05-.044.118-.1c.111-.2.194-.36.264-.517a2.625,2.625,0,0,1,.368-.639c.04-.049.144-.218.2-.31.039-.064.075-.123.1-.165a.516.516,0,0,1,.586-.274.612.612,0,0,1,.18-.335c.012-.015.036-.051.052-.076l.032-.048c.042-.062.082-.124.123-.186a6.56,6.56,0,0,1,.384-.544l.019-.024a1.525,1.525,0,0,1,.469-.429l.018-.026.016-.023a2.28,2.28,0,0,1,.219-.312c.033-.042.064-.081.089-.116l.01-.014a1.4,1.4,0,0,1,.475-.473,1.731,1.731,0,0,1,.15-.152l.04-.037h0a.7.7,0,0,1,.308-.266,1.3,1.3,0,0,1,.572-.117.5.5,0,1,1,0,1,.494.494,0,0,0-.1.007.8.8,0,0,1-.064.072c-.027.027-.054.052-.08.076a.734.734,0,0,0-.072.072.533.533,0,0,1-.314.26q-.038.046-.1.134l-.012.016c-.041.058-.082.11-.123.16a1.5,1.5,0,0,0-.129.177,1.194,1.194,0,0,1-.068.106L26.558,24a.516.516,0,0,1-.413.373c-.039.041-.085.1-.109.129l-.022.028c-.115.142-.217.3-.325.463-.043.065-.086.131-.13.2l-.023.035c-.028.043-.062.094-.1.147,0,.035-.009.066-.014.089a4,4,0,0,1-.19.692,3.137,3.137,0,0,0-.1.36,3.678,3.678,0,0,1-.151.506,3.533,3.533,0,0,0-.207,1.123,1.584,1.584,0,0,1-.033.23c-.008.039-.017.089-.019.113-.02.229-.029.466-.029.747a2.549,2.549,0,0,0,.107.921,2.885,2.885,0,0,1,.085.277c.018.067.035.13.055.183a2.584,2.584,0,0,0,.237.429c.041.065.083.131.124.2a3.574,3.574,0,0,0,.31.456c.044.054.085.107.124.158s.079.1.117.149c.008.009.036.033.057.05a1.507,1.507,0,0,1,.158.148,5.136,5.136,0,0,0,.4.38l.062.055a.591.591,0,0,1,.085.094.572.572,0,0,1,.145.106.507.507,0,0,1-.527.841c-.028-.008-.065-.021-.1-.034l-.048-.017c-.064-.015-.125-.033-.179-.05a.942.942,0,0,0-.2-.047l-.042.007a.887.887,0,0,1-.488-.031h0a.669.669,0,0,1-.132.048.572.572,0,0,1-.175.151A.578.578,0,0,1,24.566,33.774Z" transform="translate(-0.926 -1.12)" fill="#fff"/><path d="M17.586-.028c-.129.017-.59.075-1.011.125A19.583,19.583,0,0,0,9.663,2.391,19.141,19.141,0,0,0,.188,16.258a24.644,24.644,0,0,0,0,5.4,26.474,26.474,0,0,0,.954,3.808A19.227,19.227,0,0,0,12.856,36.942a17.583,17.583,0,0,0,6.185,1.006,17.881,17.881,0,0,0,8.57-2.028,19.119,19.119,0,0,0,6.241-5,20.971,20.971,0,0,0,3.088-5.445,24.2,24.2,0,0,0,.954-3.849,24.764,24.764,0,0,0,0-5.362A19.064,19.064,0,0,0,21.822.13,31.673,31.673,0,0,0,17.586-.028ZM21.749,1.3A17.932,17.932,0,0,1,36.576,15.452l.21,1.023-.663.657c-.671.648-.671.648-.841.49-.291-.274-1-.125-1,.216,0,.066-.1.141-.218.166a27.16,27.16,0,0,0-2.733.765,22.841,22.841,0,0,0-3.25,1.563l-.34.216.113-.291a2.156,2.156,0,0,0,.121-.665c0-.349.024-.382.388-.615,1.682-1.114,1.754-2.586.2-4.148l-.59-.59.21-.7a13.413,13.413,0,0,1,2-4.115l.323-.366-.469-.707a10.608,10.608,0,0,0-6.977-4.689,12.1,12.1,0,0,0-4.891.183c-.873.2-.817.133-.905,1.023a34.07,34.07,0,0,1-.808,3.941,12.2,12.2,0,0,1-1.35,3.068c-.38.657-.42.69-.663.665s-.251-.042-.226-.324a.864.864,0,0,0-.251-.673l-.275-.374.914-.432a6.021,6.021,0,0,0,1.051-.6,1.3,1.3,0,0,0,.178-.607l.032-.449-.631-.058a7.7,7.7,0,0,0-2,.141c-1.31.191-1.366.191-1.674.05a.83.83,0,0,0-.736-.025,2.822,2.822,0,0,1-.833.067,1.408,1.408,0,0,0-.711.083,7.685,7.685,0,0,0-1.6,1.239,5.233,5.233,0,0,0-1.366,2.835c0,.316-.186.64-.792,1.388-.016.025-.194-.141-.38-.357l-.356-.4-.17.607c-.1.332-.21.756-.267.939a3.114,3.114,0,0,1-.113.374c-.016.017-.137-.091-.275-.249-.307-.374-.331-.324-.55.865-.865,4.714.17,8.571,2.878,10.666a11.476,11.476,0,0,0,7.042,2.161c1.463.05,1.471.05,1.471.241s-.04.208-.808.333a10.868,10.868,0,0,0-5.206,2.893l-.453.4-.752-.623A17.828,17.828,0,0,1,3.963,9.358a18.025,18.025,0,0,1,6.629-6.135,18.51,18.51,0,0,1,6.718-2.053A24.81,24.81,0,0,1,21.749,1.3Zm.574,3.492a12.97,12.97,0,0,1,1.6.416,6.82,6.82,0,0,1,1.948.939,3.843,3.843,0,0,1-.372.557,21.453,21.453,0,0,0-1.932,3.117c-.259.524-.477.956-.485.973a4.661,4.661,0,0,1-.542-.183,14.127,14.127,0,0,0-3.363-.765c-.356-.042-.428-.075-.388-.191.016-.075.218-.665.445-1.313a16.814,16.814,0,0,0,.776-3.292l.049-.391h.752A10.414,10.414,0,0,1,22.323,4.794Zm6.888,3.749a1.208,1.208,0,0,1,.218.407,4.315,4.315,0,0,1-.453.8,18.44,18.44,0,0,0-1.762,3.675c-.049.141-.1.116-.453-.241l-.4-.4.2-.532c.493-1.355,2.037-4.024,2.32-4.015A.97.97,0,0,1,29.211,8.543Zm-14.14.989c.2.075.154.266-.089.4-.129.058-.542.208-.93.333a2.051,2.051,0,0,0-.728.316c-.049.141-.275.025-.437-.224-.186-.291-.089-.457.34-.607A4.762,4.762,0,0,1,15.071,9.533Zm-3.695.341A11.044,11.044,0,0,1,13.422,11.9c0,.1-.129.158-.5.233A3.567,3.567,0,0,0,12,12.45l-.412.224-.614-.308a5.888,5.888,0,0,1-1.617-1.089c-.17-.166-.315-.3-.323-.3s.016.366.057.823a2.478,2.478,0,0,1-.4,2.087c-.323.457-.42.665-.315.665a2.524,2.524,0,0,0,.784-.466,2.753,2.753,0,0,0,.526-1.264l.048-.416.437.291a5.534,5.534,0,0,0,.7.4c.234.1.259.15.226.366-.04.308.04.316.711.133a3.747,3.747,0,0,1,.808-.125c.445,0,1.011.308,1.011.54,0,.15-.073.175-.574.216a3.1,3.1,0,0,0-1.374.441c-.437.216-1,.515-1.245.673a1.118,1.118,0,0,1-.9.233c-.59-.058-.76.042-.922.557-.129.4-.137.407-.388.357-.72-.141-2.239-.964-2.239-1.214,0-.191.17-.64.251-.64.032,0,.121.1.186.224l.113.233.049-.208a10.375,10.375,0,0,1,.461-1.771c.59-1.679,1.8-3.126,2.636-3.134a4.233,4.233,0,0,0,.752-.125C11.021,9.707,11.045,9.707,11.377,9.873Zm8.553.64A11.92,11.92,0,0,1,23.584,11.9c1.674.865,1.73,1.006.129.357-.493-.2-.938-.366-.978-.366-.105,0-.291.549-.226.657a1.934,1.934,0,0,0,.663.133,10.848,10.848,0,0,1,2.7.715c.711.274.808.407.194.249a29.223,29.223,0,0,0-6.217-.79,18.455,18.455,0,0,1-4.123-.457l-.485-.166,1.156.017,1.164.025.275-.565c.275-.565.275-.565.623-.565.186,0,.978.075,1.754.166s1.423.15,1.439.133a11.94,11.94,0,0,0-1.924-.524c-.332-.058-1.269-.133-2.078-.166-1.188-.042-1.479-.075-1.479-.166,0-.058.081-.15.186-.191A16.515,16.515,0,0,1,19.93,10.513Zm-4.487,2.793c.469.141.994.291,1.18.332.267.066,2.886.49,3.088.5.032.008-.089.083-.267.183-.509.266-.93.748-.93,1.064,0,.183.348.066.59-.2.687-.757,1.213-.582,2.158.7.493.665.6.757.671.557a4.123,4.123,0,0,0-.914-1.92c-.323-.274-.283-.274,1.188.042a11.631,11.631,0,0,1,2.894.865c1.124.54,1.576,1.031,1.576,1.713,0,.457-.048.49-.72.49a.971.971,0,0,0-.76.233c-.4.316-.526.565-.364.74s.437.1.76-.183c.234-.208.445-.249,1-.216.4.033.7.349.817.881a.91.91,0,0,1-.048.74,2.489,2.489,0,0,1-2.021,1.1c-.857.066-.93.091-.93.324,0,.166.04.208.2.208.42,0,.323.233-.4.923a13.77,13.77,0,0,0-3.468,5.412.253.253,0,0,1-.226.15,3.99,3.99,0,0,1-1.326-.7l-.243-.2.17-.241c.218-.3.364-.324.938-.141.461.141.477.141.59-.017a.684.684,0,0,0,.121-.208,2.31,2.31,0,0,0-.558-.241c-.542-.191-.558-.208-.388-.324A4.216,4.216,0,0,0,20.706,25c.065-.108-.081-.066-.55.175-.631.324-.639.324-1.884.382a4.78,4.78,0,0,1-2.506-.3,5.3,5.3,0,0,1-1.738-1.247l-.291-.357.55-.066a5.281,5.281,0,0,0,1.754-.457c.234-.141.243-.141.889.2a3.742,3.742,0,0,0,2.377.59,2.7,2.7,0,0,0,1.253-.291c1.132-.549,2-1.463,2-2.112,0-.374-.016-.374-.728-.141a2.73,2.73,0,0,1-3.169-1.006c-.679-.715-1.011-.939-1.342-.9-.17.017-.226.075-.243.258s.016.249.243.341a2.98,2.98,0,0,1,.72.69,4.216,4.216,0,0,0,2.781,1.521c.2,0,.364.033.364.075,0,.291-1.213.823-2.037.9a4.428,4.428,0,0,1-2.635-.865l-.428-.283-.34.3a2.2,2.2,0,0,1-1.681.5,1.953,1.953,0,0,1-1.245-.291,4.046,4.046,0,0,1-1.568-1.471c-.154-.316-.218-.607-.137-.607.016,0,.315.141.663.308a2.025,2.025,0,0,0,2.158.025c.574-.291,1.051-.757,1.011-.973-.057-.283-.275-.316-.55-.075a2.42,2.42,0,0,1-1.382.607l-.461.05-.057-.973a13.784,13.784,0,0,1-.008-1.521c.154-1.538.711-3.051,1.213-3.3.485-.233.76-.158,1.512.432.4.316.477.249.275-.274a1.871,1.871,0,0,0-1.011-1.014q-.243-.05-.243-.2c0-.216.17-.574.275-.574C14.554,13.057,14.974,13.174,15.443,13.307Zm9.329.923c2.587.349,4.252,1.38,4.252,2.652a1.8,1.8,0,0,1-.93,1.472c-.194.108-.243.108-.275.017a1.6,1.6,0,0,0-.566-.582c-.089-.033-.073-.108.065-.391.453-.914.016-1.621-1.407-2.3a11.991,11.991,0,0,0-2.466-.831l-.849-.208.768.042C23.786,14.121,24.417,14.18,24.773,14.23ZM12.937,14.7c0,.042-.146.457-.315.939a9.254,9.254,0,0,0-.574,3.591v1.23l-.178-.058a2.943,2.943,0,0,1-1.027-.607l-.259-.249-.073.208a1.145,1.145,0,0,0,.04.889,4.492,4.492,0,0,0,1.609,2.369l.493.374-.3-.05a2.557,2.557,0,0,1-1.415-.84,3.776,3.776,0,0,1-1.269-3.151c0-.7-.024-.973-.1-.973-.243,0-.162-.8.137-1.313a2.707,2.707,0,0,0,.154-.308A1.927,1.927,0,0,0,9.4,16.7c-.428-.025-.469-.042-.493-.233a.605.605,0,0,1,.1-.374c.1-.141.194-.166.7-.141a2.073,2.073,0,0,0,1.318-.341c.412-.2.962-.5,1.229-.665C12.727,14.645,12.937,14.57,12.937,14.7Zm-7.09,1a5,5,0,0,0,2.975,1.264.971.971,0,0,1,.477.066,4.693,4.693,0,0,1-.17.582l-.17.515H8.491a5.211,5.211,0,0,1-2.142-.64,9.081,9.081,0,0,1-1.625-1.039l-.178-.158.162-.64c.226-.948.21-.923.437-.623A4.929,4.929,0,0,0,5.847,15.7ZM36.511,18.2c-.752.349-.825.067-.146-.574l.461-.432.04.407.04.407Zm-1.285.474c.016.05-.251.133-.59.191-1,.158-1.649.665-1.649,1.28,0,.308.3.69.453.582a1.629,1.629,0,0,0,.267-.407,2.049,2.049,0,0,1,1.366-1.23c.242-.05.267-.033.388.258s.113.316-.008.382a2.829,2.829,0,0,0-.857.906,1.442,1.442,0,0,0,.032,1.322c.259.532.348.507.4-.108a2.733,2.733,0,0,1,.186-.806c.154-.316.517-.748.623-.748.137,0,.065.823-.105,1.122a.684.684,0,0,0-.073.69,2.892,2.892,0,0,0,.582,1.147c.154.183.154.191-.162,1.164-.178.549-.493,1.372-.7,1.829-.364.815-.388.848-.671.9a16.825,16.825,0,0,1-3.315-.083c-.7-.1-.865-.108-.914-.017a2.612,2.612,0,0,0,.081,1.48,2.269,2.269,0,0,0,1.649.848l.623.1V29.9a.973.973,0,0,1-.154.624l-.146.191-.057-.183c-.073-.224-.1-.224-.493-.017a1.506,1.506,0,0,1-.542.166c-.251,0-.275.067-.121.283.081.116.194.141.485.125.348-.033.364-.025.234.1a2.473,2.473,0,0,1-1.245.407c-.558,0-.485.466.081.515l.3.033-.218.1a5.74,5.74,0,0,1-3.339-.075,5.553,5.553,0,0,1-3.25-5.262,7.54,7.54,0,0,1,2.854-5.2,16.027,16.027,0,0,1,6.581-2.951C34.749,18.544,35.177,18.519,35.226,18.669Zm1.706.266c-.024.283-.048.316-.307.366-.307.066-.4-.008-.4-.308,0-.125.073-.2.267-.266C36.932,18.586,36.956,18.6,36.932,18.935Zm-32.92.091a6.182,6.182,0,0,1,.178,1.222,10.247,10.247,0,0,0,.3,1.912c1.1,3.965,4.624,6.36,9.362,6.36h.873l-.024.224-.024.233-1.132-.017c-4.576-.05-7.987-2.145-9.289-5.711a11.442,11.442,0,0,1-.59-3.151c-.04-.8-.024-1.006.065-1.064C3.866,18.943,3.9,18.943,4.012,19.026Zm21.966,3.034A8.649,8.649,0,0,0,23.8,26.01a5.769,5.769,0,0,0,1.277,5.528l.542.565-.639-.058L24.352,32l-.34.316-.331.324-1.552-.79c-.857-.432-1.9-.914-2.32-1.072a4.284,4.284,0,0,1-.994-.5A5.57,5.57,0,0,1,17.5,27.456l-.057-.441.76.515a5.875,5.875,0,0,0,2.409,1.156l.372-.008.226-.524a25.148,25.148,0,0,1,2.175-3.641,16.334,16.334,0,0,1,2.9-3.084c.105-.017.226-.042.267-.05A3.7,3.7,0,0,1,25.977,22.061ZM15.8,26.434a4.072,4.072,0,0,0-.267.7,7.67,7.67,0,0,1,1.407,1.056,4.124,4.124,0,0,1-.647.424,3.806,3.806,0,0,0-.606.407.582.582,0,0,0,.17.216,1.5,1.5,0,0,1,.283.382c.113.224.113.233-.113.233s-.558-.283-.736-.648c-.089-.166-.057-.233.331-.648l.428-.465-.243-.175c-.477-.357-.768-.657-.768-.8,0-.3.97-1.638,1.035-1.43A3.4,3.4,0,0,1,15.8,26.434Zm17.365,1.289c.792,0,1.439.025,1.439.042a19.9,19.9,0,0,1-1.124,1.7c-.04.025-.113-.058-.17-.191-.113-.283-.348-.391-.994-.457a2.286,2.286,0,0,1-1.2-.432,1.054,1.054,0,0,1-.2-.773c.024-.042.218-.033.429.008A14.446,14.446,0,0,0,33.164,27.722ZM16.907,30.6a14.6,14.6,0,0,1,5.311,1.92l1.407.748.437-.341a4.8,4.8,0,0,1,.558-.382,1.928,1.928,0,0,1,.744.324,8.924,8.924,0,0,0,2.264,1.1c.1-.033.113-.125.073-.424l-.049-.382.267.05c.137.033.582.075.978.108l.72.05-.768.507a19.07,19.07,0,0,1-3.21,1.671c-.736.291-.768.3-.905.15a2.221,2.221,0,0,1-.307-.607c-.137-.4-.162-.424-.162-.2a2.609,2.609,0,0,0,.113.665c.065.224.121.416.121.424a29.645,29.645,0,0,1-2.951.657,21.907,21.907,0,0,1-5,0,18.87,18.87,0,0,1-5.505-1.721,12.235,12.235,0,0,1-2.142-1.305,16.835,16.835,0,0,1,2-1.463,11.116,11.116,0,0,1,4.026-1.538A6.934,6.934,0,0,1,16.907,30.6Z" transform="translate(-0.002 0.003)" fill="#333"/><path d="M11.088,11.08c-.065.175.542.806,1.067,1.122a2.5,2.5,0,0,0,.469.241,4.084,4.084,0,0,0-.525-.74C11.509,10.955,11.21,10.772,11.088,11.08Z" transform="translate(-0.554 -0.547)" fill="#333"/><path d="M25.8,16.915c-.307.116-.493.233-.509.332-.04.224.2.258.72.1.558-.175.711-.316.558-.5C26.439,16.69,26.391,16.7,25.8,16.915Z" transform="translate(-1.264 -0.837)" fill="#333"/><path d="M15.067,17.143c-.129.233-.113.382.057.532a.328.328,0,0,0,.542-.025.322.322,0,0,0,.073-.4C15.641,16.96,15.2,16.885,15.067,17.143Z" transform="translate(-0.749 -0.849)" fill="#333"/><path d="M20.206,17.293a.473.473,0,0,0,.049.64.413.413,0,0,0,.582-.208c.065-.233-.137-.565-.348-.565A.47.47,0,0,0,20.206,17.293Z" transform="translate(-1.005 -0.858)" fill="#333"/><path d="M26.445,17.661c-.218.091-.372.208-.388.3-.057.274.105.333.525.175.477-.183.614-.3.542-.482S26.914,17.478,26.445,17.661Z" transform="translate(-1.302 -0.876)" fill="#333"/><path d="M16.377,18.86a1.76,1.76,0,0,0-.574,1.23c.032.648.4.939,1.14.865.477-.05.663-.166.663-.4,0-.141-.065-.158-.509-.158a1.243,1.243,0,0,1-.606-.1c-.194-.2-.049-.8.259-1.056a.461.461,0,0,0,.129-.308C16.878,18.7,16.708,18.677,16.377,18.86Z" transform="translate(-0.79 -0.937)" fill="#333"/><path d="M5.1,16.793a.306.306,0,0,0,.17.465.311.311,0,0,0,.3-.524A.288.288,0,0,0,5.1,16.793Z" transform="translate(-0.253 -0.832)" fill="#333"/><path d="M29.055,24.683a.789.789,0,0,0-.21.349c-.049.15-.146.283-.218.3-.154.033-.178-.158-.057-.407.065-.125.057-.175-.032-.208-.186-.075-.453.125-.5.366-.032.183-.162.291-.574.507a1.411,1.411,0,0,0-.93,1.314c.008.723.243,1.131.736,1.272.461.133.493.175.542.856l.057.64h-.243a1.315,1.315,0,0,1-.865-.565c-.089-.116-.178-.166-.226-.116a2.577,2.577,0,0,0,.218,1.314,1.272,1.272,0,0,0,.994.366c.2,0,.283.042.331.2.129.349.574.357.509.008-.048-.274.113-.266.364.008.226.249.477.233.453-.033-.016-.158.016-.183.243-.183.315,0,.55-.224.744-.682a1.762,1.762,0,0,0-.105-1.488,1.425,1.425,0,0,0-.728-.723c-.542-.308-.574-.366-.453-1.114l.048-.308.4.208a1.4,1.4,0,0,1,.493.366c.178.283.226.183.218-.441-.016-.939-.049-1-.55-1.081-.412-.075-.428-.083-.38-.291.1-.407.089-.465-.032-.49A.332.332,0,0,0,29.055,24.683Zm-.461,2.137c-.057.557-.057.557-.226.5-.234-.1-.129-.973.121-.973C28.618,26.345,28.634,26.4,28.594,26.819Zm-.857.125c-.024.166-.032.175-.089.042a.584.584,0,0,1,0-.374c.057-.208.065-.216.089-.042A.972.972,0,0,1,27.737,26.944Zm.873,1.746c.016.058.04.308.065.54.032.416.024.441-.154.441s-.194-.042-.194-.283a3.949,3.949,0,0,0-.048-.54c-.049-.224-.032-.258.121-.258A.247.247,0,0,1,28.61,28.69Zm.817.357a.352.352,0,0,1,.048.416c-.162.366-.34.258-.34-.208S29.225,28.731,29.427,29.047Z" transform="translate(-1.325 -1.231)" fill="#333"/><path d="M36.283,27.531a1.561,1.561,0,0,1-.162.49c-.129.2-.089.283.129.283.307,0,.55-.923.267-1.031a1.292,1.292,0,0,0-.154-.05A1.518,1.518,0,0,0,36.283,27.531Z" transform="translate(-1.802 -1.361)" fill="#333"/><path d="M32.063,31.65a3.661,3.661,0,0,1-.914.249c-.38.042-.429.067-.429.241,0,.133.057.2.226.233a2.751,2.751,0,0,0,1.391-.283c.267-.141.323-.208.323-.416C32.661,31.384,32.677,31.384,32.063,31.65Z" transform="translate(-1.536 -1.573)" fill="#333"/><path d="M29.093,32.7c-.234.291.3.6,1.075.607.517.008.792-.108.792-.341,0-.183-.024-.191-.7-.191a2.641,2.641,0,0,1-.881-.108C29.23,32.589,29.181,32.589,29.093,32.7Z" transform="translate(-1.452 -1.631)" fill="#333"/><path d="M22.547,30.578c-.226.291.089.773.388.582.283-.183.178-.7-.146-.7A.4.4,0,0,0,22.547,30.578Z" transform="translate(-1.124 -1.523)" fill="#333"/><path d="M23.585,31.7a.361.361,0,0,0,.032.515c.178.191.331.166.477-.066.105-.158.113-.241.04-.374A.356.356,0,0,0,23.585,31.7Z" transform="translate(-1.175 -1.58)" fill="#333"/><path d="M24.59,32.678c-.226.291.089.773.388.582.283-.183.178-.7-.145-.7A.4.4,0,0,0,24.59,32.678Z" transform="translate(-1.226 -1.628)" fill="#333"/></g><path d="M53.4,12.24h3.95a8.613,8.613,0,0,1,1.881.188,3.918,3.918,0,0,1,1.436.616,2.866,2.866,0,0,1,.923,1.094,3.641,3.641,0,0,1,.325,1.607,3.475,3.475,0,0,1-.376,1.693,3.1,3.1,0,0,1-1.026,1.111,4.475,4.475,0,0,1-1.488.6,8.42,8.42,0,0,1-1.813.188H55.559v5.01H53.4Zm3.659,5.284a7.135,7.135,0,0,0,1.009-.068,3.136,3.136,0,0,0,.855-.274,1.631,1.631,0,0,0,.6-.547,1.606,1.606,0,0,0,.222-.889,1.444,1.444,0,0,0-.821-1.385,2.325,2.325,0,0,0-.838-.239,6.529,6.529,0,0,0-.958-.068H55.559v3.471Zm9.555-5.284h1.864L73.7,24.347H71.236l-1.129-2.77h-5.25l-1.094,2.77H61.352Zm2.736,7.49L67.491,14.8l-1.9,4.925ZM76.8,19.1,72.253,12.24h2.633l3.044,5.1,3.078-5.1h2.5L78.956,19.1v5.25H76.8Zm7.713-6.857h3.95a8.613,8.613,0,0,1,1.881.188,3.918,3.918,0,0,1,1.436.616,2.866,2.866,0,0,1,.923,1.094,3.641,3.641,0,0,1,.325,1.607,3.475,3.475,0,0,1-.376,1.693,3.1,3.1,0,0,1-1.026,1.111,4.475,4.475,0,0,1-1.488.6,8.42,8.42,0,0,1-1.813.188H86.669v5.01H84.515Zm3.659,5.284a7.135,7.135,0,0,0,1.009-.068,3.136,3.136,0,0,0,.855-.274,1.631,1.631,0,0,0,.6-.547,1.606,1.606,0,0,0,.222-.889,1.444,1.444,0,0,0-.821-1.385,2.325,2.325,0,0,0-.838-.239,6.529,6.529,0,0,0-.958-.068H86.669v3.471Zm9.555-5.284h1.864l5.215,12.107h-2.462l-1.129-2.77h-5.25l-1.094,2.77H92.462Zm2.736,7.49L98.6,14.8,96.7,19.73Zm5.541-7.49h2.155V22.431h5.147v1.915h-7.3ZM116.2,19.1l-4.549-6.857h2.633l3.044,5.1,3.078-5.1h2.5L118.35,19.1v5.25H116.2Zm15.967-4.019a2.7,2.7,0,0,0-1.248-.941,4.036,4.036,0,0,0-1.5-.308,4.165,4.165,0,0,0-1.71.342,4.1,4.1,0,0,0-1.334.941,4.371,4.371,0,0,0-.855,1.4,5.091,5.091,0,0,0-.291,1.744,5.4,5.4,0,0,0,.291,1.813,4.257,4.257,0,0,0,.821,1.419,3.87,3.87,0,0,0,1.3.906,4.23,4.23,0,0,0,1.693.325,3.812,3.812,0,0,0,1.727-.376,3.455,3.455,0,0,0,1.214-1.026l1.727,1.214a5.62,5.62,0,0,1-1.967,1.573,6.325,6.325,0,0,1-2.719.547,7.211,7.211,0,0,1-2.616-.462,6.2,6.2,0,0,1-2.035-1.317,6.109,6.109,0,0,1-1.334-2.018,6.851,6.851,0,0,1-.479-2.6,6.608,6.608,0,0,1,.5-2.616,5.986,5.986,0,0,1,1.385-2,6.244,6.244,0,0,1,2.086-1.265,7.408,7.408,0,0,1,2.6-.445,6.533,6.533,0,0,1,1.214.12,6.2,6.2,0,0,1,2.309.906,3.522,3.522,0,0,1,.872.821Zm3.168-2.839h2.155V17.13h5.66V12.24H145.3V24.347h-2.155V18.977h-5.66v5.369H135.33Z" transform="translate(-2.67 -0.597)" fill="#333"/></svg>