<svg xmlns="http://www.w3.org/2000/svg" width="195.518" height="84.416" viewBox="0 0 195.518 84.416"><g transform="translate(0.644 0)"><g opacity="0.75"><path d="M-7957.194,1477.916a1.793,1.793,0,0,1-.716-.144,1.918,1.918,0,0,1-.608-.426,2.11,2.11,0,0,1-.416-.672,2.433,2.433,0,0,1-.154-.885,2.547,2.547,0,0,1,.15-.889,2.073,2.073,0,0,1,.423-.694,1.774,1.774,0,0,1,.63-.451,1.984,1.984,0,0,1,.792-.157,1.9,1.9,0,0,1,.544.076,1.978,1.978,0,0,1,.347.144l.083-.138h.432l.031,1.656h-.477l-.024-.109a2.692,2.692,0,0,0-.126-.416,1.623,1.623,0,0,0-.185-.367.869.869,0,0,0-.268-.25.677.677,0,0,0-.348-.088.931.931,0,0,0-.419.1.964.964,0,0,0-.343.3,1.607,1.607,0,0,0-.227.513,2.961,2.961,0,0,0-.085.726,2.231,2.231,0,0,0,.087.637,1.613,1.613,0,0,0,.25.5,1.175,1.175,0,0,0,.365.325,1.015,1.015,0,0,0,.472.111,1,1,0,0,0,.35-.06.961.961,0,0,0,.28-.158,1.509,1.509,0,0,0,.213-.244,1.326,1.326,0,0,0,.152-.3l.055-.146.458.221-.048.124a1.814,1.814,0,0,1-.676.887A1.823,1.823,0,0,1-7957.194,1477.916Zm-35.119,0a1.826,1.826,0,0,1-.72-.144,1.944,1.944,0,0,1-.6-.426,2.115,2.115,0,0,1-.416-.672,2.434,2.434,0,0,1-.154-.885,2.551,2.551,0,0,1,.15-.889,2.087,2.087,0,0,1,.42-.694,1.8,1.8,0,0,1,.633-.451,2.005,2.005,0,0,1,.791-.157,1.874,1.874,0,0,1,.542.076,1.994,1.994,0,0,1,.349.144l.083-.138h.433l.03,1.656h-.479l-.022-.109a3.033,3.033,0,0,0-.126-.416,1.623,1.623,0,0,0-.185-.367.912.912,0,0,0-.268-.25.682.682,0,0,0-.35-.088.924.924,0,0,0-.417.1.956.956,0,0,0-.343.3,1.561,1.561,0,0,0-.228.513,2.889,2.889,0,0,0-.085.726,2.266,2.266,0,0,0,.087.637,1.569,1.569,0,0,0,.248.5,1.23,1.23,0,0,0,.365.325,1.031,1.031,0,0,0,.474.109,1.028,1.028,0,0,0,.351-.059.869.869,0,0,0,.276-.158,1.371,1.371,0,0,0,.219-.244,1.51,1.51,0,0,0,.15-.3l.055-.146.458.221-.049.124a1.863,1.863,0,0,1-.674.887A1.834,1.834,0,0,1-7992.313,1477.916Zm-9.7,0a1.174,1.174,0,0,1-.814-.284.994.994,0,0,1-.322-.775.723.723,0,0,1,.118-.4.457.457,0,0,1,.4-.207.5.5,0,0,1,.357.13.453.453,0,0,1,.145.341.559.559,0,0,1-.047.229.888.888,0,0,1-.089.177c-.019.029-.038.059-.059.092l-.033.052a.307.307,0,0,0-.017.03l0,.005,0,.009-.007.013a.633.633,0,0,0,.087.061.516.516,0,0,0,.237.049.47.47,0,0,0,.264-.067.366.366,0,0,0,.14-.181,1.162,1.162,0,0,0,.077-.312,3.71,3.71,0,0,0,.024-.447v-2.046a.212.212,0,0,0-.018-.1s-.011-.023-.065-.051a.645.645,0,0,0-.172-.053,1.544,1.544,0,0,0-.193-.028l-.13-.006v-.465h1.98v.471h-.134a1.243,1.243,0,0,0-.17.02,1.4,1.4,0,0,0-.168.039c-.037.015-.041.028-.042.032a.244.244,0,0,0-.022.112v2.289a1.257,1.257,0,0,1-.079.43,1.223,1.223,0,0,1-.24.4,1.293,1.293,0,0,1-.426.323A1.344,1.344,0,0,1-8002.015,1477.916Zm-4.217,0a1.927,1.927,0,0,1-.8-.162,1.9,1.9,0,0,1-.636-.453,2.042,2.042,0,0,1-.409-.688,2.379,2.379,0,0,1-.15-.856,2.409,2.409,0,0,1,.156-.891,2.064,2.064,0,0,1,.432-.684,1.954,1.954,0,0,1,.644-.442,2.006,2.006,0,0,1,.77-.152,1.993,1.993,0,0,1,.775.156,1.834,1.834,0,0,1,.632.438,2.014,2.014,0,0,1,.431.69,2.515,2.515,0,0,1,.152.885,2.428,2.428,0,0,1-.156.887,1.962,1.962,0,0,1-.44.688,1.9,1.9,0,0,1-.633.432A1.94,1.94,0,0,1-8006.232,1477.916Zm0-3.805a.86.86,0,0,0-.479.126.976.976,0,0,0-.327.353,1.736,1.736,0,0,0-.189.517,3.212,3.212,0,0,0-.063.649,3.157,3.157,0,0,0,.067.678,1.671,1.671,0,0,0,.2.517,1.021,1.021,0,0,0,.325.329.9.9,0,0,0,.455.115.916.916,0,0,0,.462-.119.885.885,0,0,0,.333-.333,1.59,1.59,0,0,0,.207-.52,3.175,3.175,0,0,0,.065-.668,3.115,3.115,0,0,0-.073-.7,1.665,1.665,0,0,0-.211-.522.926.926,0,0,0-.327-.317A.881.881,0,0,0-8006.232,1474.111Zm34.267,3.791a1.838,1.838,0,0,1-.558-.085,1.982,1.982,0,0,1-.353-.142l-.089.152h-.433l-.046-1.6h.469l.028.1a2.956,2.956,0,0,0,.152.42,1.392,1.392,0,0,0,.219.337,1.006,1.006,0,0,0,.286.223.9.9,0,0,0,.388.08.837.837,0,0,0,.273-.042.454.454,0,0,0,.175-.105.429.429,0,0,0,.1-.158.745.745,0,0,0,.035-.235.618.618,0,0,0-.109-.353.662.662,0,0,0-.325-.254c-.066-.027-.138-.054-.215-.083l-.007,0-.029-.011-.15-.057c-.161-.062-.293-.113-.4-.164a1.4,1.4,0,0,1-.56-.428,1.144,1.144,0,0,1-.211-.706,1.119,1.119,0,0,1,.1-.471,1.238,1.238,0,0,1,.289-.384,1.255,1.255,0,0,1,.418-.25,1.5,1.5,0,0,1,.514-.089,1.432,1.432,0,0,1,.513.091,2.618,2.618,0,0,1,.286.132l.081-.136h.434l.026,1.561h-.471l-.024-.1c-.033-.116-.078-.267-.134-.41a1.441,1.441,0,0,0-.174-.333.811.811,0,0,0-.242-.211.682.682,0,0,0-.321-.078.551.551,0,0,0-.373.13.4.4,0,0,0-.136.3.562.562,0,0,0,.091.335.717.717,0,0,0,.286.225,3.488,3.488,0,0,0,.379.158c.142.054.267.1.38.152a2.83,2.83,0,0,1,.329.17,1.169,1.169,0,0,1,.292.233h0l0,0a1.043,1.043,0,0,1,.206.343,1.2,1.2,0,0,1,.069.424,1.22,1.22,0,0,1-.426.95A1.525,1.525,0,0,1-7971.965,1477.9Zm-4.244,0a1.842,1.842,0,0,1-.558-.085,2.282,2.282,0,0,1-.355-.142l-.087.152h-.432l-.046-1.6h.469l.028.1a2.721,2.721,0,0,0,.152.422,1.427,1.427,0,0,0,.219.337,1,1,0,0,0,.288.223.9.9,0,0,0,.387.08.836.836,0,0,0,.272-.042.455.455,0,0,0,.175-.1.426.426,0,0,0,.1-.16.73.73,0,0,0,.033-.233.632.632,0,0,0-.106-.355.667.667,0,0,0-.327-.254l-.15-.059-.017-.006-.007,0c-.063-.024-.13-.05-.2-.078-.184-.067-.317-.121-.431-.172a1.407,1.407,0,0,1-.56-.428,1.135,1.135,0,0,1-.211-.706,1.119,1.119,0,0,1,.1-.471,1.211,1.211,0,0,1,.29-.384,1.3,1.3,0,0,1,.416-.25,1.5,1.5,0,0,1,.513-.089,1.436,1.436,0,0,1,.514.091,2.652,2.652,0,0,1,.286.132l.082-.136h.432l.028,1.561h-.469l-.026-.1c-.038-.133-.082-.271-.132-.41a1.367,1.367,0,0,0-.179-.333.725.725,0,0,0-.239-.211.673.673,0,0,0-.319-.078.564.564,0,0,0-.377.13.392.392,0,0,0-.132.3.577.577,0,0,0,.089.335.746.746,0,0,0,.286.225,3.9,3.9,0,0,0,.377.158c.135.05.263.1.381.152a3.21,3.21,0,0,1,.331.17,1.186,1.186,0,0,1,.291.233,1.073,1.073,0,0,1,.212.345,1.3,1.3,0,0,1,.065.424,1.222,1.222,0,0,1-.426.952A1.509,1.509,0,0,1-7976.208,1477.9Zm15.4-.039h-.444l-2.133-2.878v1.569a2.365,2.365,0,0,0,.039.483.347.347,0,0,0,.087.185.515.515,0,0,0,.2.081,1.2,1.2,0,0,0,.229.047l.132,0v.471h-1.863v-.465l.132-.01a1,1,0,0,0,.221-.045,1,1,0,0,0,.163-.06.253.253,0,0,0,.083-.155,2.425,2.425,0,0,0,.032-.505v-1.9a.654.654,0,0,0-.036-.207.313.313,0,0,0-.077-.132.779.779,0,0,0-.221-.128.779.779,0,0,0-.229-.063l-.134,0v-.467h1.315l1.962,2.66v-1.412a2.255,2.255,0,0,0-.041-.487c-.029-.125-.064-.155-.071-.16a.861.861,0,0,0-.205-.079,1.178,1.178,0,0,0-.233-.051l-.13,0v-.467h1.849v.471h-.136a1.046,1.046,0,0,0-.2.043.868.868,0,0,0-.179.061l-.008,0a.341.341,0,0,0-.069.169,2.917,2.917,0,0,0-.033.467v2.968Zm-50.485-.038h-1.912v-.465l.128-.01c.058,0,.119-.008.187-.016a.464.464,0,0,0,.125-.022c.041-.019.052-.036.055-.045a.189.189,0,0,0,.022-.108v-2.792a.363.363,0,0,0-.02-.122s-.007-.013-.045-.028a1,1,0,0,0-.152-.039,1.5,1.5,0,0,0-.17-.026l-.13-.006v-.465h1.924a2.155,2.155,0,0,1,.491.055,1.35,1.35,0,0,1,.433.181.933.933,0,0,1,.317.333.986.986,0,0,1,.118.493,1.221,1.221,0,0,1-.077.447.949.949,0,0,1-.235.345,1.328,1.328,0,0,1-.327.227l-.023.011c-.069.032-.127.058-.191.083.133.173.245.322.343.454l.02.027c.1.141.222.307.372.508l.016.022.073.1a1.328,1.328,0,0,0,.191.215.929.929,0,0,0,.17.112.475.475,0,0,0,.134.043,1.083,1.083,0,0,0,.159.016l.138,0v.47h-1.256l-.043-.065c-.243-.382-.44-.678-.621-.932s-.362-.5-.561-.757h-.187v1.088a.318.318,0,0,0,.021.114.079.079,0,0,0,.048.034.721.721,0,0,0,.138.028,1.5,1.5,0,0,0,.193.014l.136,0v.471Zm-.536-3.641v1.374h.219a.727.727,0,0,0,.528-.2.738.738,0,0,0,.207-.554.618.618,0,0,0-.16-.457.625.625,0,0,0-.471-.164Zm60.937,3.641h-3.474v-.467l.132-.008c.049,0,.121-.008.207-.018a.575.575,0,0,0,.134-.026.14.14,0,0,0,.059-.045.232.232,0,0,0,.018-.1v-2.778a.277.277,0,0,0-.018-.1.14.14,0,0,0-.057-.043.76.76,0,0,0-.168-.051.984.984,0,0,0-.176-.032l-.13-.006v-.465h3.267v1.212h-.449l-.028-.106a1.2,1.2,0,0,0-.211-.39c-.126-.16-.212-.195-.251-.2s-.118-.012-.191-.014-.166-.006-.262-.006h-.467v1.256h.3a.828.828,0,0,0,.255-.028.324.324,0,0,0,.112-.089.6.6,0,0,0,.079-.168,1.193,1.193,0,0,0,.049-.223l.014-.122h.469v1.794h-.473l-.012-.128a.981.981,0,0,0-.051-.246.6.6,0,0,0-.075-.168.26.26,0,0,0-.124-.093.952.952,0,0,0-.243-.024h-.3v1.017a1.2,1.2,0,0,0,.021.241.1.1,0,0,0,.042.073.286.286,0,0,0,.125.043,2.773,2.773,0,0,0,.335.014h.237c.084,0,.162,0,.231-.01a1.205,1.205,0,0,0,.193-.039.265.265,0,0,0,.089-.035,1.783,1.783,0,0,0,.242-.367,2.187,2.187,0,0,0,.164-.369l.033-.1h.446l-.093,1.418Zm-14.845,0h-3.476v-.467l.128-.008c.051,0,.119-.008.209-.018a.924.924,0,0,0,.137-.026.152.152,0,0,0,.058-.045l0-.01a.318.318,0,0,0,.013-.091v-2.778a.322.322,0,0,0-.016-.1.178.178,0,0,0-.057-.043.889.889,0,0,0-.168-.051,1.013,1.013,0,0,0-.179-.032l-.128-.006v-.465h3.265v1.212h-.448l-.031-.106a1.137,1.137,0,0,0-.209-.39c-.126-.16-.212-.195-.251-.2-.058-.006-.117-.012-.191-.014s-.163-.006-.26-.006h-.469v1.256h.3a.772.772,0,0,0,.256-.028.3.3,0,0,0,.111-.089.548.548,0,0,0,.079-.168,1.025,1.025,0,0,0,.051-.223l.014-.122h.467v1.794h-.471l-.01-.128a.976.976,0,0,0-.055-.246.562.562,0,0,0-.074-.166.251.251,0,0,0-.123-.1.956.956,0,0,0-.246-.024h-.3v1.017a1.035,1.035,0,0,0,.022.241.1.1,0,0,0,.042.073.268.268,0,0,0,.126.043,2.727,2.727,0,0,0,.331.014h.238c.088,0,.168,0,.233-.01a1.2,1.2,0,0,0,.195-.039.239.239,0,0,0,.087-.035,1.664,1.664,0,0,0,.242-.367,2.03,2.03,0,0,0,.164-.369l.033-.1h.446l-.089,1.418Zm-13.247,0h-3.479v-.467l.134-.008c.051,0,.124-.009.2-.018a.7.7,0,0,0,.136-.026.137.137,0,0,0,.059-.045.23.23,0,0,0,.019-.1v-2.778a.235.235,0,0,0-.021-.1c0-.011-.023-.026-.055-.043a.829.829,0,0,0-.168-.051,1.068,1.068,0,0,0-.179-.032l-.13-.006v-.465h3.27v1.212h-.451l-.028-.106a1.214,1.214,0,0,0-.209-.39c-.128-.16-.214-.195-.254-.2-.056-.006-.119-.012-.19-.014s-.164-.006-.26-.006h-.467v1.256h.3a.766.766,0,0,0,.254-.028.266.266,0,0,0,.109-.089.492.492,0,0,0,.082-.168.891.891,0,0,0,.048-.221l.014-.124h.469v1.794h-.473l-.01-.128a.923.923,0,0,0-.051-.246.523.523,0,0,0-.077-.166.252.252,0,0,0-.122-.1.953.953,0,0,0-.244-.024h-.3v1.017a1.208,1.208,0,0,0,.018.241.117.117,0,0,0,.045.075.312.312,0,0,0,.125.041,2.8,2.8,0,0,0,.333.014h.237c.085,0,.164,0,.233-.01a1.242,1.242,0,0,0,.195-.039.212.212,0,0,0,.088-.036,1.766,1.766,0,0,0,.241-.365,2.965,2.965,0,0,0,.167-.367l.03-.1h.447l-.091,1.418Zm-7.823,0h-2.1v-.465l.132-.01c.049,0,.122-.008.228-.018a.627.627,0,0,0,.177-.031.14.14,0,0,0,.069-.051.2.2,0,0,0,.02-.1v-2.979h-.018c-.045,0-.1,0-.165.006l-.042,0a2,2,0,0,0-.227.016.2.2,0,0,0-.1.067,1.353,1.353,0,0,0-.163.2,1.66,1.66,0,0,0-.132.239,2.007,2.007,0,0,0-.081.2l-.026.1h-.437v-1.327h3.645v1.327h-.434l-.026-.105a1.214,1.214,0,0,0-.079-.207,2.168,2.168,0,0,0-.132-.238,1.312,1.312,0,0,0-.161-.2.23.23,0,0,0-.113-.069c-.052-.007-.13-.011-.2-.014l-.082,0h-.019c-.044,0-.086,0-.126,0h-.021v2.955a.234.234,0,0,0,.024.1c0,.006.014.026.063.047a1.483,1.483,0,0,0,.181.047,1.212,1.212,0,0,0,.217.028l.136,0v.47Zm-8.659,0h-3.476v-.467l.13-.008c.051,0,.119-.008.209-.018a.608.608,0,0,0,.136-.026.138.138,0,0,0,.059-.045.223.223,0,0,0,.018-.1v-2.778a.236.236,0,0,0-.02-.1c0-.01-.023-.025-.057-.043a.883.883,0,0,0-.166-.051,1.068,1.068,0,0,0-.179-.032l-.13-.006v-.465h3.269v1.212h-.452l-.024-.106a1.179,1.179,0,0,0-.213-.39c-.126-.16-.212-.195-.251-.2-.057-.006-.119-.012-.191-.014s-.163-.006-.26-.006h-.469v1.256h.3a.713.713,0,0,0,.252-.028.267.267,0,0,0,.111-.089.467.467,0,0,0,.079-.168,1.008,1.008,0,0,0,.053-.221l.012-.124h.469v1.794h-.473l-.01-.128a.943.943,0,0,0-.053-.246.459.459,0,0,0-.075-.166.257.257,0,0,0-.122-.1.958.958,0,0,0-.244-.024h-.3v1.017a1.193,1.193,0,0,0,.021.241.115.115,0,0,0,.044.075.308.308,0,0,0,.126.041,2.784,2.784,0,0,0,.333.014h.233c.09,0,.167,0,.238-.01a1.139,1.139,0,0,0,.19-.039c.073-.018.089-.034.089-.036a1.535,1.535,0,0,0,.242-.365,2.646,2.646,0,0,0,.167-.367l.03-.1h.446l-.091,1.418Zm-20.317,0h-1.938v-.465l.13-.01c.061,0,.121-.008.185-.016a.759.759,0,0,0,.129-.022c.037-.018.049-.035.053-.045a.221.221,0,0,0,.021-.108v-2.79a.3.3,0,0,0-.021-.12c0-.018-.032-.03-.044-.032a1.071,1.071,0,0,0-.177-.045c-.056-.01-.105-.015-.145-.019l-.019,0-.132-.006v-.465h1.906a1.542,1.542,0,0,1,.962.29.967.967,0,0,1,.39.8,1.316,1.316,0,0,1-.134.6,1.187,1.187,0,0,1-.372.432,1.536,1.536,0,0,1-.5.248,2.089,2.089,0,0,1-.566.075h-.292v1.031a.241.241,0,0,0,.02.109.09.09,0,0,0,.051.039.713.713,0,0,0,.142.028,1.585,1.585,0,0,0,.209.014l.14,0v.472Zm-.562-3.641v1.429h.14a.922.922,0,0,0,.416-.079.511.511,0,0,0,.222-.178.593.593,0,0,0,.1-.221,1.031,1.031,0,0,0,.026-.225,1.271,1.271,0,0,0-.032-.284.567.567,0,0,0-.1-.227.494.494,0,0,0-.2-.156.789.789,0,0,0-.327-.057Zm-5.768,3.641h-2.086v-.465l.132-.01c.074,0,.147-.008.225-.016a.878.878,0,0,0,.17-.03.139.139,0,0,0,.065-.049.254.254,0,0,0,.021-.11v-.937l0-.006,0-.005c0-.015-.015-.044-.036-.092-.03-.065-.067-.139-.124-.248-.1-.191-.212-.409-.361-.684-.127-.237-.244-.448-.345-.627a1.317,1.317,0,0,0-.141-.209.683.683,0,0,0-.135-.118.35.35,0,0,0-.107-.041.769.769,0,0,0-.145-.026l-.13-.006v-.465h1.926v.471h-.134a1.467,1.467,0,0,0-.349.032c0,.011.01.022.015.032l.005.011.008.017c.022.046.051.1.081.154l.091.179c.106.2.187.348.262.481l.046.084c.054.1.116.21.187.334.206-.336.387-.636.521-.869a1.817,1.817,0,0,0,.207-.4l-.009,0a.1.1,0,0,1-.029-.007l-.031-.01a.787.787,0,0,0-.142-.024l-.3-.026v-.461h1.619v.467l-.132,0a.517.517,0,0,0-.107.032.338.338,0,0,0-.108.047.949.949,0,0,0-.134.091,1.712,1.712,0,0,0-.125.164,6.969,6.969,0,0,0-.384.595c-.12.2-.268.458-.451.779a1.729,1.729,0,0,0-.122.252,1.041,1.041,0,0,0-.026.27v.737a.2.2,0,0,0,.022.1.141.141,0,0,0,.069.053,1.233,1.233,0,0,0,.177.047,1.085,1.085,0,0,0,.211.028l.136,0v.47Zm-5.414,0h-1.971v-.465l.128-.01a1.707,1.707,0,0,0,.183-.018.478.478,0,0,0,.14-.032.151.151,0,0,0,.059-.043.244.244,0,0,0,.016-.1v-2.778a.308.308,0,0,0-.019-.108.121.121,0,0,0-.057-.043.616.616,0,0,0-.152-.053.828.828,0,0,0-.15-.026l-.128-.006v-.465h1.924a1.868,1.868,0,0,1,.426.047,1.332,1.332,0,0,1,.4.158.958.958,0,0,1,.31.3.876.876,0,0,1,.124.473.97.97,0,0,1-.087.422.9.9,0,0,1-.241.321,1.574,1.574,0,0,1-.272.183,1.371,1.371,0,0,1,.361.181,1.058,1.058,0,0,1,.32.343,1.02,1.02,0,0,1,.132.521,1.035,1.035,0,0,1-.138.54,1.161,1.161,0,0,1-.345.371,1.55,1.55,0,0,1-.455.209A1.861,1.861,0,0,1-8027.53,1477.825Zm-.584-1.928v1.228a.145.145,0,0,0,.071.138.576.576,0,0,0,.315.069.662.662,0,0,0,.517-.193.878.878,0,0,0,.179-.6.607.607,0,0,0-.188-.465.768.768,0,0,0-.56-.183c-.116,0-.215,0-.289.008Zm.3-1.727c-.047,0-.1,0-.17.006l-.044,0h-.085v1.212h.205a.949.949,0,0,0,.335-.051.486.486,0,0,0,.2-.128.608.608,0,0,0,.111-.207,1.2,1.2,0,0,0,.033-.292.558.558,0,0,0-.134-.4A.614.614,0,0,0-8027.814,1474.17Zm93.069,1.861H-7947v-.615h12.086c3.144,0,10.425-.219,10.5-.221A53.7,53.7,0,0,1-7934.745,1476.031Zm-97.58,0h-12.257a53.7,53.7,0,0,1-10.327-.836c.039,0,7.3.221,10.5.221h12.086v.614Zm79.3-7.833a7.884,7.884,0,0,1-6.376-2.839,8.419,8.419,0,0,1-1.92-5.528,8.551,8.551,0,0,1,1.083-4.29,7.85,7.85,0,0,1,3.073-3.009,8.863,8.863,0,0,1,4.353-1.1,7.739,7.739,0,0,1,4.022,1.071,8.126,8.126,0,0,1,2.983,2.989,8.508,8.508,0,0,1,1.043,4.251,8.357,8.357,0,0,1-2.33,6.1A8.014,8.014,0,0,1-7953.025,1468.2Zm.209-15.126a5.338,5.338,0,0,0-2.928.779,5.5,5.5,0,0,0-1.964,2.3,8.678,8.678,0,0,0-.745,3.793,8.251,8.251,0,0,0,.734,3.653,5.529,5.529,0,0,0,1.95,2.267,5.027,5.027,0,0,0,2.748.783,4.8,4.8,0,0,0,2.679-.765,5.651,5.651,0,0,0,1.934-2.429,8.792,8.792,0,0,0,.777-3.724,9.221,9.221,0,0,0-.777-3.811,4.8,4.8,0,0,0-1.729-2.153A4.851,4.851,0,0,0-7952.816,1453.071Zm14.842,14.858h-5.769v-.191a2.468,2.468,0,0,0,1.905-1.932,4.734,4.734,0,0,0,.089-1.045v-10.017a7.833,7.833,0,0,0-.037-1.1.179.179,0,0,0-.022-.05l0,0a.25.25,0,0,1-.012-.024,1.787,1.787,0,0,0-1.761-1.473.663.663,0,0,0-.105.011l-.055.008v-.412h4.909a.474.474,0,0,1,.4.227l6.723,11.086c0-.067-.021-4.953-.032-7.578,0-.979-.007-1.625-.007-1.641a1.8,1.8,0,0,0-1.794-1.794.773.773,0,0,0-.1.008h-.005l-.044.005v-.315h5.7v.369l-.028,0a.221.221,0,0,0-.039,0,1.851,1.851,0,0,0-1.892,1.753c0,.05.03,13.823.031,13.9v.21h-1.413a.507.507,0,0,1-.432-.244l-8.192-13.46v10.536a4.672,4.672,0,0,0,.093,1.181,2.484,2.484,0,0,0,1.889,1.8v.185Zm-32.879,0h-6.467v-.375l.03,0,.033,0a1.9,1.9,0,0,0,1.885-1.619c0-.008,0-.015.008-.022a.254.254,0,0,0,.014-.049,10.964,10.964,0,0,0,.035-1.106v-10.343a4.163,4.163,0,0,0-.026-.505v-.01a1.994,1.994,0,0,0-1.979-1.989v-.213h8.365a10.024,10.024,0,0,1,3.592.5,4.2,4.2,0,0,1,1.922,1.467,3.787,3.787,0,0,1,.68,2.232,4.137,4.137,0,0,1-.659,2.307,4.447,4.447,0,0,1-1.885,1.583,7.377,7.377,0,0,1-2.776.58l3.913,4.769c.352.435.563.682.646.757l.021.021.018.018a7.285,7.285,0,0,0,2.13,1.663v.33h-3.342a.954.954,0,0,1-.759-.371l-5.625-7.176h-1.719v4.661a4.484,4.484,0,0,0,.049.956.618.618,0,0,0,.026.073,1.868,1.868,0,0,0,1.824,1.485l.025,0,.024,0v.375Zm-1.948-14.571v5.528h3.048a9,9,0,0,0,2.269-.195,2.6,2.6,0,0,0,1.392-.925,2.767,2.767,0,0,0,.507-1.717,2.835,2.835,0,0,0-.365-1.5,2.275,2.275,0,0,0-1-.893,4.83,4.83,0,0,0-1.956-.3Zm-17.061,14.571h-6.514v-.4l.042.005a.512.512,0,0,0,.073.007,1.779,1.779,0,0,0,1.713-1.283.136.136,0,0,1,.015-.021.124.124,0,0,0,.02-.03,2.237,2.237,0,0,0,.109-.873v-10.887c0-.158,0-.3-.014-.438,0-.02,0-.04.006-.059l0-.014v-.007a.875.875,0,0,0,.007-.1,1.8,1.8,0,0,0-1.794-1.8.843.843,0,0,0-.119.011l-.061.008v-.357h6.514v.357l-.052-.007a.874.874,0,0,0-.125-.012,1.8,1.8,0,0,0-1.792,1.8c0,.007,0,.014,0,.021s0,.012,0,.018c-.018.192-.026.411-.026.668v4.2h7.772v-4.085a5.136,5.136,0,0,0-.051-1.009,1.793,1.793,0,0,0-1.771-1.571.851.851,0,0,0-.114.01l-.047.006v-.39h6.472v.384h0a.235.235,0,0,1-.034,0h-.005a.232.232,0,0,0-.038,0,1.786,1.786,0,0,0-1.741,1.378.067.067,0,0,1-.008.013.054.054,0,0,0-.008.013,2.738,2.738,0,0,0-.091.97v10.763a3.119,3.119,0,0,0,.1,1.053.461.461,0,0,0,.063.087,1.786,1.786,0,0,0,1.69,1.213.31.31,0,0,0,.045,0l.034,0v.368h-6.472v-.379l.041,0,.018,0a.889.889,0,0,0,.1.008,1.787,1.787,0,0,0,1.686-1.207.308.308,0,0,0,.079-.134,4.716,4.716,0,0,0,.057-1.13v-4.71h-7.772v4.832a3.059,3.059,0,0,0,.1,1.055.3.3,0,0,0,.063.077l.015.014a1.806,1.806,0,0,0,1.672,1.153.7.7,0,0,0,.09-.008l.054-.006v.43Zm-32.231,0h-6.472v-.373h.039a1.905,1.905,0,0,0,1.845-1.437.955.955,0,0,0,.091-.254c.006-.029.021-.2.031-1.106v-10.343a2.946,2.946,0,0,0-.085-.818,1.977,1.977,0,0,0-1.92-1.682v-.217h8.367a10.028,10.028,0,0,1,3.592.5,4.192,4.192,0,0,1,1.924,1.467,3.817,3.817,0,0,1,.678,2.232,4.147,4.147,0,0,1-.658,2.307,4.434,4.434,0,0,1-1.887,1.583,7.346,7.346,0,0,1-2.774.58l3.913,4.769a9.855,9.855,0,0,0,.643.757l.019.014a.124.124,0,0,1,.021.016,3.786,3.786,0,0,0,2.127,1.557v.445h-3.913l-.063-.083-5.749-7.464h-1.719v4.661a4.723,4.723,0,0,0,.047.956.405.405,0,0,0,.017.044c.005.012.009.021.012.029a1.865,1.865,0,0,0,1.824,1.485l.024,0,.027,0v.375Zm-1.95-14.571v5.528h3.05a8.966,8.966,0,0,0,2.267-.195,2.605,2.605,0,0,0,1.394-.925,2.777,2.777,0,0,0,.507-1.717,2.83,2.83,0,0,0-.367-1.5,2.263,2.263,0,0,0-.995-.893,4.851,4.851,0,0,0-1.958-.3Zm-16.563,14.571h-5.144v-.31a3.539,3.539,0,0,0,1.672-1.837c.109-.227.23-.515.357-.856l4.933-13.087.051-.138h2.145l.053.138,4.919,13.217a5.966,5.966,0,0,0,.335.767,3.558,3.558,0,0,0,1.65,1.792v.313h-6.045v-.122a1.6,1.6,0,0,0,1.528-1.54.381.381,0,0,0,.046-.181,4.888,4.888,0,0,0-.306-1.1l-1-2.918h-5.431l-1.183,3.283a2.411,2.411,0,0,0-.18.666.486.486,0,0,0,.026.158.051.051,0,0,1,0,.012.112.112,0,0,0,0,.012,1.6,1.6,0,0,0,1.573,1.609v.118Zm2.47-13.358h0l-2.151,5.968H-8036l-2.133-5.968Zm-19.561,13.358h-1.828c-.024-.077-3.767-11.885-4.785-14.976-.494-.166-.884-.3-.958-.319a.2.2,0,0,0-.057-.008.2.2,0,0,0-.153.074.2.2,0,0,0-.04.166l.065.306s-.044-.06-.113-.156c-.245-.345-.819-1.151-1.3-1.861-.625-.924-1.4-2.3-1.413-2.309a16.581,16.581,0,0,0,2.744,1.619,20.3,20.3,0,0,0,3.879,1.169l.013,0c.292.065.485.108.546.133a16.931,16.931,0,0,1,1.633,2.465l.009.015a5.051,5.051,0,0,1,.239.847c-.006,0-.291-.208-.783-.53a3.856,3.856,0,0,0-.686-.39l-.607-.2c.044.118.082.228.113.327l3.05,9.9,1.855-5.28a11.076,11.076,0,0,0,.615-4.3l2.242-1.49-.032,1.49,0,.079a11.033,11.033,0,0,0,.818,4.04l2.244,5.506,3.077-9.95a3.076,3.076,0,0,0,.156-.787.415.415,0,0,0-.021-.152,1.8,1.8,0,0,0-1.11-1.66h4.692v.207a3.516,3.516,0,0,0-1.524,1.7,4.733,4.733,0,0,0-.311.822l-4.411,13.5h-1.236l-2.61-6.415-.8,2.894-.792-2.894-2.427,6.415Zm143.146,0h-11.871v-.248c.018,0,.036,0,.054.006a.512.512,0,0,0,.068.006c.938,0,1.883-.767,1.883-2.48v-10.887c0-1.568-.932-2.389-1.853-2.389a.637.637,0,0,0-.089.008l-.063.008v-.254h7.519l.276-.061a20.52,20.52,0,0,0,3.9-1.174,16.51,16.51,0,0,0,2.742-1.619.106.106,0,0,1-.01.03,15.6,15.6,0,0,1-1.254,2.606,9.321,9.321,0,0,1-1.562,1.69l.066-.306a.2.2,0,0,0-.042-.167.2.2,0,0,0-.151-.073.2.2,0,0,0-.056.008c-.109.032-.961.315-4.4,1.481l-.181.062a3.7,3.7,0,0,0-.69.39c-.428.28-.7.476-.777.529l0,0a.19.19,0,0,1,.007-.038,3.707,3.707,0,0,1,.235-.81c.034-.063.246-.426.521-.873h-.047l-.05,0h-1.524v5.368h1.7a4.569,4.569,0,0,0,.657-.047,2.39,2.39,0,0,0,.246.012,2.319,2.319,0,0,0,2.076-1.278v4.278a2.33,2.33,0,0,0-2.139-1.4h-.006a7.124,7.124,0,0,0-.834-.041h-1.7v4.927a3.128,3.128,0,0,0,.059.895.262.262,0,0,0,.136.148,2.916,2.916,0,0,0,.842.057h2.372a7.963,7.963,0,0,0,3.022-.459l.108-.046a6.616,6.616,0,0,0,1.978-1.117l-1.167,3.254Zm-86.692,0h-6.516v-.361l.018,0a.469.469,0,0,0,.07.007,1.792,1.792,0,0,0,1.759-1.453,2.885,2.885,0,0,0,.128-1.033v-11.2a2.125,2.125,0,0,0-.035-.546.133.133,0,0,0-.085-.069,1.4,1.4,0,0,0-.5-.047,6.586,6.586,0,0,0-4.273,1.484,5.664,5.664,0,0,0-1.315,1.507l-.195-.069.069-.2,1.631-4.647.017-.043a1.763,1.763,0,0,0,1.161.434.392.392,0,0,0,.054-.005l.041,0v.01h9.353l0-.012c.022,0,.044,0,.066.006a.707.707,0,0,0,.082.006,1.757,1.757,0,0,0,1.134-.414l.008.022,1.666,4.645.073.2-.2.071c-.026-.03-2.6-2.991-5.416-2.991a3.126,3.126,0,0,0-.707.036.089.089,0,0,0-.057.057,3.254,3.254,0,0,0-.039.716v10.969a3.81,3.81,0,0,0,.077.99.786.786,0,0,0,.105.221,1.79,1.79,0,0,0,1.721,1.321.426.426,0,0,0,.06-.005l.042,0v.395Zm76.826-19.084h0a25.472,25.472,0,0,0,.906-5.224s0-.35-.01-.891l-.061,0-.024-6.873h-.01l.011,0-.053-15.362h-3.074a3.075,3.075,0,0,0-2.208.749,2,2,0,0,0-.557,1.483l.016,1.936c0-.041-.461-4.2-3.819-5.984l18.276-.14c3-.022,7.351-.865,9.869-2.433l1.116-.7-3.858,6.817c-.011-.018-1.12-1.82-2.762-1.82-.458.044-1.092.1-1.516.1l-2.062,0h-.4l-1.857,0a1.089,1.089,0,0,0-1.087,1.088v10.287l.006,0v1.725c0,.077,0,.229,0,.442v.178c0,.22,0,.487.006.791v.181l.01,0v1.106c.026,3.119.069,7.774.069,7.774h.012l0-.01a6.208,6.208,0,0,1,.684-1.086c3.189-3.99,2.4-12.528,2.395-12.614a.019.019,0,0,1,.014-.02,48.716,48.716,0,0,0,8.5-3.89c5.748-3.31,9.988-7.354,12.263-11.695a2.918,2.918,0,0,1,.305-.486,29.241,29.241,0,0,1-1.045,4.934c-.747,2.492-2.146,5.924-4.577,8.122a.038.038,0,0,1-.017,0h-.005l-1.14-.211a.03.03,0,0,0-.019,0l-2.171,1.354c-.005,0-.008,0-.008.008-.016.057-.168.7-.284,1.254a.048.048,0,0,1-.012.014,28.723,28.723,0,0,1-7.677,3.066,27.381,27.381,0,0,0,8.1-2.433,35,35,0,0,0,10.158-6.469.584.584,0,0,0-.009.058l0,.015c0,.014,0,.029-.007.043-.022.058-2.284,5.784-5.493,8.4a.023.023,0,0,1-.017.007h-.006l-1.027-.343h-.005l-.011,0-2.339,1.042c-.008,0-.011,0-.012.008-.023.053-.212.552-.381,1.007a.023.023,0,0,1-.016.014,35.141,35.141,0,0,1-8.718,1.362,30.155,30.155,0,0,0,3.635.195,34.363,34.363,0,0,0,11.676-1.958l-.026.036a12.213,12.213,0,0,1-6.1,4.391l-.007,0h-.013l-.664-.444a.02.02,0,0,0-.012,0h-.005l-2.437.367a.025.025,0,0,0-.013.006l-.019.028c-.081.112-.327.455-.512.735,0,.008-.009.01-.021.01l-.148,0c-1.525,0-5.81-.6-5.853-.607,1.749.957,4.747,1.158,6.954,1.158a42.485,42.485,0,0,0,4.256-.217.024.024,0,0,1,.024.015.022.022,0,0,1-.006.024,10,10,0,0,1-4.438,2.324h-.006a.018.018,0,0,1-.015-.007l-.491-.44a.024.024,0,0,0-.017-.006l-2.22.012c-.006,0-.008,0-.012,0-.036.033-.338.34-.609.617a.027.027,0,0,1-.015.009,10.608,10.608,0,0,1-4.459-1.125c-.106.033-1.1.412-2.942,3.436l-.1.17-.047.08c-.082.14-.178.3-.275.464-.021.037-.042.074-.064.11l-.007.013-.009.016c-.03.052-.061.1-.092.16-.212.383-.493.831-.858,1.37-2.458,1.531-8.343,2.388-8.4,2.4Zm-129.16-.235h0c-.059-.008-5.945-.866-8.4-2.4-.356-.523-.637-.971-.858-1.37-.027-.046-.052-.089-.077-.131l-.021-.036-.075-.129c-.149-.248-.29-.481-.422-.718-1.9-3.116-2.928-3.429-2.938-3.432l-.009,0a10.862,10.862,0,0,1-4.452,1.119.032.032,0,0,1-.022-.008c-.284-.294-.573-.586-.6-.617,0,0-.006,0-.012,0l-2.22-.012a.022.022,0,0,0-.016.006l-.492.44a.019.019,0,0,1-.016.007h-.006a10,10,0,0,1-4.438-2.322.026.026,0,0,1,0-.028.022.022,0,0,1,.021-.013c.484.051,2.222.216,4.263.216,2.206,0,5.2-.2,6.951-1.157,0,0-.04.007-.1.015-1.312.178-4.5.592-5.757.592l-.149,0c-.008,0-.014,0-.016-.012-.131-.2-.3-.433-.41-.588l0,0c-.065-.091-.107-.151-.118-.168a.015.015,0,0,0-.008,0l-2.443-.369h0a.024.024,0,0,0-.015,0l-.664.444a.051.051,0,0,1-.016,0h-.008a12.253,12.253,0,0,1-6.1-4.393l-.024-.037a34.313,34.313,0,0,0,11.67,1.959,30.065,30.065,0,0,0,3.639-.2,34.935,34.935,0,0,1-8.716-1.36.024.024,0,0,1-.016-.014c-.1-.272-.21-.557-.282-.745l-.011-.03-.035-.092c-.029-.076-.048-.126-.053-.141s-.006-.008-.012-.008l-2.338-1.041-.012,0-1.035.344h0a.024.024,0,0,1-.019-.006c-3.215-2.614-5.475-8.342-5.5-8.4-.006-.039-.01-.079-.014-.116a35.031,35.031,0,0,0,10.159,6.47,27.374,27.374,0,0,0,8.1,2.433h-.012a29.16,29.16,0,0,1-7.665-3.066.021.021,0,0,1-.012-.014c-.116-.547-.27-1.2-.282-1.254a.009.009,0,0,0-.007-.007l-2.178-1.355a.019.019,0,0,0-.014,0l-1.143.211h-.005a.034.034,0,0,1-.017,0c-2.428-2.2-3.828-5.63-4.575-8.123a30.63,30.63,0,0,1-1.048-4.93h0a2.234,2.234,0,0,1,.3.484c2.276,4.341,6.517,8.385,12.264,11.695a48.7,48.7,0,0,0,8.5,3.89c.012,0,.014.008.014.018-.076.889-.656,8.8,2.4,12.616a6.084,6.084,0,0,1,.68,1.088l0,.01h.013c0-.089.09-9.647.09-10.47v-6.608c0-1.577-.014-3.22-.041-4.885a2.49,2.49,0,0,0-1.8-2.386l-3.093-.893-.01-.008-2.275-3.456a.026.026,0,0,1,0-.025.024.024,0,0,1,.021-.012.027.027,0,0,1,.015,0,31.063,31.063,0,0,0,5.462,1.861,53.509,53.509,0,0,0,5.632,1.408l4,.223c4.078,0,7.087.772,8.945,2.3a7.466,7.466,0,0,1,2.8,6.039,8.577,8.577,0,0,1-1.159,4.357,7.959,7.959,0,0,1-3.809,3.18,18.021,18.021,0,0,1-7.155,1.175h-1.494a.021.021,0,0,0-.022.02c0,1.242-.08,7.7-.081,7.752a25.558,25.558,0,0,0,.909,5.222Zm-.761-28.82a.024.024,0,0,0-.026.024c-.027,1.967-.041,3.935-.041,5.849v8.71a.023.023,0,0,0,.022.024h1.747a7.794,7.794,0,0,0,3.43-.653,4.122,4.122,0,0,0,1.977-2.252,12.026,12.026,0,0,0,.655-4.418,11.282,11.282,0,0,0-.7-4.4,4.237,4.237,0,0,0-2.082-2.23,8.125,8.125,0,0,0-3.452-.653Zm72.148,26.631h-5.883a5.246,5.246,0,0,1-1.745-.3l.012-.006a5.231,5.231,0,0,1-3.493-4.763v-.739c0-.047,0-.1-.01-.161v-.022c-.062-.72-.1-2.559-.111-2.92v-.008l7.742-4.487-1.406,2.989a3.894,3.894,0,0,0-.294.978c1.136-.925,2.2-1.936,2.24-1.978a.251.251,0,0,1-.022.049c-.311.619-1.151,2.257-2.229,4.09v3.405a2.573,2.573,0,0,0,2.57,2.571c.085,0,.171,0,.255-.012a2.65,2.65,0,0,0,2.32-2.671v-19.043a5.96,5.96,0,0,1,.988-3.292l.063-.095.011-.018.016-.024c.039-.059.079-.119.119-.176a2.3,2.3,0,0,1,1.926-1.033h6.076l-1.666.587a2.381,2.381,0,0,0-1.585,2.236v18.956A5.9,5.9,0,0,1-7982.191,1446.419Zm-45.538-.031-12.794,0,1.544-.609a2.781,2.781,0,0,0,1.759-2.555v-.075c.028-1.613.042-3.256.042-4.883v-11.533c0-1.629-.014-3.271-.042-4.883a2.886,2.886,0,0,0-1.979-2.742l-1.625-.542h12.084c3.266,0,5.821.631,7.6,1.875a6.056,6.056,0,0,1,2.675,5.24,6.192,6.192,0,0,1-1.451,3.746,9.094,9.094,0,0,1-4.442,2.9l4.3,8.576a11.944,11.944,0,0,0,5.67,5.479l-5.091,0a5.659,5.659,0,0,1-3.021-.872,5.655,5.655,0,0,1-2.09-2.349l-2.541-5.317,0,.057c0-.007-.071-.179-.195-.462l-1.3-2.715c-.653-1.221-1.168-1.914-1.532-2.058l1.871-4.235c.229,1.017.43,2.171.6,3.432a4.247,4.247,0,0,0,1.977-1.348,6.7,6.7,0,0,0,1.388-4.629,6.827,6.827,0,0,0-1.325-4.609,3.91,3.91,0,0,0-3.158-1.494h-2.4c0,1.161-.007,2.287-.021,3.346-.015,1.176-.022,2.464-.022,3.829v11.681c0,1.591.015,3.106.043,4.5a2.764,2.764,0,0,0,1.773,2.583l1.7.656Zm88.187,0h-4.369a7.739,7.739,0,0,1-7.732-7.728V1426.3a7.74,7.74,0,0,1,7.732-7.73h4.369a7.7,7.7,0,0,1,5.068,1.9,7.738,7.738,0,0,1,2.568,4.7c-1.2.295-6.218,3.991-6.269,4.028l.887-2.023-4.1,3.387a.227.227,0,0,1,.02-.042c.348-.694,1.6-3.149,3.138-5.6a2.219,2.219,0,0,0,.341-1.171,3.847,3.847,0,0,0-3.844-3.841l-.118,0a3.952,3.952,0,0,0-3.724,4v17.3a3.85,3.85,0,0,0,3.849,3.843l.114,0a3.958,3.958,0,0,0,3.722-4V1438.2l.014.005a23.435,23.435,0,0,1,5.328,3.72,7.764,7.764,0,0,1-2.8,3.221A7.673,7.673,0,0,1-7939.542,1446.387Zm-10.652,0h-23.629l2.748-.775a2.781,2.781,0,0,0,2.019-2.553v-21.07a3.069,3.069,0,0,0-1.745-2.62l-1.348-.645h22.183c-2.216.752-3.416,2.9-3.993,3.936-.173.31-.288.515-.344.515-.03,0-.044-.057-.045-.18a3.045,3.045,0,0,0-3.038-3.02h-5.644c-.026,1.749-.041,3.545-.041,5.337v5.061a13.3,13.3,0,0,1,5.08-.827c.453,0,.756.014.812.017l-1.178,5.327-.412-1.214c-.469-1.38-1.788-2.051-4.034-2.051-.087,0-.177,0-.268,0v6.305c0,1.481.006,2.782.018,3.868.015,1.209.022,2.3.022,3.33h5l3.2-.077-2.027-.846a21.89,21.89,0,0,1,2.975-6.63,17.327,17.327,0,0,0,.46,3.563c.419,1.752,1.318,4.084,3.216,5.242Zm-53.231,0h-4.369a7.738,7.738,0,0,1-7.731-7.728V1426.3a7.739,7.739,0,0,1,7.731-7.73h4.369a7.739,7.739,0,0,1,7.73,7.73v12.363A7.738,7.738,0,0,1-8003.426,1446.387Zm-6.027-12.286v7.109a3.846,3.846,0,0,0,3.839,3.844,3.849,3.849,0,0,0,3.846-3.844v-17.464a3.848,3.848,0,0,0-3.846-3.842,3.845,3.845,0,0,0-3.839,3.842v6.244a15.531,15.531,0,0,1,2.6,5.607,8.2,8.2,0,0,0-2.6-1.5Zm75.478-23.505c-.6,0-1.2-.011-1.8-.033h-40.182c.1-.212.189-.432.274-.656h2.726l5.143,0,17.832-.009h3.53l10.055,0h.458c.578.022,1.335.033,2.252.033,3.432,0,8.057-.155,8.1-.157A39.28,39.28,0,0,1-7933.975,1410.6Zm-112.771,0a39.282,39.282,0,0,1-8.389-.83h0c.032,0,4.629.157,8.1.157.917,0,1.675-.011,2.252-.033.031.021,8.695.031,25.753.031l16.716,0c.081.212.172.429.271.646h-42.905C-8045.543,1410.585-8046.15,1410.6-8046.746,1410.6Z" transform="translate(8085.999 -1394)" fill="#fff"/><path d="M-7957.194,1478.416a2.291,2.291,0,0,1-.915-.185l-.005,0a2.412,2.412,0,0,1-.766-.537,2.609,2.609,0,0,1-.519-.833,2.932,2.932,0,0,1-.189-1.069,3.046,3.046,0,0,1,.181-1.063,2.573,2.573,0,0,1,.523-.858,2.268,2.268,0,0,1,.8-.572,2.484,2.484,0,0,1,.989-.2,2.4,2.4,0,0,1,.683.1l.008-.014h1.206l.049,2.656h-.843l1.148.554-.219.56a2.3,2.3,0,0,1-.872,1.122A2.314,2.314,0,0,1-7957.194,1478.416Zm-.023-1.637a.586.586,0,0,0,.4.021l.009,0a.453.453,0,0,0,.124-.069,1.015,1.015,0,0,0,.126-.148.815.815,0,0,0,.092-.184l0-.009.207-.552h-.283l-.113-.508a2.165,2.165,0,0,0-.1-.338l0-.009a1.127,1.127,0,0,0-.124-.251.37.37,0,0,0-.112-.106.2.2,0,0,0-.094-.019.432.432,0,0,0-.189.047.471.471,0,0,0-.165.149,1.111,1.111,0,0,0-.151.351,2.441,2.441,0,0,0-.069.6,1.741,1.741,0,0,0,.066.494,1.108,1.108,0,0,0,.17.345A.686.686,0,0,0-7957.217,1476.78Zm-35.1,1.637a2.322,2.322,0,0,1-.916-.184l-.011,0a2.441,2.441,0,0,1-.76-.536l0,0a2.61,2.61,0,0,1-.516-.829,2.931,2.931,0,0,1-.189-1.069,3.046,3.046,0,0,1,.182-1.063,2.592,2.592,0,0,1,.521-.86,2.3,2.3,0,0,1,.8-.57,2.52,2.52,0,0,1,.988-.2,2.387,2.387,0,0,1,.683.1l.008-.014h1.206l.049,2.656h-.842l1.149.554-.223.563a2.342,2.342,0,0,1-.865,1.116l0,0A2.324,2.324,0,0,1-7992.313,1478.416Zm-.025-1.637a.61.61,0,0,0,.411.02.381.381,0,0,0,.123-.068.845.845,0,0,0,.132-.147.984.984,0,0,0,.093-.192l0,0,.208-.551h-.3l-.1-.511a2.537,2.537,0,0,0-.1-.342,1.135,1.135,0,0,0-.123-.249.407.407,0,0,0-.12-.112.2.2,0,0,0-.091-.016.422.422,0,0,0-.187.047.461.461,0,0,0-.166.151l0,0a1.1,1.1,0,0,0-.148.347,2.39,2.39,0,0,0-.068.6,1.761,1.761,0,0,0,.067.5,1.055,1.055,0,0,0,.167.342A.727.727,0,0,0-7992.338,1476.78Zm-9.677,1.637a1.68,1.68,0,0,1-1.149-.413,1.493,1.493,0,0,1-.487-1.146,1.216,1.216,0,0,1,.2-.678l0-.005a.961.961,0,0,1,.81-.428,1.024,1.024,0,0,1,.571.164v-1.26l-.578-.027v-1.442h2.98v1.471h-.538v1.992a1.741,1.741,0,0,1-.108.6,1.708,1.708,0,0,1-.333.564,1.786,1.786,0,0,1-.589.447l0,0A1.841,1.841,0,0,1-8002.015,1478.416Zm-4.217,0a2.423,2.423,0,0,1-1.006-.207,2.386,2.386,0,0,1-.8-.57,2.533,2.533,0,0,1-.509-.849,2.868,2.868,0,0,1-.183-1.033,2.907,2.907,0,0,1,.191-1.075,2.564,2.564,0,0,1,.536-.845,2.454,2.454,0,0,1,.81-.557,2.506,2.506,0,0,1,.964-.191,2.5,2.5,0,0,1,.971.2,2.325,2.325,0,0,1,.8.555,2.507,2.507,0,0,1,.535.857,3.014,3.014,0,0,1,.185,1.061,2.924,2.924,0,0,1-.19,1.069,2.459,2.459,0,0,1-.549.856,2.4,2.4,0,0,1-.8.543A2.433,2.433,0,0,1-8006.232,1478.416Zm-.205-1.564a.417.417,0,0,0,.2.044.425.425,0,0,0,.207-.049l.008-.005a.388.388,0,0,0,.146-.148l.012-.019a1.1,1.1,0,0,0,.14-.357,2.694,2.694,0,0,0,.053-.561,2.612,2.612,0,0,0-.06-.581,1.2,1.2,0,0,0-.143-.365l0-.007a.431.431,0,0,0-.154-.15.381.381,0,0,0-.2-.043.387.387,0,0,0-.205.044.485.485,0,0,0-.165.18l0,0a1.243,1.243,0,0,0-.132.369,2.7,2.7,0,0,0-.053.548,2.652,2.652,0,0,0,.055.57,1.172,1.172,0,0,0,.139.36A.528.528,0,0,0-8006.437,1476.853Zm34.472,1.549a2.337,2.337,0,0,1-.7-.1l-.018.03h-1.2l-.075-2.6h.39a1.654,1.654,0,0,1-.264-.939,1.615,1.615,0,0,1,.149-.68l0-.007a1.728,1.728,0,0,1,.4-.536,1.752,1.752,0,0,1,.583-.35,2,2,0,0,1,.686-.12,1.979,1.979,0,0,1,.595.09v0h1.21l.043,2.561h-.062a1.38,1.38,0,0,1,.118.252,1.706,1.706,0,0,1,.1.593,1.723,1.723,0,0,1-.595,1.324A2.014,2.014,0,0,1-7971.965,1478.4Zm-.1-1.54a.444.444,0,0,0,.162.026.463.463,0,0,0,.078-.006c0-.01,0-.021,0-.035a.12.12,0,0,0-.023-.072l-.005-.008c-.007-.011-.023-.035-.09-.062s-.126-.049-.2-.075l-.074-.028-.124-.047a.926.926,0,0,0,.133.2A.5.5,0,0,0-7972.063,1476.862Zm-4.146,1.54a2.339,2.339,0,0,1-.694-.1l-.017.029h-1.208l-.075-2.6h.389a1.648,1.648,0,0,1-.263-.939,1.615,1.615,0,0,1,.149-.68,1.7,1.7,0,0,1,.406-.543l0,0a1.785,1.785,0,0,1,.576-.346,2.055,2.055,0,0,1,1.283-.03l0,0h1.207l.046,2.561h-.063a1.46,1.46,0,0,1,.12.251l0,.007a1.8,1.8,0,0,1,.092.587,1.726,1.726,0,0,1-.594,1.326A2,2,0,0,1-7976.208,1478.4Zm-.1-1.541a.442.442,0,0,0,.161.026.463.463,0,0,0,.076-.006c0-.009,0-.02,0-.033a.132.132,0,0,0-.023-.079.167.167,0,0,0-.092-.064l-.007,0-.122-.048-.065-.025-.179-.07-.023-.009a.934.934,0,0,0,.136.2A.487.487,0,0,0-7976.305,1476.861Zm15.5,1.5h-.7l-.693-.935v.9h-2.863V1476.9l.606-.047.019,0c0-.06.006-.144.006-.262v-1.9l-.023-.01a.638.638,0,0,0-.078-.027l-.6-.019v-1.451h2.067l.53.718v-.718h2.849v1.471h-.607l-.012,0c-.006.073-.009.154-.009.24v3.468Zm-1.991-1.513.178.006-.264-.356v.054a2.716,2.716,0,0,0,.012.28Zm-48.495,1.475h-2.412V1476.9l.518-.042v-2.21l-.518-.024v-1.442h2.424a2.652,2.652,0,0,1,.6.067,1.845,1.845,0,0,1,.589.245,1.422,1.422,0,0,1,.485.509,1.475,1.475,0,0,1,.183.739,1.715,1.715,0,0,1-.112.629,1.44,1.44,0,0,1-.354.523,1.568,1.568,0,0,1-.141.121l.024.032c.1.138.223.307.364.5l0,.005.087.119a.869.869,0,0,0,.109.127.418.418,0,0,0,.066.044h0c.055.008.072.009.074.009h.015l.623.019v1.454l-2.024,0-.107-.161v.161Zm60.4,0h-3.974v-1.437l.55-.034v-2.205l-.55-.026v-1.442h4.267v2.212h-.584v.514h.919l-.127,1.934v.484Zm-14.845,0h-3.976v-1.436l.548-.035v-2.206l-.548-.026v-1.441h4.265v2.212h-.584v.514h.917l-.122,1.933v.484Zm-13.247,0h-3.979v-1.437l.552-.034v-2.205l-.552-.026v-1.442h4.27v2.212h-.586v.514h.92l-.125,1.934v.484Zm-7.823,0h-2.6V1476.9l.613-.047h.012v-1.612l-.069.27h-1.325v-2.327h4.645v2.327h-1.324l-.068-.271v1.613l.621.019v1.455Zm-8.659,0h-3.976v-1.436l.552-.035v-2.205l-.552-.026v-1.442h4.269v2.212h-.586v.514h.918l-.125,1.934v.484Zm-20.317,0h-2.438V1476.9l.518-.041v-2.209l-.538-.025v-1.442h2.406a2.028,2.028,0,0,1,1.266.393,1.464,1.464,0,0,1,.585,1.2,1.808,1.808,0,0,1-.187.824,1.689,1.689,0,0,1-.523.611,2.035,2.035,0,0,1-.651.323h0a2.525,2.525,0,0,1-.494.086v.23l.562.008v1.464Zm-6.33,0h-2.586V1476.9l.612-.047h0v-.549c-.025-.054-.059-.119-.108-.214l0-.005c-.094-.184-.207-.4-.355-.672-.124-.231-.238-.438-.339-.616a1.346,1.346,0,0,0-.078-.123l-.01-.012,0,0a.252.252,0,0,0-.041-.007l-.593-.028v-1.442h4.976v1.451l-.556.017-.015.005-.024.008h0l-.038.024c-.019.024-.039.051-.06.082l-.007.009c-.129.181-.246.361-.356.552l0,.005c-.12.2-.266.455-.446.772a1.434,1.434,0,0,0-.077.152,1,1,0,0,0-.006.123v.468l.615.019v1.455Zm-5.414,0H-8030V1476.9l.526-.042v-2.21l-.505-.024v-1.441h2.424a2.378,2.378,0,0,1,.534.058,1.829,1.829,0,0,1,.547.215l.007,0a1.452,1.452,0,0,1,.471.461l0,0a1.364,1.364,0,0,1,.2.739,1.463,1.463,0,0,1-.133.63,1.367,1.367,0,0,1-.125.223,1.6,1.6,0,0,1,.269.34,1.516,1.516,0,0,1,.2.777,1.53,1.53,0,0,1-.208.8,1.659,1.659,0,0,1-.492.527,2.049,2.049,0,0,1-.6.278A2.361,2.361,0,0,1-8027.53,1478.325Zm92.785-1.794H-7947.5v-1.615h12.586c3.14,0,10.41-.219,10.483-.221l.112.99A54.192,54.192,0,0,1-7934.745,1476.531Zm-97.58,0h-12.257a54.178,54.178,0,0,1-10.424-.846l.1-.99.185.005c2.227.065,7.689.216,10.309.216h12.586v1.614Zm79.3-7.833a8.363,8.363,0,0,1-6.761-3.02,8.906,8.906,0,0,1-2.035-5.847,9.047,9.047,0,0,1,1.149-4.537,8.343,8.343,0,0,1,3.264-3.2,9.356,9.356,0,0,1,4.6-1.165,8.229,8.229,0,0,1,4.278,1.142,8.618,8.618,0,0,1,3.162,3.172,9,9,0,0,1,1.108,4.5,8.84,8.84,0,0,1-2.473,6.447A8.5,8.5,0,0,1-7953.025,1468.7Zm.213-16.768a8.366,8.366,0,0,0-4.11,1.039,7.357,7.357,0,0,0-2.88,2.818,8.058,8.058,0,0,0-1.019,4.044,7.933,7.933,0,0,0,1.8,5.209,7.406,7.406,0,0,0,5.991,2.658,7.531,7.531,0,0,0,5.576-2.211,7.873,7.873,0,0,0,2.186-5.745,8.016,8.016,0,0,0-.978-4,7.63,7.63,0,0,0-2.8-2.806A7.247,7.247,0,0,0-7952.812,1451.93Zm14.838,16.5h-6.269v-1.1l.4-.084a1.969,1.969,0,0,0,1.52-1.541l0-.019a4.172,4.172,0,0,0,.075-.928v-10.017c0-.617-.014-.866-.022-.957l-.008-.017-.024-.055-.011-.06a1.287,1.287,0,0,0-1.269-1.061l-.028,0-.076.011-.556.062V1451.2h5.409a.976.976,0,0,1,.829.467l5.789,9.545c0-1.105-.012-2.89-.024-5.774,0-.975-.007-1.624-.007-1.643a1.3,1.3,0,0,0-1.294-1.294l-.032,0h-.007l-.062.007-.546.05V1451.2h6.7v1.412l-.542-.045-.051-.006a1.343,1.343,0,0,0-1.366,1.253c0,.174.03,13.814.031,13.9v.711l-.707,0h-1.206a1,1,0,0,1-.857-.48l-7.268-11.941v8.753a5.7,5.7,0,0,0,.063,1h0l.014.053a1.98,1.98,0,0,0,1.506,1.437l.4.082v1.092Zm-4.191-1h2.6a2.976,2.976,0,0,1-.783-1.362h0a5.907,5.907,0,0,1-.109-1.306v-12.319l9.12,14.984,0,0h.913c0-1.986-.03-13.537-.03-13.614a2.191,2.191,0,0,1,.742-1.615h-2.186a2.285,2.285,0,0,1,.646,1.594c0,.023,0,.667.007,1.639.02,4.952.031,7.5.032,7.574l.02,1.826-.947-1.561-6.715-11.073h-3.178a2.282,2.282,0,0,1,.685,1.2.619.619,0,0,1,.046.128l0,.016a6.754,6.754,0,0,1,.047,1.2v10.017a5.171,5.171,0,0,1-.1,1.152A2.969,2.969,0,0,1-7942.166,1467.428Zm-28.687,1h-6.967v-1.409l.575.038a1.4,1.4,0,0,0,1.379-1.195l.006-.04.013-.038c0-.007,0-.014.007-.021.005-.064.017-.286.025-1.006v-10.34a3.634,3.634,0,0,0-.022-.443l0-.031v-.041a1.493,1.493,0,0,0-1.481-1.489l-.5,0v-1.21h8.865a10.488,10.488,0,0,1,3.78.536,4.692,4.692,0,0,1,2.143,1.643,4.274,4.274,0,0,1,.771,2.519,4.628,4.628,0,0,1-.741,2.581,4.939,4.939,0,0,1-2.091,1.762,6.832,6.832,0,0,1-2,.545l3.311,4.035c.46.568.572.683.6.7s.024.023.043.042l.016.016a7.143,7.143,0,0,0,1.942,1.543l.331.119v1.179l-.708,0h-3.134a1.45,1.45,0,0,1-1.154-.565l-5.474-6.982h-.976v4.161a6.294,6.294,0,0,0,.03.821l0,.005.021.047.011.055a1.366,1.366,0,0,0,1.314,1.086.633.633,0,0,1,.069,0h.5v1.375Zm-2.448-8.548h2.462l.15.192,5.625,7.176a.452.452,0,0,0,.365.18h2.118a13.9,13.9,0,0,1-1.261-1.142l-.026-.027,0,0a8.954,8.954,0,0,1-.694-.809l-4.545-5.54,1-.043a6.892,6.892,0,0,0,2.586-.534,3.954,3.954,0,0,0,1.678-1.4,3.646,3.646,0,0,0,.578-2.034,3.3,3.3,0,0,0-.588-1.944,3.718,3.718,0,0,0-1.7-1.292,9.566,9.566,0,0,0-3.4-.463h-6.562a2.481,2.481,0,0,1,.676,1.682,4.791,4.791,0,0,1,.026.536v10.349a8.156,8.156,0,0,1-.046,1.206.7.7,0,0,1-.024.091,2.4,2.4,0,0,1-.743,1.366h3.125a2.35,2.35,0,0,1-.7-1.209c-.009-.025-.017-.049-.024-.072a3.885,3.885,0,0,1-.071-1.1Zm-16.561,8.548h-7.014v-1.451l.55.055.063.008.012,0a1.283,1.283,0,0,0,1.224-.926l.016-.053.027-.049c.009-.016.018-.029.026-.042a2.469,2.469,0,0,0,.054-.636v-10.887c0-.148,0-.276-.013-.4l0-.029v-.029c0-.04.006-.075.009-.1l0-.021c0-.011,0-.023,0-.035a1.3,1.3,0,0,0-1.294-1.294l-.05.006-.08.01-.55.056v-1.41h7.514v1.412l-.552-.057-.071-.009-.054-.007a1.3,1.3,0,0,0-1.292,1.286c0,.018,0,.033,0,.049l0,.045c-.017.179-.024.383-.024.622v3.7h6.772v-3.585a5.909,5.909,0,0,0-.034-.879l-.009-.031,0-.036a1.292,1.292,0,0,0-1.275-1.133l-.047.006-.055.007-.559.066V1451.2h7.472v1.384h-.5a.692.692,0,0,1-.1-.008h0a1.288,1.288,0,0,0-1.23.994l-.007.031-.012.03a.613.613,0,0,1-.029.063,3.875,3.875,0,0,0-.046.755v10.763a4.577,4.577,0,0,0,.049.828l.052.06.031.092a1.286,1.286,0,0,0,1.2.874l.062-.007.536-.039v1.4l-.708,0h-6.763V1467l.621.061.041,0a1.286,1.286,0,0,0,1.212-.87l.036-.1.043-.045a9.038,9.038,0,0,0,.03-.952v-4.21h-6.772v4.332a4.652,4.652,0,0,0,.047.81l.057.056.039.1a1.3,1.3,0,0,0,1.2.833l.029,0,.075-.009.543-.047v1.476Zm5.534-1h3.071a2.3,2.3,0,0,1-.549-.828.824.824,0,0,1-.067-.109l-.008-.018a3.2,3.2,0,0,1-.14-1.261v-10.763a2.866,2.866,0,0,1,.137-1.179l0-.005a2.293,2.293,0,0,1,.636-1.065h-3.092a2.3,2.3,0,0,1,.7,1.351,5.684,5.684,0,0,1,.059,1.1v4.585h-8.772v-4.7c0-.254.008-.476.025-.675,0-.01,0-.02,0-.031a2.292,2.292,0,0,1,.684-1.635h-2.94a2.29,2.29,0,0,1,.685,1.635,1.165,1.165,0,0,1-.01.144l0,.039c.009.137.013.276.013.432v10.887a2.691,2.691,0,0,1-.155,1.081.639.639,0,0,1-.036.068,2.3,2.3,0,0,1-.6.943h3.172a2.307,2.307,0,0,1-.577-.79.693.693,0,0,1-.1-.155l0-.006a3.125,3.125,0,0,1-.146-1.264v-5.332h8.772v5.21a4.232,4.232,0,0,1-.087,1.3.8.8,0,0,1-.108.211A2.293,2.293,0,0,1-7984.328,1467.428Zm-37.766,1h-6.972v-1.373h.5l.049,0a1.406,1.406,0,0,0,1.35-1.061l.014-.054.026-.05a.481.481,0,0,0,.042-.108c0-.05.016-.255.024-1.026v-10.34a2.4,2.4,0,0,0-.063-.669l-.011-.036-.005-.037a1.478,1.478,0,0,0-1.435-1.258l-.491-.009V1451.2h8.867a10.487,10.487,0,0,1,3.78.536,4.681,4.681,0,0,1,2.146,1.644,4.308,4.308,0,0,1,.768,2.518,4.639,4.639,0,0,1-.739,2.58,4.926,4.926,0,0,1-2.094,1.763,6.8,6.8,0,0,1-2,.545l3.311,4.035c.391.484.533.642.579.69a.58.58,0,0,1,.071.06l.036.036.028.043a3.285,3.285,0,0,0,1.846,1.351l.364.1v1.321l-.707,0h-3.955l-.213-.281-5.6-7.266h-.973v4.161a6.98,6.98,0,0,0,.028.815c.007.017.013.031.018.045l.012.034.007.035a1.363,1.363,0,0,0,1.315,1.085.641.641,0,0,1,.07,0h.5v1.375Zm5.828-1h2.355a4.284,4.284,0,0,1-1.186-1.157l-.011-.01a8.957,8.957,0,0,1-.692-.809l-4.544-5.539,1-.043a6.861,6.861,0,0,0,2.583-.533,3.943,3.943,0,0,0,1.681-1.4,3.656,3.656,0,0,0,.577-2.034,3.328,3.328,0,0,0-.587-1.946,3.7,3.7,0,0,0-1.7-1.29,9.573,9.573,0,0,0-3.4-.463h-6.594a2.481,2.481,0,0,1,.636,1.288,3.515,3.515,0,0,1,.1.929v10.349a8.68,8.68,0,0,1-.041,1.2,1.391,1.391,0,0,1-.111.333,2.41,2.41,0,0,1-.7,1.131h3.16a2.346,2.346,0,0,1-.7-1.208.859.859,0,0,1-.029-.083,4.216,4.216,0,0,1-.066-1.094v-5.161h2.465l.15.195Zm-24.341,1h-5.644v-1.116l.272-.139a3.038,3.038,0,0,0,1.436-1.577l.014-.032c.1-.216.218-.49.339-.814l4.983-13.223.121-.327h2.838l.176.459,4.92,13.221a5.483,5.483,0,0,0,.306.7l.012.022.01.023a3.057,3.057,0,0,0,1.417,1.54l.271.14v1.116l-.708,0h-6.337v-1.1l.477-.022a1.1,1.1,0,0,0,1.052-1.061l0-.112.036-.069a7.528,7.528,0,0,0-.274-.915l-.881-2.58h-4.722l-1.064,2.953a3,3,0,0,0-.149.5l.026.076v.079c0,.016,0,.033,0,.049a1.1,1.1,0,0,0,1.084,1.085l.488.011v1.106Zm6.566-1h3.279a4.073,4.073,0,0,1-.976-1.391,6.622,6.622,0,0,1-.353-.81l-4.849-13.028h-1.452l-4.863,12.9c-.128.344-.252.641-.368.882a4.045,4.045,0,0,1-1,1.445h2.325a2.108,2.108,0,0,1-.387-1.192.987.987,0,0,1-.024-.218,2.582,2.582,0,0,1,.209-.835l1.3-3.614h6.139l1.112,3.257a4.575,4.575,0,0,1,.333,1.26.858.858,0,0,1-.053.3A2.109,2.109,0,0,1-8034.041,1467.428Zm-23.657,1h-2.194l-.113-.359c-.151-.474-3.612-11.392-4.7-14.724l-.212-.072.2.943-1-.622c-.087-.054-.105-.08-.247-.278l-.021-.031c-.245-.344-.818-1.15-1.295-1.852-.6-.891-1.348-2.193-1.431-2.339l.7-.671.034.024a16.194,16.194,0,0,0,2.651,1.563,19.91,19.91,0,0,0,3.774,1.134l.012,0a5.07,5.07,0,0,1,.624.156c.18.073.4.162,1.879,2.676l.011.018a4.053,4.053,0,0,1,.295.994l.2.973-.9-.416a.669.669,0,0,1-.117-.072c-.1-.067-.348-.243-.73-.494-.08-.052-.15-.1-.212-.135l2.389,7.755,1.352-3.849a10.58,10.58,0,0,0,.587-4.1l-.016-.285,3.277-2.177-.053,2.435,0,.074a10.53,10.53,0,0,0,.781,3.858l1.716,4.211,2.662-8.61a2.541,2.541,0,0,0,.135-.644v0l-.02-.049v-.1a1.3,1.3,0,0,0-.8-1.2l.193-.961h5.192v1l-.256.143a3.011,3.011,0,0,0-1.307,1.454l-.021.043a4.14,4.14,0,0,0-.272.729l0,.011-4.523,13.847h-1.936l-.126-.312-2.055-5.051-.888,3.232-.867-3.169-1.913,5.055-.2.244Zm-1.461-1h1.116l2.85-7.53.716,2.618.7-2.555,3.038,7.467h.537l4.3-13.152a5.228,5.228,0,0,1,.336-.887,3.982,3.982,0,0,1,.788-1.188h-2.21a2.3,2.3,0,0,1,.314,1.085,1.017,1.017,0,0,1,.022.228,3.471,3.471,0,0,1-.177.93v.005l-3.49,11.286-2.771-6.8a11.526,11.526,0,0,1-.855-4.22l0-.1.012-.532-1.21.8a11.562,11.562,0,0,1-.654,4.2l-2.358,6.712-3.5-11.353c-.031-.1-.066-.2-.1-.3l-.373-.987,1,.337.506.171.023.008h.008l.085.032a1.967,1.967,0,0,1,.205.094,16.447,16.447,0,0,0-1.038-1.583c-.1-.024-.26-.061-.41-.094l-.011,0a20.7,20.7,0,0,1-3.984-1.205c-.367-.173-.707-.349-1.016-.519.105.166.211.328.312.477.3.434.629.911.9,1.29a.708.708,0,0,1,.426-.011c.084.024.344.111.865.287l.352.118.079.238C-8062.925,1455.561-8059.794,1465.428-8059.16,1467.428Zm144.608,1h-12.371v-1.275l.527.028c.041,0,.075.007.1.01h.008c.636-.006,1.372-.527,1.372-1.98v-10.887c0-1.236-.676-1.885-1.347-1.889l-.024,0c-.036.005-.065.009-.1.011l-.539.042V1451.2h7.963l.224-.05a20.127,20.127,0,0,0,3.8-1.139,16.157,16.157,0,0,0,2.65-1.563l.515-.395.251.6a.524.524,0,0,1,0,.4,15.711,15.711,0,0,1-1.308,2.708,9.892,9.892,0,0,1-1.658,1.8l-1.113.92.261-1.2c-.547.183-1.66.558-3.888,1.313l-.176.06a3.881,3.881,0,0,0-.582.336c-.443.29-.71.481-.759.517l-.012.008-.517.358-.126-.318v2.7h1.2a4.093,4.093,0,0,0,.587-.042l.061-.009.061.006a1.881,1.881,0,0,0,.194.01,1.821,1.821,0,0,0,1.63-1l.946.226v4.278l-.958.2a1.832,1.832,0,0,0-1.681-1.1h-.036l-.03,0a6.651,6.651,0,0,0-.774-.037h-1.2v4.427c0,.291.008.474.016.586.106.007.271.014.521.014h2.372a7.5,7.5,0,0,0,2.826-.418l.109-.047a6.435,6.435,0,0,0,1.814-1.005l.829.517-1.192,3.327-.2.259Zm-10.089-1h9.737l.552-1.54c-.292.14-.577.261-.816.362l-.108.046a8.432,8.432,0,0,1-3.217.5h-2.372a2.582,2.582,0,0,1-1.046-.1l-.03-.015a.76.76,0,0,1-.363-.4,2.875,2.875,0,0,1-.1-1.089v-5.427h2.2a7.744,7.744,0,0,1,.864.041,2.828,2.828,0,0,1,1.615.522v-1.6a2.816,2.816,0,0,1-1.576.479c-.08,0-.158,0-.234-.009a5.022,5.022,0,0,1-.668.044h-2.2v-6.368h2.024l.036,0,1.1-.233-.613.994-.1.162a1.784,1.784,0,0,1,.22-.1l.182-.062c2.766-.937,4.252-1.437,4.418-1.487a.7.7,0,0,1,.2-.029.689.689,0,0,1,.392.122,7.55,7.55,0,0,0,.884-1.047,8.521,8.521,0,0,0,.57-1.033c-.406.237-.885.5-1.42.75a20.94,20.94,0,0,1-4.009,1.21l-.274.061-.054.012h-5.781a3.143,3.143,0,0,1,.711,2.126v10.887A3.263,3.263,0,0,1-7924.641,1467.428Zm3.239-13.548v.566a1.847,1.847,0,0,1,.166-.445l.069-.121Zm-79.842,14.548h-7.016v-1.444l.594.091h.01a1.292,1.292,0,0,0,1.252-1.047l.011-.055.022-.051a2.382,2.382,0,0,0,.086-.832v-11.2c0-.061,0-.114,0-.16h-.118a6.09,6.09,0,0,0-3.954,1.37,5.237,5.237,0,0,0-1.194,1.358l-.2.376-1.066-.376.231-.668,1.655-4.708.256-.657.535.458a1.272,1.272,0,0,0,.818.314c.024,0,.051-.007.084-.009l.528-.03v.04h8.443l.006-.03.428.019c.039,0,.073.005.1.009l.026,0a1.262,1.262,0,0,0,.811-.3l.543-.452.253.685,1.739,4.844.175.476-1,.354-.223-.261c-.023-.027-2.464-2.816-5.036-2.816-.122,0-.219,0-.3,0,0,.08,0,.181,0,.306v10.969a3.546,3.546,0,0,0,.054.84l0,.008a.292.292,0,0,0,.039.081l.048.07.022.082a1.29,1.29,0,0,0,1.226.953h0c.027,0,.053-.007.078-.009l.533-.035v1.429Zm-4.832-1h3.177a2.291,2.291,0,0,1-.628-1,1.289,1.289,0,0,1-.123-.281,3.929,3.929,0,0,1-.1-1.138v-10.969a3.138,3.138,0,0,1,.063-.869l.012-.034a.591.591,0,0,1,.333-.334l.014-.005a2.608,2.608,0,0,1,.879-.067,7.64,7.64,0,0,1,4.573,2l-.969-2.7a2.227,2.227,0,0,1-.606.158l0,.015h-10.264v-.036a2.229,2.229,0,0,1-.491-.148l-.822,2.342.032-.027a7.079,7.079,0,0,1,4.591-1.6,1.786,1.786,0,0,1,.69.084.625.625,0,0,1,.354.334l.009.023a2.161,2.161,0,0,1,.066.721v11.2a3.439,3.439,0,0,1-.147,1.178A2.28,2.28,0,0,1-8006.076,1467.428Zm53.054-.28a5.518,5.518,0,0,1-3.016-.862,6.023,6.023,0,0,1-2.13-2.468,8.737,8.737,0,0,1-.786-3.873,9.168,9.168,0,0,1,.795-4.011,5.992,5.992,0,0,1,2.146-2.5,5.827,5.827,0,0,1,3.2-.857,5.339,5.339,0,0,1,2.951.774,5.285,5.285,0,0,1,1.914,2.369,9.715,9.715,0,0,1,.821,4.015,9.29,9.29,0,0,1-.824,3.934,6.137,6.137,0,0,1-2.113,2.636A5.288,5.288,0,0,1-7953.021,1467.147Zm.205-13.576a4.851,4.851,0,0,0-2.659.7,5.011,5.011,0,0,0-1.784,2.1,8.184,8.184,0,0,0-.694,3.574,7.763,7.763,0,0,0,.683,3.432,5.036,5.036,0,0,0,1.772,2.067,4.533,4.533,0,0,0,2.477.7,4.306,4.306,0,0,0,2.4-.683,5.167,5.167,0,0,0,1.754-2.22,8.3,8.3,0,0,0,.731-3.514,8.722,8.722,0,0,0-.733-3.606,4.311,4.311,0,0,0-1.543-1.937A4.367,4.367,0,0,0-7952.816,1453.571Zm-82.479,7.468h-5.7l2.392-6.638.471.169.47-.168Zm-4.281-1h2.862l-1.425-3.988Zm69.823-.654h-3.548v-6.528h4.4a5.21,5.21,0,0,1,2.169.35,2.765,2.765,0,0,1,1.209,1.084,3.32,3.32,0,0,1,.439,1.757,3.254,3.254,0,0,1-.609,2.02,3.091,3.091,0,0,1-1.65,1.1A9.29,9.29,0,0,1-7969.753,1459.385Zm-2.548-1h2.548a8.213,8.213,0,0,0,2.124-.173h0a2.115,2.115,0,0,0,1.133-.747,2.286,2.286,0,0,0,.406-1.416,2.347,2.347,0,0,0-.292-1.235,1.782,1.782,0,0,0-.78-.7,4.239,4.239,0,0,0-1.746-.256h-3.4Zm-48.692,1h-3.55v-6.528h4.4a5.234,5.234,0,0,1,2.17.35,2.751,2.751,0,0,1,1.209,1.086,3.316,3.316,0,0,1,.44,1.755,3.26,3.26,0,0,1-.609,2.019,3.092,3.092,0,0,1-1.648,1.1A9.24,9.24,0,0,1-8020.993,1459.385Zm-2.55-1h2.55a8.189,8.189,0,0,0,2.122-.173l.005,0a2.114,2.114,0,0,0,1.134-.746,2.294,2.294,0,0,0,.407-1.416,2.344,2.344,0,0,0-.293-1.234,1.773,1.773,0,0,0-.779-.7,4.267,4.267,0,0,0-1.747-.256h-3.4Zm98.384-8.908.264-.781a24.853,24.853,0,0,0,.884-5.079s0-.156,0-.42l-.065,0v-.466l-.024-6.873h.4v-.006h-.4l-.051-14.864h-2.576a2.594,2.594,0,0,0-1.853.6,1.5,1.5,0,0,0-.412,1.127l.016,1.936-1,.052c0-.036-.458-3.944-3.556-5.591l.231-.942,18.276-.14c2.928-.022,7.168-.839,9.608-2.358l1.115-.7.7.67-4.274,7.551-.444-.718c-.01-.016-.983-1.566-2.314-1.583-.465.044-1.1.1-1.538.1l-2.042,0h-.417l-1.858,0a.588.588,0,0,0-.586.588v9.319l.006,0v2.693c0,.05,0,.132,0,.242l.006.746.015,0v1.71c.017,1.948.039,4.5.054,6.136,2.85-3.916,2.12-11.942,2.112-12.024l0-.048a.52.52,0,0,1,.369-.5,48.288,48.288,0,0,0,8.4-3.845c5.665-3.263,9.838-7.237,12.07-11.494l.006-.012c.293-.525.415-.742.742-.742h.469l.03.468a28.345,28.345,0,0,1-1.065,5.109c-.765,2.553-2.2,6.074-4.72,8.349l-.051.046-.061.031a.536.536,0,0,1-.241.058h-.035l-.062-.009-.959-.177-1.849,1.153c-.054.228-.147.632-.226,1.005a34.2,34.2,0,0,0,9.725-6.244l1.222-1.19-.384,1.654v.013l-.007.046c0,.018-.006.036-.01.054l-.008.04-.015.038c-.023.059-2.322,5.893-5.636,8.6a.524.524,0,0,1-.446.114l-.03-.006-.028-.01-.851-.284-1.994.888c-.07.183-.185.488-.3.81a.524.524,0,0,1-.347.321q-.691.206-1.4.381a31.614,31.614,0,0,0,7.681-1.732l1.54-.569-.987,1.368a12.713,12.713,0,0,1-6.342,4.57.529.529,0,0,1-.217.029h-.122l-.637-.427-2.055.31c-.073.1-.166.234-.257.367l.372,0a42.054,42.054,0,0,0,4.2-.214l.027,0h.027a.522.522,0,0,1,.5.354.521.521,0,0,1-.133.544,10.55,10.55,0,0,1-4.674,2.451l-.016,0a.518.518,0,0,1-.462-.136l-.341-.306-1.839.01-.464.472-.015.015a.522.522,0,0,1-.357.144h-.036a12.074,12.074,0,0,1-4.426-1.058,10.2,10.2,0,0,0-2.513,3.131l-.095.161-.048.082c-.081.138-.176.3-.275.463-.018.032-.037.064-.056.1l-.031.053c-.026.045-.053.09-.08.139-.22.4-.508.857-.882,1.409l-.06.088-.09.056c-2.517,1.567-8.354,2.432-8.588,2.466Zm2.076-7.221.056,0,.007.461c.008.543.01.9.01.9a22.746,22.746,0,0,1-.73,4.613c1.962-.333,5.617-1.11,7.374-2.154.327-.487.581-.894.774-1.242.03-.055.062-.108.092-.16l.031-.053c.017-.029.034-.058.05-.087l.008-.014c.1-.16.191-.321.272-.458l.047-.08.1-.173c1.853-3.037,2.935-3.567,3.222-3.657l.222-.069.191.122a10.168,10.168,0,0,0,4.008,1.033c.188-.191.4-.409.462-.467a.507.507,0,0,1,.361-.146l2.217-.012a.524.524,0,0,1,.354.135l.3.273a9.569,9.569,0,0,0,2.716-1.186c-.74.046-1.67.086-2.679.086-2.265,0-5.352-.212-7.194-1.22l.311-.934c.042.006,4.111.575,5.677.6.149-.217.3-.432.377-.535l.051-.074.047-.042a.521.521,0,0,1,.207-.111l.03-.009.031,0,2.422-.365a.521.521,0,0,1,.1-.009.517.517,0,0,1,.3.093l.459.308a12.123,12.123,0,0,0,4.555-2.845,35.9,35.9,0,0,1-10.159,1.424,31.364,31.364,0,0,1-3.67-.2l-.019,0,.034-1a34.863,34.863,0,0,0,8.37-1.275c.121-.324.279-.742.309-.809h0a.506.506,0,0,1,.28-.27l2.358-1.05.035-.01a.528.528,0,0,1,.147-.021.517.517,0,0,1,.123.015l.041.012.772.258a20.556,20.556,0,0,0,4.277-6.106,38.763,38.763,0,0,1-8.6,5.071,27.851,27.851,0,0,1-8.287,2.475l-.108-.991a28.318,28.318,0,0,0,7.339-2.908c.1-.467.212-.939.241-1.05a.509.509,0,0,1,.24-.325l2.157-1.344a.524.524,0,0,1,.288-.083h.046l.954.177a18.078,18.078,0,0,0,4.261-7.735c.244-.813.434-1.577.581-2.246a33.459,33.459,0,0,1-11.375,10.07,50.746,50.746,0,0,1-8.24,3.812,33.314,33.314,0,0,1-.026,4.547c-.274,3.6-1.117,6.309-2.5,8.045l0,0a5.694,5.694,0,0,0-.62.984l-.134.306-.311-.01-.514.056-.009-.552s-.042-4.655-.069-7.775v-.506h-.005l-.016-1.945c0-.113,0-.2,0-.249v-.757l-.006,0V1421.57a1.589,1.589,0,0,1,1.587-1.588l1.858,0h.417l2.042,0c.405,0,1.022-.051,1.468-.093l.047,0a3.778,3.778,0,0,1,2.7,1.417l2.538-4.484a23.133,23.133,0,0,1-9.6,2.2l-16.711.128a8.027,8.027,0,0,1,1.891,2.584,2.349,2.349,0,0,1,.544-.858,3.561,3.561,0,0,1,2.563-.9h3.572l0,.5.054,15.71h0Zm-129.752,6.985-.821-.138c-.229-.033-6.072-.9-8.589-2.466l-.09-.056-.059-.087c-.363-.533-.65-.992-.878-1.4l-.074-.126-.023-.04-.072-.125c-.14-.232-.287-.477-.423-.72a10.256,10.256,0,0,0-2.512-3.119,12.185,12.185,0,0,1-4.419,1.056h-.036a.528.528,0,0,1-.314-.1l-.037-.026-.031-.033c-.167-.173-.34-.35-.458-.469l-1.838-.01-.344.308a.521.521,0,0,1-.36.144.524.524,0,0,1-.118-.013,10.538,10.538,0,0,1-4.671-2.447l-.029-.031a.529.529,0,0,1-.09-.555l.009-.02a.519.519,0,0,1,.471-.3h.026l.026,0c.479.05,2.2.213,4.211.213l.368,0c-.083-.12-.168-.24-.238-.337l-.021-.029-2.054-.31-.57.382-.069.022a.538.538,0,0,1-.258.018l-.038-.006-.037-.013a12.758,12.758,0,0,1-6.351-4.578l-.885-1.329,1.443.534a31.546,31.546,0,0,0,7.669,1.731q-.7-.174-1.391-.379a.526.526,0,0,1-.345-.323c-.088-.236-.181-.481-.251-.664l-.056-.147-1.99-.886-.931.309h-.081a.522.522,0,0,1-.343-.125c-3.31-2.7-5.617-8.54-5.64-8.6l-.02-.052-.008-.055c-.007-.046-.013-.094-.017-.138l-.147-1.377.993.966a34.233,34.233,0,0,0,9.725,6.244c-.077-.359-.17-.766-.225-1l-1.853-1.153-.949.175a.534.534,0,0,1-.392-.073l-.035-.022-.031-.028c-2.514-2.276-3.954-5.8-4.718-8.35a30.923,30.923,0,0,1-1.066-5.019l-.062-.555h.559c.332,0,.46.233.742.742l.005.01c2.232,4.257,6.406,8.231,12.071,11.494a48.125,48.125,0,0,0,8.391,3.843.51.51,0,0,1,.375.5l0,.043c-.073.851-.619,8.277,2.112,12.027.025-2.739.076-8.218.076-8.827v-6.608c0-1.572-.014-3.212-.041-4.876v-.008a1.988,1.988,0,0,0-1.433-1.906l-3.146-.908-.047-.025a.546.546,0,0,1-.114-.083l-.043-.041-.033-.05-2.29-3.48a.522.522,0,0,1-.013-.5l.018-.032a.528.528,0,0,1,.448-.251.524.524,0,0,1,.292.088l.033.024a30.9,30.9,0,0,0,5.291,1.773,54.658,54.658,0,0,0,5.523,1.389l3.987.222c4.189,0,7.3.812,9.248,2.408a7.946,7.946,0,0,1,2.981,6.426,9.072,9.072,0,0,1-1.226,4.608,8.443,8.443,0,0,1-4.039,3.386,18.5,18.5,0,0,1-7.358,1.218h-1.018c-.012,1.9-.076,7.059-.079,7.275a25.167,25.167,0,0,0,.887,5.073Zm-8.793-3.4c1.756,1.043,5.41,1.821,7.374,2.154a22.525,22.525,0,0,1-.732-4.608v-.011c0-.05.081-6.5.081-7.743a.522.522,0,0,1,.522-.52h1.494a17.543,17.543,0,0,0,6.952-1.132,7.476,7.476,0,0,0,3.58-2.974,8.085,8.085,0,0,0,1.091-4.107,6.987,6.987,0,0,0-2.616-5.653c-1.766-1.447-4.669-2.182-8.628-2.182h-.028l-4-.223a53.553,53.553,0,0,1-5.742-1.427c-1.362-.39-2.924-.859-4.073-1.265l1.309,1.989,2.921.843a2.991,2.991,0,0,1,2.157,2.863c.027,1.668.041,3.313.041,4.888v6.608c0,.622-.052,6.243-.077,8.944-.008.868-.014,1.495-.014,1.527v.49l-.462.008-.37.059-.141-.364a5.543,5.543,0,0,0-.613-.979c-1.344-1.679-2.179-4.261-2.481-7.674a33.294,33.294,0,0,1-.054-4.918,50.588,50.588,0,0,1-8.239-3.812,33.486,33.486,0,0,1-11.368-10.057c.147.671.336,1.432.576,2.232a18.088,18.088,0,0,0,4.259,7.736l.956-.177h.046a.527.527,0,0,1,.284.083l2.159,1.343a.511.511,0,0,1,.234.292l.009.032c.017.069.133.568.239,1.052a28.453,28.453,0,0,0,7.336,2.909l-.083.4-.021.589a27.841,27.841,0,0,1-8.287-2.475,38.776,38.776,0,0,1-8.613-5.078,20.537,20.537,0,0,0,4.284,6.112l.856-.284h.081a.527.527,0,0,1,.163.026l.027.009.026.011,2.3,1.026a.511.511,0,0,1,.283.241l.022.042.013.04c0,.012.012.032.022.059l.1.258c.049.128.109.286.171.451a34.66,34.66,0,0,0,8.367,1.273l.044,1a30.623,30.623,0,0,1-3.7.2,35.855,35.855,0,0,1-10.154-1.424,12.175,12.175,0,0,0,4.553,2.846l.479-.321a.52.52,0,0,1,.281-.081h.038l.039.006,2.469.373.024.006a.514.514,0,0,1,.244.142l.036.037.025.04.1.141.026.036c.075.105.167.235.258.367,1.3-.022,4.316-.415,5.582-.586l.069-.01a.474.474,0,0,0-.119.039l.455.89c-1.841,1.007-4.926,1.219-7.19,1.219-1,0-1.938-.04-2.688-.086a9.554,9.554,0,0,0,2.721,1.188l.3-.268a.519.519,0,0,1,.356-.14l2.223.012a.51.51,0,0,1,.363.151h0s.209.21.455.463a10.137,10.137,0,0,0,4.022-1.038l.046-.026.2-.064.143.039c.2.055,1.3.49,3.233,3.654l.009.016c.13.232.269.462.415.705.03.05.055.094.081.139l.02.035c.024.042.047.082.073.124l.008.014C-8062.2,1444.962-8061.948,1445.369-8061.629,1445.842Zm79.438,1.078h-5.883a5.748,5.748,0,0,1-1.911-.331l-1.1-.387.138-.07a5.721,5.721,0,0,1-2.852-4.766v-.757c0-.023,0-.064-.007-.107l0-.032c-.06-.683-.1-2.292-.113-2.953v-.307l9.375-5.434-1.66,3.53c.431-.39.714-.661.72-.667l.546-.523.268.707a.527.527,0,0,1-.041.445l0,.006c-.306.609-1.122,2.2-2.176,4v3.269a2.073,2.073,0,0,0,2.07,2.071c.069,0,.138,0,.207-.01a2.147,2.147,0,0,0,1.868-2.173v-19.043a6.458,6.458,0,0,1,1.071-3.567l.061-.092.03-.046c.04-.061.081-.123.124-.183a2.8,2.8,0,0,1,2.338-1.25h6.076l.166.972-1.666.587a1.88,1.88,0,0,0-1.251,1.766v18.955A6.4,6.4,0,0,1-7982.191,1446.919Zm-7.179-1.184a4.7,4.7,0,0,0,1.3.184h5.883a5.394,5.394,0,0,0,5.389-5.387v-18.956a2.884,2.884,0,0,1,1.187-2.323h-3.512a1.8,1.8,0,0,0-1.509.809l-.011.015c-.034.048-.069.1-.107.159l-.024.036-.068.1a5.458,5.458,0,0,0-.9,3.014v19.043a3.154,3.154,0,0,1-2.773,3.168c-.1.01-.2.015-.3.015a3.074,3.074,0,0,1-3.07-3.071V1439l.069-.117c.348-.592.67-1.162.958-1.684l-.2.164-1.038.845.229-1.319a4.382,4.382,0,0,1,.333-1.1l.727-1.544-6.1,3.536c.017.69.053,2.022.1,2.6l0,.033c.006.066.011.129.011.2v.729a4.733,4.733,0,0,0,3.16,4.3Zm-38.359,1.153-12.794,0-.184-.965,1.544-.609a2.283,2.283,0,0,0,1.443-2.094v-.08c.028-1.6.042-3.242.042-4.874v-11.533c0-1.634-.014-3.273-.042-4.874v-.009a2.387,2.387,0,0,0-1.636-2.267l-1.626-.542.158-.974h12.084c3.371,0,6.022.661,7.883,1.966a6.531,6.531,0,0,1,2.888,5.649,6.673,6.673,0,0,1-1.555,4.05,9.221,9.221,0,0,1-4.139,2.878l4.047,8.072a11.443,11.443,0,0,0,5.432,5.249l-.208.954-5.091,0a6.158,6.158,0,0,1-3.288-.949,6.155,6.155,0,0,1-2.275-2.556l-2.514-5.261-.022.005s-.011-.022-.024-.057c-.023-.056-.082-.2-.176-.418l-1.288-2.7c-.869-1.623-1.231-1.8-1.27-1.819l-.4-.159v5.668c0,1.579.015,3.09.043,4.493v.009a2.266,2.266,0,0,0,1.455,2.118l2.107.813-.2.808Zm-10.4-1h7.918a3.254,3.254,0,0,1-1.488-2.734c-.028-1.408-.043-2.925-.043-4.509v-11.681c0-1.347.008-2.638.022-3.836.014-1.091.021-2.215.021-3.34v-.5h2.9a4.419,4.419,0,0,1,3.532,1.661,7.291,7.291,0,0,1,1.451,4.941,7.167,7.167,0,0,1-1.52,4.966,4.706,4.706,0,0,1-2.2,1.49l-.558.164-.079-.576c-.089-.65-.185-1.269-.288-1.852l-1.067,2.414a7.847,7.847,0,0,1,1.35,2l.01.02,1.3,2.73c.079.179.135.315.167.4l.019,0,2.541,5.317a5.153,5.153,0,0,0,1.906,2.141,5.158,5.158,0,0,0,2.755.8h3.178a12.451,12.451,0,0,1-4.2-4.756l-4.558-9.09.545-.184a8.612,8.612,0,0,0,4.205-2.733,5.71,5.71,0,0,0,1.348-3.442,5.58,5.58,0,0,0-2.461-4.83c-1.689-1.184-4.148-1.785-7.309-1.785h-9.436a3.384,3.384,0,0,1,1.455,2.779c.028,1.6.042,3.249.042,4.887v11.533c0,1.636-.014,3.28-.042,4.887v.078A3.28,3.28,0,0,1-8038.13,1445.887Zm7.429-25.6c0,.962-.008,1.919-.02,2.853-.015,1.193-.022,2.48-.022,3.823v5.8l2.612-5.913.333,1.479c.191.849.365,1.8.52,2.841a4.491,4.491,0,0,0,1.2-.985,6.235,6.235,0,0,0,1.257-4.291,6.365,6.365,0,0,0-1.2-4.277,3.412,3.412,0,0,0-2.784-1.325Zm91.159,26.6h-4.369a8.239,8.239,0,0,1-8.232-8.228V1426.3a8.24,8.24,0,0,1,8.232-8.23h4.369a8.2,8.2,0,0,1,5.4,2.024,8.237,8.237,0,0,1,2.733,5l.066.45-.442.108c-.861.211-4.542,2.8-6.089,3.944l-1.511,1.12.8-1.82-3.148,2.6-.141-.859a.531.531,0,0,1,.062-.339l0-.009c.35-.7,1.612-3.166,3.161-5.64a1.718,1.718,0,0,0,.265-.906,3.346,3.346,0,0,0-3.344-3.341l-.1,0a3.449,3.449,0,0,0-3.239,3.5v17.3a3.35,3.35,0,0,0,3.349,3.343h.1a3.455,3.455,0,0,0,3.236-3.5v-3.59l.741.3a23.962,23.962,0,0,1,5.455,3.813l.246.248-.147.316a8.263,8.263,0,0,1-2.978,3.428A8.173,8.173,0,0,1-7939.542,1446.887Zm-4.369-27.82a7.239,7.239,0,0,0-7.232,7.23v12.363a7.238,7.238,0,0,0,7.232,7.228h4.369a7.174,7.174,0,0,0,3.926-1.163,7.264,7.264,0,0,0,2.461-2.7,22.291,22.291,0,0,0-4.232-3v2.017a4.462,4.462,0,0,1-4.206,4.5l-.13,0a4.351,4.351,0,0,1-4.349-4.343v-17.3a4.455,4.455,0,0,1,4.209-4.5l.132,0a4.348,4.348,0,0,1,4.344,4.341,2.721,2.721,0,0,1-.416,1.435c-.757,1.208-1.444,2.416-1.987,3.41l2.183-1.8.776.586-.15.342a37.636,37.636,0,0,1,4.51-2.868,7.241,7.241,0,0,0-2.333-4,7.2,7.2,0,0,0-4.739-1.778Zm-4.524,27.82h-25.388l-.136-.981,2.748-.775a2.281,2.281,0,0,0,1.655-2.083V1422a2.571,2.571,0,0,0-1.46-2.182l-1.348-.646.216-.951h22.183l.161.974c-2.034.69-3.17,2.727-3.716,3.706-.288.515-.431.771-.78.772-.091,0-.543-.033-.546-.678a2.544,2.544,0,0,0-2.538-2.522h-5.151c-.022,1.62-.033,3.244-.033,4.837v4.326a15.82,15.82,0,0,1,4.58-.592c.445,0,.753.014.837.018l.591.029-1.692,7.652-.988-2.908c-.242-.713-.853-1.654-3.328-1.709v5.806c0,1.5.006,2.8.018,3.862.013,1.016.02,1.949.022,2.836h4.5l.85-.021-.241-.1.084-.4a22.454,22.454,0,0,1,3.052-6.811l.85-1.24.062,1.522a16.932,16.932,0,0,0,.446,3.448c.4,1.66,1.239,3.863,2.99,4.931l.006,0Zm-21.964-1h18.8a10.142,10.142,0,0,1-2.3-4.627,17.729,17.729,0,0,1-.363-2.088,19.808,19.808,0,0,0-2,4.739l1.639.684-.18.961-3.217.077h-5.5v-.5c0-1.032-.007-2.119-.022-3.324-.012-1.07-.018-2.373-.018-3.874v-12.622c0-1.759.014-3.558.041-5.345l.007-.492h6.136a3.548,3.548,0,0,1,3.33,2.345,9.362,9.362,0,0,1,2.162-2.6h-18.169a3.569,3.569,0,0,1,1.506,2.74v21.118A3.282,3.282,0,0,1-7970.4,1445.887Zm7.6-14.76a6.384,6.384,0,0,1,2.91.562,3.124,3.124,0,0,1,1.421,1.4l.673-3.046h-.193a12.835,12.835,0,0,0-4.865.778l-.661.315.435-.01C-7962.987,1431.127-7962.894,1431.126-7962.8,1431.126Zm-40.623,15.76h-4.369a8.239,8.239,0,0,1-8.231-8.228V1426.3a8.24,8.24,0,0,1,8.231-8.23h4.369a8.239,8.239,0,0,1,8.23,8.23v12.363A8.238,8.238,0,0,1-8003.426,1446.887Zm-4.369-27.82a7.239,7.239,0,0,0-7.231,7.23v12.363a7.238,7.238,0,0,0,7.231,7.228h4.369a7.237,7.237,0,0,0,7.23-7.228V1426.3a7.238,7.238,0,0,0-7.23-7.23Zm2.182,26.487a4.347,4.347,0,0,1-4.339-4.344v-7.731l.607.134a5.522,5.522,0,0,1,1.616.734,17.885,17.885,0,0,0-2.135-4.073l-.088-.128v-6.4a4.345,4.345,0,0,1,4.339-4.342,4.349,4.349,0,0,1,4.346,4.342v17.464A4.35,4.35,0,0,1-8005.613,1445.553Zm-3.339-10.744v6.4a3.345,3.345,0,0,0,3.339,3.344,3.349,3.349,0,0,0,3.346-3.344v-17.464a3.347,3.347,0,0,0-3.346-3.342,3.344,3.344,0,0,0-3.339,3.342v6.089a15.943,15.943,0,0,1,2.6,5.682l.214,1.32-1.027-.856A9.506,9.506,0,0,0-8008.953,1434.81Zm-43.684.086h-1.747a.524.524,0,0,1-.522-.524v-8.71c0-1.912.014-3.882.041-5.854a.526.526,0,0,1,.526-.519h1.534a8.612,8.612,0,0,1,3.665.7,4.721,4.721,0,0,1,2.327,2.481,11.746,11.746,0,0,1,.738,4.6,12.491,12.491,0,0,1-.693,4.608,4.6,4.6,0,0,1-2.218,2.511A8.275,8.275,0,0,1-8052.637,1434.9Zm-1.27-1h1.27a7.31,7.31,0,0,0,3.208-.6,3.64,3.64,0,0,0,1.735-1.993,11.562,11.562,0,0,0,.618-4.229,10.807,10.807,0,0,0-.654-4.2,3.751,3.751,0,0,0-1.836-1.978,7.64,7.64,0,0,0-3.24-.606h-1.067c-.022,1.811-.034,3.616-.034,5.373Zm119.931-22.8c-.6,0-1.208-.011-1.812-.033h-40.951l.324-.708c.1-.21.184-.42.262-.625l.122-.323,8.213,0,17.832-.009,3.531,0,10.055,0h.477c.571.022,1.322.033,2.233.033,3.4,0,8.041-.155,8.086-.157l.125.988A39.774,39.774,0,0,1-7933.975,1411.1Zm-112.771,0h0a39.777,39.777,0,0,1-8.5-.842l.107-.988.125,0c1.448.046,5.124.153,7.979.153.911,0,1.662-.011,2.233-.033l.163-.006.016.011c1.148.017,9.748.026,25.594.026l16.716,0h.344l.123.322c.078.205.165.412.258.616l.324.708h-43.675c-.6.022-1.213.033-1.811.033Z" transform="translate(8085.999 -1394)" fill="rgba(0,0,0,0)"/></g><path d="M89.213,98.2h.231c.081,0,.163-.01.244-.017l.038.474c-.164.013-.329.023-.494.03Zm-1.463.445.038-.473.078.006h.274l.121.006-.018.492C88.08,98.668,87.914,98.658,87.75,98.646Zm2.88-.586h.014c.151-.025.3-.053.452-.083l.1.466c-.161.033-.325.063-.487.089Zm-4.347.374.1-.465c.155.032.31.061.467.087l-.077.469C86.607,98.5,86.443,98.467,86.283,98.434Zm5.737-.69.126-.038h0l.008,0h0l.006,0,.005,0,.007,0,.007,0,.007,0,.007,0,.006,0,.005,0,.007,0,.007,0h0l.005,0,.006,0,.007,0,.008,0,.006,0,0,0h.008l.006,0h0l.006,0h0l.012,0h0l.008,0h0l.165-.054.151.45c-.156.053-.314.1-.472.148Zm-7.168.3.151-.45.095.03h0l.012,0h0l0,0,.006,0,.007,0,.005,0h0l.006,0h0l.006,0h0c.095.03.189.06.284.087l.007,0h0l.013,0h0l-.134.456c-.149-.042-.308-.093-.464-.145Zm8.507-.784q.218-.094.432-.2l.206.428c-.148.071-.3.14-.45.205Zm-9.881.222.207-.428.067.032h0l.006,0h0l.006,0h0l.005,0h0l.005,0h0l0,0,.005,0,0,0h0l0,0h0l.007,0h0c.1.048.2.094.308.139l-.189.436C83.779,97.623,83.627,97.554,83.478,97.483Zm1.108-1.063A10.69,10.69,0,0,1,88.7,75.881l.067-.1.067.1a10.691,10.691,0,1,1-4.25,20.539Zm-6.052-9.85A10.214,10.214,0,1,0,89.166,76.364l1.621,2.384L88.7,81.786l-.878-1.291-6.1,6.1,7.046,7.046,7.045-7.046L89.64,80.416l.272-.4,6.576,6.575L88.771,94.31h0l-7.717-7.718,6.5-6.5.084.124-.844-1.241a7.839,7.839,0,1,0,3.85-.016l.146-.212-.936-1.379a9.277,9.277,0,1,1-2.166,0l-.061.088.75-1.09A10.215,10.215,0,0,0,78.534,86.57Zm8.725-7.749L88.7,80.944l1.51-2.2-1.443-2.123Zm7.371,17.8c.115-.068.229-.137.342-.209h0l.006,0h0l.005,0h0l.005,0h0l0,0h0l0,0,0,0,0,0,.01-.006h0l.016-.01.259.4c-.138.088-.28.176-.422.259Zm-12.443.139.258-.4.2.124h0l.007,0h0l.01.006h0l0,0,0,0,0,0,0,0h0l0,0h0l0,0h0l.005,0h0l.006,0h0l.005,0h0l.005,0h0l.006,0,.127.076-.242.409c-.135-.075-.276-.163-.415-.252Zm13.624-.933q.189-.145.371-.3l.3.365c-.126.105-.256.209-.387.308Zm-14.819.055.3-.363.121.1h0l.005,0h0l0,0h0l0,0,0,0,0,0,0,0,0,0,0,0h0q.107.087.218.171l-.289.377c-.128-.1-.258-.2-.384-.306Zm15.9-.986.005,0h0l0,0h0l0,0h0l0,0,0,0,0,0,0,0,.005-.006,0,0,0,0,0,0h0l.009-.009c.1-.1.19-.192.282-.29l.346.326c-.112.119-.229.238-.346.353Zm-16.976-.03.347-.325c.027.03.054.058.082.086h0l.015.016h0l0,0h0l0,0h0l0,0h0l0,0v0l0,0,0,0,0,0,0,0,0,0,0,0,0,0,0,0,0,0,0,0,0,0,0,0,0,0,0,0,0,0,0,0h0l0,.005h0l0,0h0l.005.005h0l.005.006h0l.009.009h0l.006.006.009.009h0l.005.006h0l.015.015h0l.005.006h0l.009.009h0l.005,0h0l0,0,0,0,0,0,0,0,0,0,0,0,0,0,0,0,0,0,0,0h0l0,0,0,0,0,0v0l0,0h0l0,0h0l0,0h0l0,0h0l.021.021-.333.339C80.143,95.1,80.027,94.981,79.915,94.861Zm17.93-1.028.007-.008c.026-.033.053-.066.078-.1h0l.008-.01h0l0-.006h0l0-.005v0l0,0h0s0,0,0-.006h0l0,0,0,0,0,0,0,0,0,0,0,0,0,0,0,0,0,0,0,0,0,0,0,0,0,0,0,0,0,0,0,0v0l0,0,0,0,0,0,0,0,0,0v0l0,0v0l0,0v0l0,0v0l0,0,0,0,0,0v0l0,0,0,0,0,0v0l0,0,0,0,0,0,0,0,0,0,0,0,0,0,0,0h0l0-.005v0l.008-.01.06-.082.383.281c-.1.132-.2.264-.3.394Zm-18.877-.113.384-.281.066.091h0l0,.006h0l0,.005h0l0,.005h0l0,0h0l0,0v0l0,0v0l0,0,0,0,0,0,0,0,0,0,0,0,0,0,0,0,0,0,0,0v0l0,.005h0q.081.108.166.212l-.371.3C79.166,93.985,79.065,93.853,78.967,93.721Zm19.7-1.052.008-.012h0l0-.006.008-.012h0l0-.006h0l0-.006s0,0,0-.006h0s0,0,0-.005h0l0-.005h0l0-.005h0l0-.005v0s0,0,0-.005h0l0,0v0l0-.005v0s0,0,0,0v0l0,0,0,0,0,0,0,0a.014.014,0,0,1,.012-.011v0l0,0,0,0v0a0,0,0,0,1,0,0l0,0,0,0v0s0,0,0-.006,0,0,0,0l0-.006h0l0,0h0l0-.006h0l0-.006h0l.007-.011h0q.055-.092.108-.186h0a.061.061,0,0,0,.009-.011h0l.006-.01v0l0,0a.007.007,0,0,0,0,0l0,0,0,0h0l.414.233c-.081.143-.165.286-.25.426Zm-20.5-.2.415-.232.03.054h0l0,.005v0l0,0,0,0v0l0,.006h0l0,.005h0l0,.006h0c.039.069.079.137.121.2h0l0,.006h0l0,.005h0l0,0a.006.006,0,0,0,0,0l0,0,0,0v0s0,0,0,.006h0l.048.079-.4.248c-.081-.133-.166-.277-.246-.421Zm10.533.264-6.193-6.192,5.613-5.611.545.8-4.814,4.812L88.7,91.394l4.848-4.849-4.811-4.812.547-.8,5.609,5.609L88.7,92.737h0Zm10.636-1.324c.066-.144.129-.289.189-.436l.439.18c-.062.151-.128.3-.2.454Zm-21.814-.276.44-.179.01.024h0v0l0,0V91a.005.005,0,0,0,0,.005h0l0,.006h0c.053.128.108.255.166.381l-.427.2C77.652,91.442,77.586,91.289,77.524,91.137Zm22.325-1.054a.016.016,0,0,0,0,0v0a.016.016,0,0,0,0,0v-.007a.016.016,0,0,1,0,0v0a.008.008,0,0,1,0-.005.007.007,0,0,1,0,0l0-.005a0,0,0,0,1,0,0v-.006l0-.006h0a.009.009,0,0,1,0-.006h0a.012.012,0,0,1,0-.006h0a.008.008,0,0,1,0-.006h0l0-.013h0a.01.01,0,0,1,0-.006h0a.058.058,0,0,1,0-.013h0a.009.009,0,0,1,0-.007h0a.108.108,0,0,0,0-.014h0l0-.007h0a.117.117,0,0,0,0-.014h0l.006-.021h0l.013-.042.006-.021q.032-.11.062-.222l.458.124c-.043.159-.091.318-.139.475Zm-22.8-.352.459-.124c.02.073.04.145.061.218h0a.012.012,0,0,0,0,.008l0,.012a0,0,0,0,0,0,0,.008.008,0,0,0,0,.006,0,0,0,0,0,0,0v.006l0,.006v.007a.01.01,0,0,1,0,0,.013.013,0,0,1,0,0v.007l0,.006v0a.012.012,0,0,1,0,0,.016.016,0,0,1,0,0v0a.014.014,0,0,0,0,0v.007a.006.006,0,0,1,0,0v0a.01.01,0,0,1,0,0v0a.012.012,0,0,0,0,0v0a.006.006,0,0,1,0,0,.006.006,0,0,1,0,0l0,.005a.007.007,0,0,0,0,0,.012.012,0,0,0,0,0v.01l0,.006v0a.055.055,0,0,0,0,.012h0a.011.011,0,0,0,0,.008h0l.02.066-.454.142A3.205,3.205,0,0,0,77.051,89.731ZM100.193,88.7h0a.059.059,0,0,0,0-.007h0v-.007h0q.041-.227.074-.454l.47.067c-.023.163-.05.327-.08.488Zm-23.44-.423.47-.066.009.062h0a.029.029,0,0,0,0,.013,0,0,0,0,0,0,0,.017.017,0,0,0,0,.005.007.007,0,0,0,0,0,.006.006,0,0,0,0,0,.02.02,0,0,0,0,.006v0a.017.017,0,0,0,0,.005h0v.007h0a.03.03,0,0,1,0,.007h0a.134.134,0,0,0,0,.014h0c.017.113.036.225.056.336l-.461.089Q76.788,88.525,76.754,88.279Zm23.613-.991c0-.021,0-.042,0-.063h0v-.013h0v-.018a.017.017,0,0,0,0-.005.012.012,0,0,1,0,0v-.009a0,0,0,0,0,0,0v-.013a.018.018,0,0,0,0-.005v0a.017.017,0,0,0,0-.005v-.01a.042.042,0,0,1,0-.006v-.007h0v-.006h0a.023.023,0,0,0,0-.006h0v-.007h0a.054.054,0,0,1,0-.006h0v-.007h0v-.014h0v-.037c0-.074.005-.148.006-.223l.475.01c0,.164-.01.331-.02.494ZM76.636,86.8l.475-.008c0,.159.009.317.019.475l-.475.028C76.646,87.131,76.639,86.965,76.636,86.8Zm23.725-1.027h0v-.007h0V85.76a.047.047,0,0,1,0-.006V85.74a.015.015,0,0,1,0,0v0a.023.023,0,0,1,0-.006v-.015h0q-.01-.141-.024-.281v-.014h0v-.01s0-.005,0-.008h0a.021.021,0,0,1,0,0,0,0,0,0,0,0,0v0l.472-.048c.017.163.03.329.04.493l-.474.029a.385.385,0,0,1-.014-.091Zm-23.7.039c.009-.164.024-.33.039-.493l.473.049c-.016.157-.03.314-.039.474Zm23.519-1.466s0-.009,0-.014h0v-.007h0a.051.051,0,0,0,0-.006h0a.016.016,0,0,1,0-.005,0,0,0,0,1,0,0V84.3a.034.034,0,0,0,0-.005v0a.016.016,0,0,1,0-.005,0,0,0,0,1,0,0v-.019a.01.01,0,0,0,0,0v-.005a0,0,0,0,1,0,0,.023.023,0,0,1,0,0,0,0,0,0,1,0,0v-.008a.012.012,0,0,1,0,0v0a.011.011,0,0,0,0,0,.006.006,0,0,0,0,0v-.013h0v-.005a0,0,0,0,1,0,0v-.006h0V84.2h0v-.007h0c-.014-.068-.029-.135-.044-.2l.463-.1c.036.16.07.323.1.485l-.467.086A.206.206,0,0,1,100.176,84.347Zm-23.337-.005c.03-.161.064-.324.1-.484l.463.106c-.022.092-.041.185-.061.278h0a.16.16,0,0,1,0,.021h0l0,.013h0a.058.058,0,0,1,0,.008h0a.067.067,0,0,1,0,.013c-.009.043-.017.085-.025.129Zm22.976-1.388h0l0-.006h0a.023.023,0,0,0,0-.006h0a.011.011,0,0,0,0-.006s0,0,0,0l0-.006v-.006a.011.011,0,0,0,0,0v-.007a.007.007,0,0,0,0,0A.023.023,0,0,0,99.8,82.9h0c-.03-.1-.064-.19-.1-.283l.447-.161c.056.154.109.312.159.469l-.454.143c-.01-.04-.023-.078-.034-.115ZM77.2,82.9c.049-.157.1-.314.159-.468l.447.162-.01.027h0l0,.006h0l0,.006h0l0,.006h0a.009.009,0,0,1,0,.006h0v.005h0l0,.005v0a.007.007,0,0,1,0,.006v.014a0,0,0,0,0,0,0,.006.006,0,0,1,0,.005s0,0,0,0l0,0v0a.006.006,0,0,1,0,.005.005.005,0,0,1,0,0l0,.005v.006a.01.01,0,0,1,0,0l0,0v0a.006.006,0,0,1,0,.005s0,0,0,0v.006l0,.005v0a.007.007,0,0,1,0,.005.009.009,0,0,0,0,0v.006a.008.008,0,0,1,0,.005s0,0,0,0a.009.009,0,0,1,0,.006s0,0,0,0v.006a.006.006,0,0,1,0,.005s0,0,0,0a.008.008,0,0,1,0,.005V82.8h0v.008l0,.005a.006.006,0,0,1,0,0v.006a.005.005,0,0,1,0,.005s0,0,0,0a.006.006,0,0,1,0,.006s0,0,0,0a.006.006,0,0,1,0,0s0,0,0,0a.007.007,0,0,1,0,.005,0,0,0,0,0,0,0,.006.006,0,0,1,0,.005v.008l0,.005a.005.005,0,0,1,0,0l0,.005v0a.01.01,0,0,0,0,0,.005.005,0,0,1,0,0v.005a0,0,0,0,0,0,0l0,0v.017a.011.011,0,0,1,0,0v.007l0,.006a0,0,0,0,1,0,0,.01.01,0,0,1,0,0h0l0,.007h0c-.01.03-.021.063-.03.095ZM99.23,81.5h0l0-.006h0l0-.006h0l0-.006h0l0-.006h0l0,0v0l0-.005a0,0,0,0,0,0,0l0-.005v0l0,0v0l0,0v0a.005.005,0,0,0,0,0l0,0a0,0,0,0,0,0,0l0-.005v0a.063.063,0,0,0-.006-.011h0l0-.007h0c-.016-.032-.03-.064-.048-.1l.424-.215c.074.146.146.3.215.446l-.432.2c-.045-.083-.082-.162-.12-.24Zm-21.5.018c.068-.149.141-.3.216-.445l.424.216-.037.073,0,.007h0l0,.005h0l0,.005v0l0,.005v.006l0,0V81.4h0l0,.006h0q-.072.146-.14.293h0s0,0,0,.006,0,0,0,0a0,0,0,0,1,0,0ZM98.669,80.48h0l0-.005a0,0,0,0,1,0,0l0-.006h0l0,0h0l0-.007h0l0-.006h0l-.007-.011h0l0-.007-.007-.011,0-.007q-.1-.166-.212-.327l.394-.265c.091.136.182.276.268.416l-.4.249Zm-20.235-.267c.086-.139.177-.279.269-.415l.394.266c-.044.065-.088.132-.131.2l-.012.019h0l0,.006h0l-.008.012h0l0,.006h0l0,.006h0l0,.005h0l0,.005h0l0,.005h0l0,0a.005.005,0,0,1,0,0l0,0v0l0,0v0l0,0,0,0,0,0,0,0,0,0,0,0a.008.008,0,0,1,0,0l0,0v0l0,.006h0l0,0h0l0,.007h0l-.042.066ZM87.8,78.76l.967-1.408.935,1.375-.969,1.408Zm.575,0,.361.532.39-.567-.361-.531Zm9.4.461-.009-.011h0l0-.006-.014-.017h0l-.014-.017h0l-.014-.017-.019-.023c-.05-.06-.1-.121-.154-.182l.359-.311c.108.124.214.252.316.38l-.371.3-.075-.092ZM79.288,79c.1-.128.209-.256.317-.38l.359.312q-.106.121-.208.246h0l0,.005v0l0,0,0,0a0,0,0,0,1,0,0s0,0,0,0l0,0,0,0h0l0,.005h0l0,.005h0c-.022.027-.044.053-.065.081Zm17.448-.9h0l-.005-.005h0l-.005-.005-.005,0h0l0,0h0l0,0h0l0,0h0l0,0,0,0,0,0s0,0,0,0l0,0,0,0h0l0,0,0,0,0,0h0l-.005-.005h0l-.117-.107.312-.358c.121.11.242.224.36.339l-.333.339C96.843,78.205,96.79,78.155,96.736,78.1Zm-16.453-.2c.117-.114.239-.228.361-.338l.318.353q-.091.081-.177.163l-.016.014h0l-.005,0h0l-.005.005h0l0,0h0l0,0h0l0,0,0,0,0,0,0,0,0,0s0,0,0,0l0,0,0,0,0,0,0,0,0,0,0,0,0,0,0,0,0,0,0,0,0,0,0,0,0,0,0,0,0,0,0,0,0,0h0l0,0,0,0,0,0h0l0,0h0l-.005.005h0l-.005.005h0l-.039.038Zm15.38-.7q-.111-.083-.226-.163l.272-.389c.134.095.268.193.4.292l-.289.377q-.076-.06-.156-.118ZM81.4,76.934c.131-.1.265-.2.4-.292l.272.389-.026.019h0l0,0,0,0h0l0,0h0l0,0h0l0,0h0l-.006,0h0q-.164.116-.322.237ZM94.4,76.389l-.011-.006h0l-.005,0h-.005l0,0h0l0,0h0l-.005,0h0l-.006,0h0l-.124-.067.224-.419c.144.077.289.159.431.242l-.242.409q-.119-.077-.241-.144Zm-11.76-.281c.142-.083.287-.164.432-.242l.223.42-.009,0h0l0,0,0,0h0l0,0h0l-.006,0h0l-.005,0h0l-.006,0h0l-.006,0h0l-.012.007h0l-.085.046-.006,0-.012.007h0l-.006,0h0l-.005,0h0l-.005,0h0l0,0h0l0,0,0,0,0,0h0l0,0h0l-.006,0h0l-.019.011-.17.1Zm10.294-.4.171-.444c.153.061.307.121.458.187l-.189.436q-.218-.094-.44-.18Zm-8.971-.265c.151-.065.305-.128.458-.187l.17.444c-.148.057-.295.116-.44.179Zm7.694-.143h0l-.012,0-.007,0-.006,0-.007,0-.006,0-.007,0-.006,0h0l-.029-.007.115-.461c.159.04.32.084.477.13l-.134.456Q91.843,75.344,91.653,75.3Zm-6.3-.359c.158-.046.318-.089.478-.128l.114.461-.166.042-.021.006h0l-.014,0-.007,0h0l-.007,0h0l-.006,0h0l-.006,0h0l-.007,0-.007,0h0l-.006,0h0l-.007,0-.006,0h0l-.006,0h0l-.013,0H85.66l-.006,0h0l-.006,0h0l-.006,0h-.006l-.007,0h0l-.005,0h-.006a.06.06,0,0,1-.017.009h-.006l-.007,0h0l-.1.027Zm4.814.079.058-.47c.163.02.328.044.49.07l-.077.469C90.485,75.058,90.328,75.035,90.169,75.016Zm-3.294.064-.075-.469c.162-.026.327-.049.49-.069l.057.472q-.216.026-.43.06h0l-.009,0h-.03Zm2.069-.148h-.538c-.038,0-.076,0-.113,0l-.017-.472c.157-.006.315-.009.472-.009s.331,0,.494.01l-.019.474-.277-.007Z" transform="translate(8.256 -74.455)" fill="#fff" opacity="0.1"/><g opacity="0.75"><path d="M-8086.219,1476.721l-.048-1.291c.075-.03.147-.06.22-.092a4.446,4.446,0,0,0,1.779-1.351l-.135,2.757-.89,3.818Zm-1.705,1.862c-.605-.663-1.116-1.129-1.116-1.129l-1.146-4.245c-.467-1.727-.823-3.425-1.516-4.29a2.189,2.189,0,0,0-.639-.6l-.616.017a.275.275,0,0,0,0,.04l-.029-.039-.059,0s-.476-.69-.983-1.493-1.14-2-1.14-2l.018.013c-.007-.012-.01-.018-.01-.018a13.918,13.918,0,0,0,2.29,1.446q.807.344,1.638.626v-.01s.215.082.543.182l.147.047c.09.025.188.05.284.075.185.047.385.091.592.127s.417.056.647.078l.119.009c.015,0,.032,0,.052.005l.1.009c.459.036.974.056,1.558.056a4.966,4.966,0,0,1,2.662,1.976l.051.084a4.1,4.1,0,0,1,.253.5,7.343,7.343,0,0,1-.062,2.114,2.085,2.085,0,0,1-.5,1.042c-.02.025-.234.257-.257.284-.042.05-.09.1-.14.152a.143.143,0,0,1-.035.035c-.058.057-.117.112-.18.164a.075.075,0,0,1-.012.015,4.48,4.48,0,0,1-1.021.626,5.569,5.569,0,0,1-1,.317c-.117.025-.237.047-.359.067l1.127,5.194S-8087.315,1479.245-8087.924,1478.582Zm0-4.382c.024-.007.049-.018.074-.027.127-.05.27-.112.424-.185.038-.017.075-.037.112-.057.08-.04.159-.082.239-.132a.979.979,0,0,0,.1-.065l.025-.015a.829.829,0,0,0,.084-.072.093.093,0,0,0,.018-.015.387.387,0,0,0,.06-.067.079.079,0,0,0,.025-.027.449.449,0,0,0,.063-.08.437.437,0,0,0,.024-.04.514.514,0,0,0,.033-.057c.007-.015.017-.03.024-.05s.024-.057.037-.087l.022-.065c.006-.017.01-.032.015-.05a1.064,1.064,0,0,0,.035-.137.158.158,0,0,0,.01-.035c0-.03.011-.062.016-.092a.106.106,0,0,1,0-.037,1.908,1.908,0,0,0,.017-.192c0-.007,0-.015,0-.025,0-.042,0-.082,0-.122l-.029-.74c0-.1-.016-.2-.03-.307,0-.03,0-.06-.007-.09s-.011-.08-.016-.12c-.01-.085-.022-.17-.032-.259-.242-1.755-.681-2.124-1.092-2.318a1.446,1.446,0,0,0-.154-.06l-.058-.015a.78.78,0,0,0-.106-.03l-.07-.015-.1-.02c-.027,0-.053-.005-.08-.01s-.067-.007-.107-.01l-.084-.007-.107-.007-.093,0c-.037,0-.072,0-.109,0s-.064,0-.1,0h-.133Zm5.209.075.938-4.711a2.943,2.943,0,0,0-.574.346c-.416.292-.653.474-.653.474a4.331,4.331,0,0,1,.183-.725,15.615,15.615,0,0,1,1.331-2.151,22.181,22.181,0,0,0,3.73-1.224v0a13.835,13.835,0,0,0,2.288-1.446s-.628,1.194-1.137,1.994-.984,1.493-.984,1.493,0-.16-.089-.209a.19.19,0,0,0-.175-.02,1.991,1.991,0,0,0-1.069.813c-.692.862-1.049,2.562-1.516,4.289l-1.142,4.245s-.513.466-1.121,1.129-1.267,1.485-1.267,1.485Zm-2.208-6.685a6.292,6.292,0,0,0-1.339-.852l.917-3.579,1.355,4.681-.037.758A4.216,4.216,0,0,0-8084.925,1467.591Z" transform="translate(8182.429 -1459.375)" fill="#fff"/><path d="M-8085.778,1480.679l-.938-3.89,0-.05-.059-1.588c-.132.042-.269.079-.408.113l1.019,4.7-.879.419c-.006-.008-.657-.818-1.247-1.46s-1.08-1.093-1.085-1.1l-.108-.1-.038-.141-1.146-4.245c-.073-.272-.145-.545-.213-.809a10.217,10.217,0,0,0-1.209-3.3l-.018-.024a1.7,1.7,0,0,0-.376-.382l-.456.013-.009-.335-.025.01.009.326-.33.009-.154-.223c0-.007-.487-.708-.994-1.509s-1.133-1.981-1.16-2.03l.007-.006-.013-.026.479-.377.264-.228.013.01.007-.005a13.446,13.446,0,0,0,2.193,1.387c.309.131.619.255.927.371v-.028l.679.259s.205.078.51.171l.012,0,.129.042.226.06.044.011c.184.047.368.086.545.118.2.028.4.053.609.073l.12.009.028,0,.033,0,.091.009c.459.036.968.054,1.514.054h.065l.063.017a5.4,5.4,0,0,1,1.4.65,4.617,4.617,0,0,0-.794-.462l-.4-.166,1.479-5.774,1.888,6.521-.041.841-.078,1.588-.116-.186a8.779,8.779,0,0,1,.036,1.431l.187-1.151a4.881,4.881,0,0,1,.2-.809l.015-.042.055-.1c1.185-2.151,1.354-2.226,1.533-2.3l.043-.019.046-.011a21.741,21.741,0,0,0,3.646-1.2l.019-.008a13.319,13.319,0,0,0,2.159-1.37l.75.627c-.026.049-.643,1.221-1.157,2.03s-.99,1.5-.995,1.509l-.912,1.32v-1.169a1.5,1.5,0,0,0-.414.421l-.029.04a10.174,10.174,0,0,0-1.208,3.295c-.069.265-.141.539-.214.812l-1.18,4.385-.108.1s-.5.46-1.089,1.1-1.238,1.452-1.245,1.46l-.879-.419,1.256-5.781.705-3.542c-.129.095-.2.149-.2.15l-.99.759a5.284,5.284,0,0,1-.1.731,2.838,2.838,0,0,1-.107.4l.213-.281-.216,4.418-.9,3.862Zm.057-4.027.42,1.742.4-1.721.071-1.457a5.626,5.626,0,0,1-.926.537Zm-2.874.533c.184.173.579.556,1.03,1.049l-.737-3.4-.016,0-1.247-6.89h.731c.032,0,.07,0,.113,0s.07,0,.111,0,.05,0,.075,0h.031l.11.008.089.008.074.007.028,0,.029,0,.028.005.037,0,.028,0,.028.006.04.008.061.011.075.016a1.246,1.246,0,0,1,.145.039l.017,0,.05.014a1.986,1.986,0,0,1,.207.08l.008,0c.642.3,1.122.879,1.373,2.7l0,.014c0,.046.011.09.017.134s.011.082.015.122l0,.017c0,.028.006.057.011.082a1.1,1.1,0,0,1,.011.118v0c.016.121.026.229.032.328v.005l.03.76c0,.045,0,.091-.005.148,0,.016,0,.03,0,.042,0,.086-.013.162-.02.214l-.007.053c0,.015-.006.031-.009.047l0,.018,0,.024a.629.629,0,0,1-.018.08,1.175,1.175,0,0,1-.033.125l-.01.034c-.006.021-.012.042-.019.064l-.047.127c-.009.022-.018.044-.028.065a.709.709,0,0,1-.032.066l-.016.03a.862.862,0,0,1-.045.078c-.008.015-.02.035-.036.057a.958.958,0,0,1-.087.114.61.61,0,0,1-.044.05c-.013.016-.027.032-.042.047a3.887,3.887,0,0,0,.685-.43l.005-.008.056-.047c.051-.042.1-.087.149-.137l.033-.033c.038-.038.076-.079.11-.119.017-.021.044-.051.133-.148l.123-.135.024-.028a1.641,1.641,0,0,0,.366-.784l0-.018a6.7,6.7,0,0,0,.062-1.877,3.592,3.592,0,0,0-.194-.376l-.031-.051-.015-.024a4.441,4.441,0,0,0-2.31-1.74c-.546,0-1.058-.021-1.524-.057h-.01l-.092-.008-.018,0-.046,0-.1-.007h-.015c-.23-.022-.457-.049-.672-.081l-.014,0c-.205-.036-.417-.081-.629-.135l-.045-.012c-.085-.022-.17-.044-.25-.066l-.01,0-.046-.014v.013l-.66-.223c-.553-.187-1.116-.4-1.674-.639l-.029-.013q-.313-.157-.619-.33c.036.059.072.116.107.171.326.516.642.988.821,1.254l.576-.016.127.078a2.7,2.7,0,0,1,.776.723,10.7,10.7,0,0,1,1.387,3.659c.068.262.139.533.212.8Zm7.5-8.473-1.128,5.67-.835,3.841c.452-.491.847-.873,1.032-1.046l1.1-4.106c.073-.269.144-.541.212-.8a10.732,10.732,0,0,1,1.381-3.649,2.5,2.5,0,0,1,1.311-.991.686.686,0,0,1,.322-.034c.18-.27.421-.635.667-1.024l.1-.155q-.3.167-.6.32l-.725.365v-.069a22.729,22.729,0,0,1-2.977.933,12.229,12.229,0,0,0-.69,1.122Zm-7.264.264.817,4.513.008,0c.078-.038.14-.073.2-.109l.019-.011c.016-.009.033-.02.048-.031l.044-.03.007-.006.042-.044.005-.012.008-.008.02-.028.025-.017.007-.01.015-.025.011-.018.011-.021.006-.013.016-.037.007-.018.017-.049s0-.006,0-.01l0-.013.012-.039c0-.013.008-.025.011-.038l.008-.057.007-.018c0-.013,0-.024.006-.034a.615.615,0,0,1,.01-.071c0-.033.008-.073.009-.113,0-.023,0-.044,0-.061s0-.047,0-.065l-.029-.727c0-.076-.013-.161-.026-.261l0-.035c0-.012,0-.023,0-.035a.143.143,0,0,0,0-.015c-.006-.037-.01-.075-.015-.112l0-.019c0-.039-.009-.075-.014-.111s-.013-.1-.018-.148c-.228-1.641-.6-1.829-.805-1.925-.031-.014-.059-.025-.086-.034l-.083-.023a.274.274,0,0,0-.039-.011l-.071-.015-.039-.007-.039-.007-.068-.009-.041,0Zm2.685-2.506a7.664,7.664,0,0,1,.956.643l-.595-2.054Z" transform="translate(8182.429 -1459.375)" fill="rgba(0,0,0,0)"/></g></g></svg>