<svg xmlns="http://www.w3.org/2000/svg" width="137.456" height="38.219" viewBox="0 0 137.456 38.219"><path d="M-13007-323.368h-11.308l15.137-25.931v12.337h11.075l-14.9,25.882Zm86.341,2.477a10.516,10.516,0,0,1-3.13-7.616,10.419,10.419,0,0,1,3.5-7.988,10.423,10.423,0,0,1,7.148-2.758,10.591,10.591,0,0,1,5.42,1.447,10.685,10.685,0,0,1,3.973,3.927,10.757,10.757,0,0,1,1.447,5.371,10.606,10.606,0,0,1-1.447,5.42,9.919,9.919,0,0,1-3.924,3.924,10.957,10.957,0,0,1-5.469,1.4A10.185,10.185,0,0,1-12920.656-320.891Zm3.6-11.866a5.849,5.849,0,0,0-1.588,4.251,5.817,5.817,0,0,0,1.588,4.3,5.153,5.153,0,0,0,3.973,1.634,5.364,5.364,0,0,0,4.019-1.679,5.972,5.972,0,0,0,1.588-4.3,5.7,5.7,0,0,0-1.588-4.251,5.356,5.356,0,0,0-4.019-1.637A5.261,5.261,0,0,0-12917.059-332.757Zm-51.4,11.961a10.327,10.327,0,0,1-3.035-7.616,10.651,10.651,0,0,1,3.035-7.756,10.154,10.154,0,0,1,7.57-3.084,10.5,10.5,0,0,1,7.852,3.084,11.184,11.184,0,0,1,3.035,8.174v.934h-16.493a5.466,5.466,0,0,0,1.915,3.46,6.07,6.07,0,0,0,3.973,1.307,6.845,6.845,0,0,0,4.953-2.009l4.3,2.009a10.351,10.351,0,0,1-3.879,3.411,11.849,11.849,0,0,1-5.374,1.121A10.714,10.714,0,0,1-12968.455-320.8Zm4.114-12.9a6.957,6.957,0,0,0-1.869,2.663h11.118v-.046a5.111,5.111,0,0,0-2.006-2.758,5.842,5.842,0,0,0-3.46-1.075A6.309,6.309,0,0,0-12964.341-333.692Zm78.447,15.045a2.858,2.858,0,0,1-.843-2.1,2.743,2.743,0,0,1,.843-2.055,2.924,2.924,0,0,1,2.1-.843,3.009,3.009,0,0,1,2.1.843,2.824,2.824,0,0,1,.84,2.055,3.02,3.02,0,0,1-.84,2.1,2.7,2.7,0,0,1-2.1.84A3.011,3.011,0,0,1-12885.894-318.646Zm-59.9.372V-338.74h5.094v2.1a11.645,11.645,0,0,1,3.179-2.055,7.751,7.751,0,0,1,2.9-.562,7.016,7.016,0,0,1,5.139,2.1,7.386,7.386,0,0,1,1.777,5.325v13.5h-5.048v-8.926a21.611,21.611,0,0,0-.326-4.858,3.589,3.589,0,0,0-1.121-1.823,3.224,3.224,0,0,0-2.009-.608,3.733,3.733,0,0,0-2.663,1.029,5.432,5.432,0,0,0-1.542,2.9,24.013,24.013,0,0,0-.232,4.156v8.178Zm48.267-.046v-16.025h-2.617v-4.394h2.617v-7.521h5.139v7.521h3.035v4.394h-3.035v16.025Zm-48.312-20.42h.045Z" transform="translate(13018.305 349.299)" fill="#333"/></svg>