<svg xmlns="http://www.w3.org/2000/svg" width="160" height="25.844" viewBox="0 0 160 25.844"><rect width="24.875" height="25.843" rx="12.438" fill="#d8d8d8" opacity="0.01"/><path d="M24.28,16.5c1.622-4.77-5.106-8.234-11.636-3.516-4.1,2.96-10.56-.176-11.521-5.5a11.934,11.934,0,0,0-.174,9.077,12.729,12.729,0,0,0,11.7,8.21A12.47,12.47,0,0,0,24.28,16.5Z" transform="translate(0 0.968)" fill="#ffa600" fill-rule="evenodd"/><rect width="5.804" height="5.804" rx="2.902" transform="translate(5.97 3.317)" fill="#ffa600"/><path d="M.945,16.555s5.5,1.145,11.7-3.57,13.382-1.488,11.632,3.57a12.393,12.393,0,0,1-23.331,0Z" transform="translate(0 0.968)" fill="#1f19ff" fill-rule="evenodd"/><path d="M35.743,5.153a6.6,6.6,0,0,1,3.927.992,3.563,3.563,0,0,1,1.377,3.1,4.414,4.414,0,0,1-.374,1.893,3.225,3.225,0,0,1-1.054,1.28,4.871,4.871,0,0,1-1.7.721,10.159,10.159,0,0,1-2.3.234H34.553v4.4H32.411V5.459a9.47,9.47,0,0,1,1.649-.234q.84-.069,1.683-.072ZM35.9,7.118q-.816,0-1.343.054v4.256H35.59a5.091,5.091,0,0,0,2.38-.451A1.829,1.829,0,0,0,38.8,9.228,2.172,2.172,0,0,0,38.582,8.2a1.638,1.638,0,0,0-.612-.649,2.643,2.643,0,0,0-.935-.325A5.663,5.663,0,0,0,35.9,7.118Zm12.07,3.192a5.335,5.335,0,0,0-.713-.18,4.392,4.392,0,0,0-1.768-.036,4.063,4.063,0,0,0-.527.126v7.556H42.9V8.8a10.27,10.27,0,0,1,1.479-.433,8.52,8.52,0,0,1,1.989-.216,3.626,3.626,0,0,1,.476.036,4.155,4.155,0,0,1,.544.072,3.853,3.853,0,0,1,.527.108,3.365,3.365,0,0,1,.408.108l-.357,1.839Zm3.866,7.465H49.775V8.344h2.057Zm.221-12.19a1.288,1.288,0,0,1-.374.974,1.23,1.23,0,0,1-.884.361,1.248,1.248,0,0,1-.9-.361,1.289,1.289,0,0,1-.375-.974,1.314,1.314,0,0,1,.374-.992,1.251,1.251,0,0,1,.9-.361,1.229,1.229,0,0,1,.884.361A1.311,1.311,0,0,1,52.053,5.585Zm7.47,7.231a4.67,4.67,0,0,0-.358-2.128,1.31,1.31,0,0,0-1.291-.667,5.722,5.722,0,0,0-.748.054q-.307.039-.612.09v7.61H54.457V8.651A13.146,13.146,0,0,1,56,8.308a12.343,12.343,0,0,1,2.04-.162,3.782,3.782,0,0,1,1.5.252,2.882,2.882,0,0,1,.987.667,4.168,4.168,0,0,1,1.122-.6,5.092,5.092,0,0,1,.748-.234,3.77,3.77,0,0,1,.816-.09,3.874,3.874,0,0,1,1.7.325,2.389,2.389,0,0,1,1.053.884,3.312,3.312,0,0,1,.528,1.37,9.263,9.263,0,0,1,.152,1.749v5.3H64.589V12.816a4.888,4.888,0,0,0-.34-2.128,1.329,1.329,0,0,0-1.31-.667,2.453,2.453,0,0,0-.934.18,2.753,2.753,0,0,0-.663.325,5.2,5.2,0,0,1,.187.956,10.792,10.792,0,0,1,.05,1.082v5.211H59.523V12.816Zm9.15.289a6.382,6.382,0,0,1,.34-2.182,4.623,4.623,0,0,1,.934-1.551,3.675,3.675,0,0,1,1.326-.938A3.808,3.808,0,0,1,72.8,8.11a3.535,3.535,0,0,1,2.856,1.208A5.411,5.411,0,0,1,76.7,12.925c0,.12,0,.259-.016.415s-.006.276-.017.4H70.8a2.607,2.607,0,0,0,.748,1.767,2.829,2.829,0,0,0,1.956.613,5.934,5.934,0,0,0,1.36-.144,5.325,5.325,0,0,0,.986-.307l.272,1.785a3.669,3.669,0,0,1-.477.2,5.715,5.715,0,0,1-.68.162,7.424,7.424,0,0,1-1.717.2,5.285,5.285,0,0,1-2.04-.361,3.933,3.933,0,0,1-1.427-1.028,4.384,4.384,0,0,1-.834-1.551,6.778,6.778,0,0,1-.272-1.966Zm5.966-.974a2.947,2.947,0,0,0-.119-.848,1.926,1.926,0,0,0-.357-.7,1.453,1.453,0,0,0-.56-.469,1.581,1.581,0,0,0-.782-.18,1.686,1.686,0,0,0-.833.2,1.9,1.9,0,0,0-.612.487,2.411,2.411,0,0,0-.374.7,3.987,3.987,0,0,0-.188.811h3.825Zm10.137.974a3.633,3.633,0,0,0-.629-2.272,2.329,2.329,0,0,0-1.989-.811,5.459,5.459,0,0,0-.612.036,2.727,2.727,0,0,0-.612.108v5.392a3.4,3.4,0,0,0,.714.379,2.891,2.891,0,0,0,.97.162,1.783,1.783,0,0,0,1.631-.811A3.958,3.958,0,0,0,84.776,13.1Zm2.108-.036a6.825,6.825,0,0,1-.272,1.984,4.611,4.611,0,0,1-.748,1.551,3.376,3.376,0,0,1-1.24,1.01,3.716,3.716,0,0,1-1.667.361,3.918,3.918,0,0,1-1.156-.162,4.171,4.171,0,0,1-.867-.361v3.661H78.877V8.651a15.706,15.706,0,0,1,1.547-.343,11.124,11.124,0,0,1,1.938-.162,4.927,4.927,0,0,1,1.887.343,3.792,3.792,0,0,1,1.411.992,4.118,4.118,0,0,1,.9,1.551,6,6,0,0,1,.323,2.038Zm5.248,3.174a7.219,7.219,0,0,0,1.445-.108V13.718a4.347,4.347,0,0,0-1.207-.162,4.656,4.656,0,0,0-.7.054,2.159,2.159,0,0,0-.629.2,1.157,1.157,0,0,0-.442.415,1.144,1.144,0,0,0-.17.649,1.2,1.2,0,0,0,.46,1.082A2.313,2.313,0,0,0,92.132,16.243Zm-.17-8.133a4.766,4.766,0,0,1,1.717.27,2.661,2.661,0,0,1,1.105.757,2.752,2.752,0,0,1,.6,1.19,5.731,5.731,0,0,1,.187,1.515v5.716q-.718.151-1.445.252a12.927,12.927,0,0,1-2.159.162,6.152,6.152,0,0,1-1.462-.162,3.068,3.068,0,0,1-1.139-.523,2.555,2.555,0,0,1-.73-.938,3.523,3.523,0,0,1-.256-1.425,2.956,2.956,0,0,1,.29-1.37,2.519,2.519,0,0,1,.815-.9,3.176,3.176,0,0,1,1.173-.5,6.059,6.059,0,0,1,1.411-.162,4.986,4.986,0,0,1,.714.054,5.38,5.38,0,0,1,.8.144v-.361a2.983,2.983,0,0,0-.086-.721,1.4,1.4,0,0,0-.306-.6,1.293,1.293,0,0,0-.56-.415,2.253,2.253,0,0,0-.868-.144,7.335,7.335,0,0,0-1.309.108,5.463,5.463,0,0,0-.969.252l-.255-1.767a7.837,7.837,0,0,1,1.14-.289,8.435,8.435,0,0,1,1.6-.144Zm13.167.234a71.567,71.567,0,0,1-3.2,9.738,10.057,10.057,0,0,1-.7,1.389,4.066,4.066,0,0,1-.8.956,2.683,2.683,0,0,1-.986.541,4.01,4.01,0,0,1-1.258.18,4.276,4.276,0,0,1-.952-.108,3.04,3.04,0,0,1-.7-.234l.374-1.749a3.141,3.141,0,0,0,1.207.252,1.739,1.739,0,0,0,1.24-.415,3.185,3.185,0,0,0,.8-1.244q-1.027-2.118-1.87-4.328a51.316,51.316,0,0,1-1.581-4.977h2.193q.169.757.408,1.641.516,1.825,1.156,3.607.322.9.646,1.677.543-1.605,1.02-3.408.476-1.822.867-3.516h2.125Zm6.622,4.472a4.672,4.672,0,0,0-.357-2.128,1.311,1.311,0,0,0-1.292-.667,5.722,5.722,0,0,0-.748.054q-.408.054-.612.09v7.61h-2.057V8.651a13.169,13.169,0,0,1,1.547-.343,12.342,12.342,0,0,1,2.04-.162,3.782,3.782,0,0,1,1.5.252,2.877,2.877,0,0,1,.986.667,4.181,4.181,0,0,1,1.122-.6,4.968,4.968,0,0,1,.748-.234,3.77,3.77,0,0,1,.816-.09,3.871,3.871,0,0,1,1.7.325,2.391,2.391,0,0,1,1.054.884,3.312,3.312,0,0,1,.527,1.37,9.259,9.259,0,0,1,.153,1.749v5.3h-2.057V12.816a4.873,4.873,0,0,0-.34-2.128,1.328,1.328,0,0,0-1.309-.667,2.458,2.458,0,0,0-.935.18,2.753,2.753,0,0,0-.663.325,5.038,5.038,0,0,1,.187.956,10.782,10.782,0,0,1,.051,1.082v5.211h-2.057V12.816Zm9.15.289a6.382,6.382,0,0,1,.34-2.182,4.625,4.625,0,0,1,.935-1.551,3.67,3.67,0,0,1,1.326-.938,3.812,3.812,0,0,1,1.53-.325,3.535,3.535,0,0,1,2.856,1.208,5.416,5.416,0,0,1,1.037,3.607c0,.12-.006.259-.017.415s-.006.276-.017.4h-5.865a2.607,2.607,0,0,0,.748,1.767,2.825,2.825,0,0,0,1.955.613,5.913,5.913,0,0,0,1.36-.144,5.325,5.325,0,0,0,.986-.307l.272,1.785a3.644,3.644,0,0,1-.476.2,5.89,5.89,0,0,1-.68.162,7.429,7.429,0,0,1-1.717.2,5.281,5.281,0,0,1-2.04-.361,3.932,3.932,0,0,1-1.428-1.028,4.38,4.38,0,0,1-.833-1.551A6.791,6.791,0,0,1,120.9,13.1Zm5.967-.974a2.947,2.947,0,0,0-.119-.848,1.913,1.913,0,0,0-.357-.7,1.447,1.447,0,0,0-.561-.469,1.581,1.581,0,0,0-.782-.18,1.684,1.684,0,0,0-.833.2,1.9,1.9,0,0,0-.612.487,2.413,2.413,0,0,0-.374.7,3.978,3.978,0,0,0-.187.811Zm4.238-3.48a13.169,13.169,0,0,1,1.547-.343,12.59,12.59,0,0,1,2.108-.162,4.486,4.486,0,0,1,1.819.325,2.69,2.69,0,0,1,1.156.884,3.235,3.235,0,0,1,.612,1.37,7.609,7.609,0,0,1,.187,1.749v5.3h-2.057V12.816a6.818,6.818,0,0,0-.1-1.28,2.123,2.123,0,0,0-.306-.866,1.127,1.127,0,0,0-.578-.487,2.135,2.135,0,0,0-.884-.162,6.459,6.459,0,0,0-.816.054q-.425.054-.629.09v7.61h-2.057V8.651Zm9.842-2.8,2.057-.361V8.344h3.162v1.821h-3.162v3.841a2.932,2.932,0,0,0,.34,1.623,1.311,1.311,0,0,0,1.156.487,3.484,3.484,0,0,0,.986-.126,6.234,6.234,0,0,0,.7-.234l.34,1.731a6.66,6.66,0,0,1-.935.325,4.591,4.591,0,0,1-1.36.18,4.151,4.151,0,0,1-1.6-.27,2.4,2.4,0,0,1-1-.775A3.288,3.288,0,0,1,141.1,15.7a8.32,8.32,0,0,1-.153-1.677V5.856Zm9.435,10.351a2.669,2.669,0,0,0,1.19-.2.768.768,0,0,0,.374-.721.933.933,0,0,0-.408-.775,5.52,5.52,0,0,0-1.309-.667q-.527-.2-1.037-.451a3.786,3.786,0,0,1-.8-.577,2.458,2.458,0,0,1-.544-.775,3.065,3.065,0,0,1-.187-1.136,2.492,2.492,0,0,1,.9-2.038,3.682,3.682,0,0,1,2.448-.757,6.733,6.733,0,0,1,1.5.162,6.372,6.372,0,0,1,1.071.289l-.374,1.767a4.465,4.465,0,0,0-.867-.289,4.664,4.664,0,0,0-1.224-.144,1.965,1.965,0,0,0-1.02.234.728.728,0,0,0-.391.685,1.156,1.156,0,0,0,.068.415,1.045,1.045,0,0,0,.272.343,3.546,3.546,0,0,0,.493.307c.2.1.453.2.748.307a10.031,10.031,0,0,1,1.241.577,2.975,2.975,0,0,1,.833.631,2.055,2.055,0,0,1,.493.793A3.38,3.38,0,0,1,154,15.269a2.4,2.4,0,0,1-.952,2.056,4.5,4.5,0,0,1-2.686.685,6.7,6.7,0,0,1-1.887-.216,8.663,8.663,0,0,1-1-.325l.357-1.821a9.015,9.015,0,0,0,1.088.379,5.453,5.453,0,0,0,1.462.18Z" transform="translate(5.996)" fill="#121212"/></svg>