<svg xmlns="http://www.w3.org/2000/svg" xmlns:xlink="http://www.w3.org/1999/xlink" width="160" height="38.219" viewBox="0 0 160 38.219"><defs><clipPath id="a"><rect width="160" height="38.219" transform="translate(0.221)" fill="#fbf9f5"/></clipPath></defs><g transform="translate(-0.221)" clip-path="url(#a)"><path d="M157.83,28.194a4.578,4.578,0,0,0,2.856-.87,2.989,2.989,0,0,0,.869-1.091,3.024,3.024,0,0,0,.273-1.375,2.654,2.654,0,0,0-.689-1.879,6.607,6.607,0,0,0-2.251-1.411l-1.034-.424a4.118,4.118,0,0,1-1.119-.613.839.839,0,0,1-.228-.3.9.9,0,0,1-.081-.374c0-.7.488-1.046,1.473-1.046a3.3,3.3,0,0,1,1.378.284,3.426,3.426,0,0,1,1.146.829l1.249-1.447A4.621,4.621,0,0,0,160,17.193a4.572,4.572,0,0,0-2.058-.406,4.249,4.249,0,0,0-2.735.856,2.76,2.76,0,0,0-.8,1.023,2.859,2.859,0,0,0-.26,1.284,2.572,2.572,0,0,0,.671,1.83,6.281,6.281,0,0,0,2.14,1.348l1.1.469a4.853,4.853,0,0,1,1.187.631.835.835,0,0,1,.246.324.88.88,0,0,1,.081.4,1.014,1.014,0,0,1-.483.9,2.224,2.224,0,0,1-1.253.324,4.213,4.213,0,0,1-3.031-1.559l-1.32,1.465a5.238,5.238,0,0,0,1.916,1.6A5.15,5.15,0,0,0,157.83,28.194Zm-6.588-2.114a2.485,2.485,0,0,1-1.615-.437,1.783,1.783,0,0,1-.421-.667,1.81,1.81,0,0,1-.094-.789V19.05h3.2V17.026h-3.2V14.155h-2.327v2.871h-1.755V19.05h1.755V24.39a3.691,3.691,0,0,0,1.042,2.848,4.187,4.187,0,0,0,2.932.955,9.731,9.731,0,0,0,1.911-.243V25.972C151.962,26.04,151.487,26.08,151.242,26.08Zm-8.3-8.122a3.811,3.811,0,0,0-2.954-1.181,4.212,4.212,0,0,0-3.222,1.311V17.021h-2.153V27.946h2.3V21.429a2.442,2.442,0,0,1,.161-.983,2.491,2.491,0,0,1,.528-.843,2.428,2.428,0,0,1,.81-.545,2.327,2.327,0,0,1,.958-.167,2.193,2.193,0,0,1,1.7.7,2.6,2.6,0,0,1,.644,1.839v6.517h2.306V21.118A4.457,4.457,0,0,0,142.943,17.959Zm-17.237,1.523a2.961,2.961,0,0,1,1.987-.721,2.764,2.764,0,0,1,1.951.721,2.563,2.563,0,0,1,.614.883,2.6,2.6,0,0,1,.2,1.064h-5.863A3.4,3.4,0,0,1,125.707,19.482Zm7.054,2.3a4.946,4.946,0,0,0-.344-1.938,4.877,4.877,0,0,0-1.079-1.636,4.828,4.828,0,0,0-3.558-1.433,5.091,5.091,0,0,0-2.148.4,5.161,5.161,0,0,0-1.8,1.257,5.769,5.769,0,0,0-1.182,6.31A5.694,5.694,0,0,0,124.8,27.3a5.582,5.582,0,0,0,3.2.888,5.955,5.955,0,0,0,2.323-.446,6.085,6.085,0,0,0,1.978-1.312l-1.1-1.6a4.582,4.582,0,0,1-3.138,1.294,3.6,3.6,0,0,1-2.336-.771,3.233,3.233,0,0,1-1.173-2.1h8.034A7.555,7.555,0,0,0,132.76,21.785Zm-13.333-3.817a3.727,3.727,0,0,0-2.918-1.19,4.292,4.292,0,0,0-3.644,1.713,3.532,3.532,0,0,0-3.272-1.713,4.1,4.1,0,0,0-1.691.3,4.163,4.163,0,0,0-1.428.969V17.021h-2.153V27.946h2.3V21.452a2.607,2.607,0,0,1,.658-1.839,2.236,2.236,0,0,1,.783-.536,2.2,2.2,0,0,1,.932-.162,2.049,2.049,0,0,1,.9.162,2.1,2.1,0,0,1,.747.536,2.682,2.682,0,0,1,.614,1.839v6.495h2.3v-6.6a2.431,2.431,0,0,1,.152-.942,2.359,2.359,0,0,1,.5-.807,2.3,2.3,0,0,1,.788-.518,2.239,2.239,0,0,1,.926-.153,2.1,2.1,0,0,1,.9.158,2.082,2.082,0,0,1,.743.532,2.71,2.71,0,0,1,.6,1.848v6.495H120.5V21.118A4.541,4.541,0,0,0,119.427,17.968Zm-21.919,7-3.1-7.941H91.927l4.3,10.434-.439,1.023a2.415,2.415,0,0,1-.913,1.194,2.356,2.356,0,0,1-1.432.41c-.251,0-.671-.032-1.276-.09v1.979a7.164,7.164,0,0,0,1.777.225,3.735,3.735,0,0,0,2.328-.726A5.676,5.676,0,0,0,97.9,29.195l5.246-12.169h-2.458Zm-9.351.689a2.845,2.845,0,0,1-1.987.735A2.245,2.245,0,0,1,84.8,26a1.235,1.235,0,0,1-.515-1.055c0-.892.636-1.334,1.911-1.334h2.766v.2a2.4,2.4,0,0,1-.2,1.014A2.565,2.565,0,0,1,88.158,25.657Zm1.925-7.671a4.392,4.392,0,0,0-1.486-.933,4.263,4.263,0,0,0-1.728-.266,5.111,5.111,0,0,0-2.574.563,5.2,5.2,0,0,0-1.969,1.776L83.664,20.5a3.828,3.828,0,0,1,2.985-1.623,2.3,2.3,0,0,1,.909.126,2.411,2.411,0,0,1,.792.473,2.353,2.353,0,0,1,.6,1.74v.712H85.907a4.555,4.555,0,0,0-2.9.847,2.721,2.721,0,0,0-.815,1,2.754,2.754,0,0,0-.264,1.267,2.855,2.855,0,0,0,1.029,2.29,5.017,5.017,0,0,0,4.615.541,4.239,4.239,0,0,0,1.553-1.14V27.96h2.153V21.344A4.525,4.525,0,0,0,90.083,17.986ZM73.374,15.363h2.918a2.609,2.609,0,0,1,1.884.653,2.328,2.328,0,0,1,.68,1.771,2.3,2.3,0,0,1-.152.951,2.232,2.232,0,0,1-.528.8,2.634,2.634,0,0,1-1.884.645H73.374Zm0,12.588V22.277h2.963a5.011,5.011,0,0,0,3.545-1.266,4.423,4.423,0,0,0,.994-1.433,4.514,4.514,0,0,0,.376-1.713,4.626,4.626,0,0,0-.3-1.726,4.452,4.452,0,0,0-.927-1.478c-.045-.045-.089-.095-.134-.135a5.039,5.039,0,0,0-3.558-1.253h-5.29V27.955ZM67.35,17.963A3.811,3.811,0,0,0,64.4,16.783a4.214,4.214,0,0,0-3.223,1.311V17.026H59.02V27.951h2.305V21.429a2.44,2.44,0,0,1,.161-.983,2.574,2.574,0,0,1,.528-.843,2.428,2.428,0,0,1,.81-.545,2.325,2.325,0,0,1,.958-.167,2.194,2.194,0,0,1,1.7.7,2.6,2.6,0,0,1,.645,1.839v6.517h2.305V21.118A4.474,4.474,0,0,0,67.35,17.963Zm-11.978-3.47a1.523,1.523,0,0,0,1.1-.446,1.473,1.473,0,0,0,.345-.5,1.441,1.441,0,0,0,.116-.595,1.482,1.482,0,0,0-.116-.6,1.557,1.557,0,0,0-.345-.5,1.52,1.52,0,0,0-1.1-.451,1.543,1.543,0,0,0-.6.108,1.575,1.575,0,0,0-.515.338,1.491,1.491,0,0,0-.345.5,1.537,1.537,0,0,0-.116.6,1.439,1.439,0,0,0,.116.595,1.474,1.474,0,0,0,.345.5A1.553,1.553,0,0,0,55.372,14.493Zm1.141,13.458V17.026H54.208V27.951Zm-7.426-2.939a3.322,3.322,0,0,1-2.345,1.023,3.313,3.313,0,0,1-2.372-.955l-.054-.054a3.409,3.409,0,0,1-.725-1.163,3.518,3.518,0,0,1-.228-1.357,3.586,3.586,0,0,1,.967-2.546,3.331,3.331,0,0,1,1.052-.748,3.246,3.246,0,0,1,2.52-.059,3.3,3.3,0,0,1,1.083.7l.112.108a3.721,3.721,0,0,1,0,5.061Zm-6.418,1.5a5.436,5.436,0,0,0,1.84,1.275,5.3,5.3,0,0,0,2.189.41,5.4,5.4,0,0,0,4.06-1.668,5.719,5.719,0,0,0,.063-8.013l-.063-.063a5.754,5.754,0,0,0-8.088-.014,5.654,5.654,0,0,0-1.222,1.843,5.746,5.746,0,0,0,1.2,6.211ZM28.454,25.99a7.333,7.333,0,0,0,2.475,1.668,7.224,7.224,0,0,0,2.923.536,7.481,7.481,0,0,0,3.634-.9,6.731,6.731,0,0,0,2.578-2.479L38.305,23.5a5.289,5.289,0,0,1-1.638,1.7,5.185,5.185,0,0,1-4.539.55,5.248,5.248,0,0,1-1.987-1.257,5.8,5.8,0,0,1,0-7.761,5.186,5.186,0,0,1,1.987-1.253,5.25,5.25,0,0,1,2.332-.252,5.185,5.185,0,0,1,2.207.8,5.332,5.332,0,0,1,1.643,1.695l1.759-1.316a6.842,6.842,0,0,0-2.592-2.47,7.328,7.328,0,0,0-3.621-.91,7.264,7.264,0,0,0-5.4,2.2A7.643,7.643,0,0,0,28.4,25.936.619.619,0,0,0,28.454,25.99Z" transform="translate(-1.611 -0.706)" fill="#02020b" fill-rule="evenodd"/><path d="M.367,16.261l1.047-4.07L8.8,7.855v5.431L.367,18.681Z" transform="translate(-0.009 -0.486)" fill="#1c60dd" fill-rule="evenodd" opacity="0.498"/><path d="M4.094,16.622l8.321-5.241v4.3s-.125,1.42-.734,1.686c-.448.185-7.582,4.462-7.582,4.462Z" transform="translate(-0.24 -0.705)" fill="#1c60dd" fill-rule="evenodd" opacity="0.698"/><path d="M8.922,19.388l7.4-4.417v4.3s0,1.19-.734,1.609c-.474.257-6.66,3.908-6.66,3.908Z" transform="translate(-0.539 -0.927)" fill="#1c60dd" fill-rule="evenodd" opacity="0.898"/><path d="M12.191,6.042,16.26,3.383V8.814L12.2,11.333Z" transform="translate(-0.741 -0.209)" fill="#1c60dd" fill-rule="evenodd" opacity="0.498"/><path d="M15.723,9.5l4.086-2.447v5.62l-4.086,2.407Z" transform="translate(-0.96 -0.437)" fill="#1c60dd" fill-rule="evenodd" opacity="0.698"/><path d="M19.063,1.726,21.846,0V3.745s0,1.875-.734,2.249c-.143.077-2.032,1.19-2.032,1.19Z" transform="translate(-1.166)" fill="#1c60dd" fill-rule="evenodd" opacity="0.498"/><path d="M19.138,13.418l2.771-1.686-.063,4.3a2.076,2.076,0,0,1-.734,1.686c-.183.167-2.072,1.1-2.041,1.118S19.124,13.265,19.138,13.418Z" transform="translate(-1.167 -0.726)" fill="#1c60dd" fill-rule="evenodd" opacity="0.898"/><path d="M22.622,5.489,24.842,4s.022,2.231,0,3.745a3.5,3.5,0,0,1-.313,1.33,3.4,3.4,0,0,1-.792,1.1s-1.146.726-1.114.744S22.622,5.489,22.622,5.489Z" transform="translate(-1.387 -0.248)" fill="#1c60dd" fill-rule="evenodd" opacity="0.698"/><path d="M8.81,7.85C8.774,7.926,2.025,11.32,1,12.483c.524-.446-.443.442-.555,1.776L.771,26.815A3.482,3.482,0,0,0,2.79,30.465c1.808,1.055,12.264,7.071,13.549,7.68s1.616-.356,1.616-.356V25.607a3.457,3.457,0,0,0-1.817-3.353c-.421-.374-13.974-6.625-14.547-8.595C.968,11.541,8.81,8.4,8.81,7.85Z" transform="translate(-0.014 -0.486)" fill="#fbf9f5" fill-rule="evenodd"/><path d="M18.436,26.627l.658-.482V39.129s-.318.649-.658.712C18.4,39.814,18.436,26.627,18.436,26.627Z" transform="translate(-1.127 -1.619)" fill="#c0c9d7" fill-rule="evenodd"/><path d="M1.107,14.092a2.932,2.932,0,0,0,.322.424,2.267,2.267,0,0,1-.34-.5c-.8-2.087,4.991-4.435,7.4-6,0,0-5.854,2.948-7.018,3.975-1.025.91-1.1,1.456-1.1,1.456L.248,14.2c.027-.374.036-.7.125-.766C.369,13.506,1.1,14,1.107,14.092Z" transform="translate(-0.002 -0.496)" fill="#1c60dd"/><path d="M15.805,23.372c-.474-.406-6.548-3.222-10.747-5.764.251.158.47.3.645.415l9.946,20.272c.21.113.367.2.488.261L17.6,39.3V26.274A3.245,3.245,0,0,0,15.805,23.372Z" transform="translate(-0.3 -1.09)" fill="#1c60dd"/><path d="M4.754,17.367a14.423,14.423,0,0,1-3.326-2.5,2.7,2.7,0,0,1-.322-.424c-.009-.1-.721-.658-.7-.726a1.833,1.833,0,0,0-.175.834l.018,12.8a2.876,2.876,0,0,0,.394,1.51,5.312,5.312,0,0,0,1.191,1.375c1.522.942,10.935,6.4,13.526,7.81L5.4,17.777Z" transform="translate(0 -0.849)" fill="#1c60dd"/><path d="M15.976,29.286l-2.068-1.294c-.367-.216-.721-.077-.542.306v3.479a1.13,1.13,0,0,1,.183.757c-.3-.014,1.177,1.235,2.01,1.708.242.14.694.194.658-.374V29.737a.559.559,0,0,0-.063-.257A.466.466,0,0,0,15.976,29.286Z" transform="translate(-0.811 -1.727)" fill="#b0b5be" fill-rule="evenodd"/><path d="M15.883,29.492a16.856,16.856,0,0,0-2.126-1.564c-.183-.135-.5-.041-.5.185a26.641,26.641,0,0,0,.206,4.358c.112.392,1.329,1.221,2.019,1.686.206.14.483.176.492-.081.04-1.109,0-3.673,0-4.331A.38.38,0,0,0,15.883,29.492Z" transform="translate(-0.807 -1.725)" fill="#fbf9f5" fill-rule="evenodd"/></g></svg>