<svg xmlns="http://www.w3.org/2000/svg" width="65.293" height="70" viewBox="0 0 65.293 70"><path d="M-8825.105-920.66a32.607,32.607,0,0,1,25.57-35.331l3.788,3.79,3.1,3.1,6.887-6.887a32.611,32.611,0,0,1,25.573,35.331,32.632,32.632,0,0,1-32.46,29.144A32.628,32.628,0,0,1-8825.105-920.66Zm2.215.359a30.451,30.451,0,0,0,30.245,26.616A30.45,30.45,0,0,0-8762.4-920.3a30.428,30.428,0,0,0-22.668-33.291l-1.812,1.81a28.268,28.268,0,0,1,22.385,30.564,28.283,28.283,0,0,1-28.146,25.369,28.284,28.284,0,0,1-28.149-25.369,28.268,28.268,0,0,1,22.388-30.564l-1.814-1.81A30.429,30.429,0,0,0-8822.891-920.3Zm3.146-1.389a27.193,27.193,0,0,0,27.1,24.76,27.193,27.193,0,0,0,27.1-24.76,27.178,27.178,0,0,0-22.287-29.155l-3.271,3.265-1.539,1.533-1.514-1.553-3.3-3.245A27.18,27.18,0,0,0-8819.745-921.69Zm23.233-35.962,3.866-3.863,3.863,3.863-3.863,3.863Z" transform="translate(8825.292 961.516)" fill="#d8ae60"/></svg>